<svg width="24" height="24" viewBox="0 0 24 24" fill="none" xmlns="http://www.w3.org/2000/svg">
<path fill-rule="evenodd" clip-rule="evenodd" d="M21.75 12C21.75 12.1989 21.671 12.3897 21.5303 12.5303C21.3897 12.671 21.1989 12.75 21 12.75H9.02344C9.30469 17.7872 12.3356 20.3063 12.4706 20.4159C12.5915 20.5133 12.6792 20.6458 12.7216 20.7951C12.764 20.9444 12.759 21.1032 12.7074 21.2495C12.6558 21.3959 12.56 21.5226 12.4333 21.6123C12.3066 21.7019 12.1552 21.75 12 21.75C10.0716 21.75 8.18657 21.1782 6.58319 20.1068C4.97982 19.0355 3.73013 17.5127 2.99218 15.7312C2.25422 13.9496 2.06114 11.9892 2.43735 10.0979C2.81355 8.20656 3.74215 6.46927 5.10571 5.10571C6.46927 3.74215 8.20656 2.81355 10.0979 2.43735C11.9892 2.06114 13.9496 2.25422 15.7312 2.99218C17.5127 3.73013 19.0355 4.97982 20.1068 6.58319C21.1782 8.18657 21.75 10.0716 21.75 12ZM13.9134 3.975C14.9944 5.40657 16.3125 7.82719 16.4803 11.25H20.2153C20.0558 9.5313 19.3623 7.90563 18.2321 6.60096C17.102 5.29629 15.5918 4.37805 13.9134 3.975ZM12 4.03125C11.1056 4.96125 9.23813 7.35188 9.02157 11.25H14.9784C14.7619 7.35 12.8953 4.95938 12 4.03125ZM3.78469 11.25H7.51969C7.6875 7.82719 9.00563 5.40657 10.0866 3.975C8.40818 4.37805 6.89803 5.29629 5.76788 6.60096C4.63773 7.90563 3.94425 9.5313 3.78469 11.25ZM7.51969 12.75H3.78469C3.94425 14.4687 4.63773 16.0944 5.76788 17.3991C6.89803 18.7037 8.40818 19.622 10.0866 20.025C9.00563 18.5934 7.6875 16.1728 7.51969 12.75ZM20.9572 20.4996L18.4648 18L18.4649 18L20.9572 20.4996ZM21.0729 14.8377C21.0722 14.8362 21.0716 14.8348 21.0709 14.8333C21.069 14.8292 21.0671 14.825 21.0651 14.8209C21.0678 14.8265 21.0704 14.8321 21.0729 14.8377ZM15.5563 20.9167L18.0622 18.404L18.0622 18.404L15.5563 20.9167ZM21.1345 20.3229L21.1313 20.3202L18.8179 18L21.1412 15.6699L21.143 15.6678C21.2546 15.5507 21.3294 15.4029 21.3596 15.2437C21.3898 15.0843 21.3744 14.919 21.3148 14.7682C21.2551 14.6174 21.1534 14.4866 21.0207 14.3936C20.8878 14.3006 20.7302 14.2501 20.568 14.25H15.556C15.3938 14.2502 15.2364 14.3008 15.1036 14.3938C14.971 14.4868 14.8694 14.6176 14.8098 14.7685C14.7502 14.9192 14.7348 15.0845 14.7651 15.2438C14.795 15.4014 14.8686 15.5478 14.9784 15.6643L14.9847 15.6715L17.3064 18L14.9847 20.3285L14.9784 20.3357C14.8686 20.4522 14.795 20.5986 14.7651 20.7562C14.7348 20.9155 14.7502 21.0808 14.8098 21.2315C14.8694 21.3824 14.971 21.5132 15.1036 21.6062C15.2364 21.6992 15.3941 21.7498 15.5563 21.75H20.568C20.7303 21.75 20.8878 21.6996 21.0207 21.6066C21.1535 21.5137 21.2553 21.3829 21.315 21.232C21.3747 21.0812 21.3902 20.9159 21.36 20.7565C21.3297 20.597 21.2548 20.449 21.1429 20.3318L21.1345 20.3229ZM16.1587 15.3333H19.9656L18.0622 17.242L16.1587 15.3333ZM19.9656 20.6667H16.1587L18.0622 18.758L19.9656 20.6667Z" fill="#000000"/>
</svg>
