<svg width="24" height="24" viewBox="0 0 24 24" fill="none" xmlns="http://www.w3.org/2000/svg">
<path d="M18.75 10.5C18.75 10.6989 18.671 10.8897 18.5303 11.0303C18.3897 11.171 18.1989 11.25 18 11.25H14.25C14.0511 11.25 13.8603 11.171 13.7197 11.0303C13.579 10.8897 13.5 10.6989 13.5 10.5C13.5 10.3011 13.579 10.1103 13.7197 9.96967C13.8603 9.82902 14.0511 9.75 14.25 9.75H18C18.1989 9.75 18.3897 9.82902 18.5303 9.96967C18.671 10.1103 18.75 10.3011 18.75 10.5ZM18 12.75H14.25C14.0511 12.75 13.8603 12.829 13.7197 12.9697C13.579 13.1103 13.5 13.3011 13.5 13.5C13.5 13.6989 13.579 13.8897 13.7197 14.0303C13.8603 14.171 14.0511 14.25 14.25 14.25H18C18.1989 14.25 18.3897 14.171 18.5303 14.0303C18.671 13.8897 18.75 13.6989 18.75 13.5C18.75 13.3011 18.671 13.1103 18.5303 12.9697C18.3897 12.829 18.1989 12.75 18 12.75ZM21.75 5.25V18.75C21.75 19.1478 21.592 19.5294 21.3107 19.8107C21.0294 20.092 20.6478 20.25 20.25 20.25H3.75C3.35218 20.25 2.97064 20.092 2.68934 19.8107C2.40804 19.5294 2.25 19.1478 2.25 18.75V5.25C2.25 4.85218 2.40804 4.47064 2.68934 4.18934C2.97064 3.90804 3.35218 3.75 3.75 3.75H20.25C20.6478 3.75 21.0294 3.90804 21.3107 4.18934C21.592 4.47064 21.75 4.85218 21.75 5.25ZM20.25 18.75V5.25H3.75V18.75H20.25ZM12.7256 15.5625C12.7754 15.7552 12.7465 15.9598 12.6454 16.1312C12.5443 16.3026 12.3793 16.4268 12.1866 16.4766C11.9939 16.5263 11.7893 16.4974 11.6179 16.3963C11.4465 16.2952 11.3222 16.1302 11.2725 15.9375C11.0259 14.9756 10.0481 14.25 8.99906 14.25C7.95 14.25 6.97312 14.9756 6.72563 15.9375C6.6759 16.1302 6.55166 16.2952 6.38024 16.3963C6.20882 16.4974 6.00426 16.5263 5.81156 16.4766C5.61887 16.4268 5.45382 16.3026 5.35272 16.1312C5.25163 15.9598 5.22277 15.7552 5.2725 15.5625C5.51588 14.6566 6.09118 13.8755 6.88406 13.3744C6.46272 12.9555 6.17522 12.421 6.05802 11.8386C5.94082 11.2562 5.99918 10.652 6.22572 10.1028C6.45226 9.55361 6.83676 9.08402 7.3305 8.75358C7.82423 8.42315 8.40496 8.24675 8.99906 8.24675C9.59317 8.24675 10.1739 8.42315 10.6676 8.75358C11.1614 9.08402 11.5459 9.55361 11.7724 10.1028C11.9989 10.652 12.0573 11.2562 11.9401 11.8386C11.8229 12.421 11.5354 12.9555 11.1141 13.3744C11.9078 13.8748 12.4836 14.6562 12.7266 15.5625H12.7256ZM9 12.75C9.29667 12.75 9.58668 12.662 9.83335 12.4972C10.08 12.3324 10.2723 12.0981 10.3858 11.824C10.4994 11.5499 10.5291 11.2483 10.4712 10.9574C10.4133 10.6664 10.2704 10.3991 10.0607 10.1893C9.85088 9.97956 9.58361 9.8367 9.29264 9.77882C9.00166 9.72094 8.70006 9.75065 8.42597 9.86418C8.15189 9.97771 7.91762 10.17 7.7528 10.4166C7.58797 10.6633 7.5 10.9533 7.5 11.25C7.5 11.6478 7.65804 12.0294 7.93934 12.3107C8.22064 12.592 8.60218 12.75 9 12.75Z" fill="currentColor"/>
</svg>
