<svg width="24" height="24" viewBox="0 0 24 24" fill="none" xmlns="http://www.w3.org/2000/svg">
<path fill-rule="evenodd" clip-rule="evenodd" d="M19.7711 8.08863C19.7779 8.26352 19.7802 8.43833 19.7802 8.61322C19.7802 13.9154 16.0503 20.0365 9.22975 20.0365C7.13458 20.0365 5.18638 19.3687 3.54492 18.232C3.83508 18.2638 4.12976 18.2877 4.42896 18.2877C6.16614 18.2877 7.76615 17.6437 9.03531 16.5625C7.41269 16.5387 6.04255 15.3701 5.57 13.7803C5.79685 13.828 6.03047 13.8519 6.26938 13.8519C6.60627 13.8519 6.93335 13.8043 7.24687 13.7089C5.54888 13.3432 4.26994 11.7216 4.26994 9.77398C4.26994 9.75013 4.26994 9.74214 4.26994 9.72624C4.77037 10.0204 5.34314 10.2031 5.95134 10.227C4.95501 9.50357 4.30007 8.27145 4.30007 6.88032C4.30007 6.14898 4.48246 5.45736 4.80351 4.86116C6.63188 7.29365 9.36542 8.89149 12.4471 9.05843C12.3838 8.7643 12.3514 8.45436 12.3514 8.14433C12.3514 5.92647 14.0117 4.12988 16.0601 4.12988C17.1265 4.12988 18.0897 4.61486 18.7657 5.3939C19.6121 5.21901 20.405 4.88516 21.1224 4.4241C20.8443 5.36212 20.2572 6.14894 19.49 6.6418C20.2407 6.54641 20.9566 6.33194 21.6206 6.01397C21.1224 6.81685 20.4954 7.52423 19.7711 8.08863Z" fill="#1EA1F2"/>
</svg>
