<svg width="24" height="24" viewBox="0 0 24 24" fill="none" xmlns="http://www.w3.org/2000/svg">
<path d="M20.2501 5.24999H16.5001V4.49999C16.5001 3.90326 16.2631 3.33096 15.8411 2.909C15.4192 2.48705 14.8469 2.24999 14.2501 2.24999H9.75012C9.15339 2.24999 8.58109 2.48705 8.15913 2.909C7.73717 3.33096 7.50012 3.90326 7.50012 4.49999V5.24999H3.75012C3.3523 5.24999 2.97077 5.40803 2.68946 5.68933C2.40816 5.97064 2.25012 6.35217 2.25012 6.74999V18.75C2.25012 19.1478 2.40816 19.5293 2.68946 19.8107C2.97077 20.092 3.3523 20.25 3.75012 20.25H20.2501C20.6479 20.25 21.0295 20.092 21.3108 19.8107C21.5921 19.5293 21.7501 19.1478 21.7501 18.75V6.74999C21.7501 6.35217 21.5921 5.97064 21.3108 5.68933C21.0295 5.40803 20.6479 5.24999 20.2501 5.24999ZM9.00012 4.49999C9.00012 4.30108 9.07914 4.11031 9.21979 3.96966C9.36044 3.82901 9.55121 3.74999 9.75012 3.74999H14.2501C14.449 3.74999 14.6398 3.82901 14.7805 3.96966C14.9211 4.11031 15.0001 4.30108 15.0001 4.49999V5.24999H9.00012V4.49999ZM20.2501 6.74999V13.5H3.75012V6.74999H20.2501Z" fill="currentColor"/>
</svg>
