<svg width="20" height="20" viewBox="0 0 20 20" fill="none" xmlns="http://www.w3.org/2000/svg">
<path d="M9.99527 0C4.78109 0 0.539062 4.24202 0.539062 9.45614V10.357C0.539062 10.8177 0.913879 11.1925 1.37463 11.1925C1.40651 11.1925 1.43791 11.1897 1.46911 11.1862L9.547 19.8057C9.66318 19.9296 9.82544 20 9.99527 20C10.1651 20 10.3274 19.9297 10.4435 19.8057L18.5244 11.1829C18.5639 11.1889 18.6039 11.1925 18.6446 11.1925C19.0895 11.1925 19.4514 10.8306 19.4514 10.3857V9.45614C19.4514 4.24202 15.2094 0 9.99527 0ZM6.5826 11.0949L8.52467 16.9181L2.3855 10.3673C2.81683 9.8771 3.4425 9.58604 4.10906 9.58604C4.89139 9.58604 5.61256 9.97921 6.03823 10.6379C6.17195 10.8448 6.3624 11.0016 6.5826 11.0949ZM7.82282 10.9301C7.92542 10.849 8.01566 10.751 8.08876 10.6378C8.51443 9.97915 9.2356 9.5859 10.0179 9.5859C10.8002 9.5859 11.5214 9.97915 11.947 10.6377C12.0207 10.7517 12.1117 10.8503 12.2152 10.9318L10.0002 17.459L7.82282 10.9301ZM13.458 11.0929C13.6763 10.9994 13.8649 10.8434 13.9977 10.6379C14.4234 9.97921 15.1445 9.58597 15.9269 9.58597C16.583 9.58597 17.1978 9.8674 17.628 10.3427L11.4901 16.8921L13.458 11.0929ZM9.99527 1.22868C14.448 1.22868 18.0859 4.78401 18.219 9.20508C17.5901 8.66671 16.7809 8.35736 15.9269 8.35736C14.7298 8.35736 13.6263 8.95647 12.9724 9.96078C12.3186 8.95654 11.2151 8.35736 10.018 8.35736C8.82085 8.35736 7.71736 8.95647 7.0635 9.96078C6.4097 8.95654 5.30614 8.35736 4.10906 8.35736C3.23493 8.35736 2.40604 8.68261 1.77041 9.24617C1.88235 4.80626 5.52894 1.22868 9.99527 1.22868Z" fill="#000000"/>
</svg>
