<svg width="24" height="24" viewBox="0 0 24 24" fill="none" xmlns="http://www.w3.org/2000/svg">
<path d="M24 12.75C24 12.9489 23.921 13.1397 23.7803 13.2803C23.6397 13.421 23.4489 13.5 23.25 13.5H21.75V15C21.75 15.1989 21.671 15.3897 21.5303 15.5303C21.3897 15.671 21.1989 15.75 21 15.75C20.8011 15.75 20.6103 15.671 20.4697 15.5303C20.329 15.3897 20.25 15.1989 20.25 15V13.5H18.75C18.5511 13.5 18.3603 13.421 18.2197 13.2803C18.079 13.1397 18 12.9489 18 12.75C18 12.5511 18.079 12.3603 18.2197 12.2197C18.3603 12.079 18.5511 12 18.75 12H20.25V10.5C20.25 10.3011 20.329 10.1103 20.4697 9.96967C20.6103 9.82901 20.8011 9.75 21 9.75C21.1989 9.75 21.3897 9.82901 21.5303 9.96967C21.671 10.1103 21.75 10.3011 21.75 10.5V12H23.25C23.4489 12 23.6397 12.079 23.7803 12.2197C23.921 12.3603 24 12.5511 24 12.75ZM18.5747 18.2672C18.7027 18.4196 18.765 18.6166 18.7478 18.815C18.7305 19.0133 18.6352 19.1966 18.4828 19.3247C18.3304 19.4527 18.1334 19.515 17.935 19.4978C17.7367 19.4805 17.5534 19.3852 17.4253 19.2328C15.5391 16.9866 12.9459 15.75 10.125 15.75C7.30406 15.75 4.71094 16.9866 2.82469 19.2328C2.69664 19.3851 2.51334 19.4803 2.3151 19.4974C2.11687 19.5146 1.91995 19.4523 1.76766 19.3242C1.61536 19.1962 1.52018 19.0129 1.50304 18.8146C1.48589 18.6164 1.5482 18.4195 1.67625 18.2672C3.07688 16.6003 4.81875 15.4162 6.75469 14.7825C5.57897 14.0502 4.67374 12.9549 4.17594 11.6624C3.67814 10.3698 3.61486 8.95028 3.99567 7.61855C4.37649 6.28681 5.18067 5.11534 6.28657 4.28135C7.39246 3.44736 8.73989 2.99625 10.125 2.99625C11.5101 2.99625 12.8575 3.44736 13.9634 4.28135C15.0693 5.11534 15.8735 6.28681 16.2543 7.61855C16.6351 8.95028 16.5719 10.3698 16.0741 11.6624C15.5763 12.9549 14.671 14.0502 13.4953 14.7825C15.4313 15.4162 17.1731 16.6003 18.5747 18.2672ZM10.125 14.25C11.0892 14.25 12.0317 13.9641 12.8334 13.4284C13.6351 12.8927 14.2599 12.1314 14.6289 11.2406C14.9979 10.3498 15.0944 9.36959 14.9063 8.42393C14.7182 7.47827 14.2539 6.60963 13.5721 5.92785C12.8904 5.24607 12.0217 4.78177 11.0761 4.59367C10.1304 4.40556 9.15021 4.50211 8.25942 4.87108C7.36863 5.24006 6.60726 5.8649 6.07159 6.66659C5.53591 7.46828 5.25 8.41081 5.25 9.375C5.25149 10.6675 5.76558 11.9066 6.6795 12.8205C7.59342 13.7344 8.83253 14.2485 10.125 14.25Z" fill="currentColor"/>
</svg>
