<svg width="24" height="24" viewBox="0 0 24 24" fill="none" xmlns="http://www.w3.org/2000/svg">
<path d="M21.5156 10.5938L15.5691 8.4375L13.4062 2.48438C13.2997 2.19731 13.1078 1.94973 12.8565 1.7749C12.6051 1.60007 12.3062 1.50636 12 1.50636C11.6938 1.50636 11.3949 1.60007 11.1435 1.7749C10.8922 1.94973 10.7003 2.19731 10.5937 2.48438L8.43749 8.43094L2.48437 10.5938C2.1973 10.7003 1.94972 10.8922 1.77489 11.1435C1.60006 11.3949 1.50635 11.6938 1.50635 12C1.50635 12.3062 1.60006 12.6051 1.77489 12.8565C1.94972 13.1078 2.1973 13.2997 2.48437 13.4063L8.43093 15.5625L10.5937 21.5156C10.7003 21.8027 10.8922 22.0503 11.1435 22.2251C11.3949 22.3999 11.6938 22.4936 12 22.4936C12.3062 22.4936 12.6051 22.3999 12.8565 22.2251C13.1078 22.0503 13.2997 21.8027 13.4062 21.5156L15.5691 15.5681L21.5156 13.4063C21.8027 13.2997 22.0503 13.1078 22.2251 12.8565C22.3999 12.6051 22.4936 12.3062 22.4936 12C22.4936 11.6938 22.3999 11.3949 22.2251 11.1435C22.0503 10.8922 21.8027 10.7003 21.5156 10.5938ZM15.0534 14.1563C14.8482 14.2312 14.6618 14.3501 14.5074 14.5046C14.3529 14.659 14.234 14.8454 14.1591 15.0506L12 20.9906L9.84374 15.0534C9.76884 14.8474 9.64969 14.6603 9.49468 14.5053C9.33968 14.3503 9.15258 14.2312 8.94656 14.1563L3.00937 12L8.94656 9.84375C9.15258 9.76885 9.33968 9.6497 9.49468 9.49469C9.64969 9.33968 9.76884 9.15259 9.84374 8.94656L12 3.00938L14.1562 8.94656C14.2312 9.15178 14.3501 9.33815 14.5046 9.49263C14.659 9.64711 14.8454 9.76599 15.0506 9.84094L20.9878 11.9972L15.0534 14.1563Z" fill="currentColor"/>
</svg>
