<svg width="24" height="24" viewBox="0 0 24 24" fill="none" xmlns="http://www.w3.org/2000/svg">
<path d="M1.12496 10.4062L11.625 16.4062C11.7383 16.471 11.8666 16.5051 11.9971 16.5051C12.1277 16.5051 12.256 16.471 12.3693 16.4062L22.8693 10.4062C22.9843 10.3407 23.0799 10.2459 23.1464 10.1315C23.2129 10.017 23.2479 9.88703 23.2479 9.75468C23.2479 9.62233 23.2129 9.49234 23.1464 9.3779C23.0799 9.26347 22.9843 9.16866 22.8693 9.10312L12.3693 3.10311C12.256 3.03833 12.1277 3.00425 11.9971 3.00425C11.8666 3.00425 11.7383 3.03833 11.625 3.10311L1.12496 9.10312C1.00998 9.16866 0.914397 9.26347 0.847909 9.3779C0.781421 9.49234 0.746399 9.62233 0.746399 9.75468C0.746399 9.88703 0.781421 10.017 0.847909 10.1315C0.914397 10.2459 1.00998 10.3407 1.12496 10.4062Z" fill="currentColor"/>
<path d="M22.125 12.8484L12 18.6366L1.87502 12.8484C1.78915 12.7992 1.69442 12.7673 1.59623 12.7547C1.49805 12.7421 1.39834 12.7489 1.3028 12.7748C1.20726 12.8007 1.11775 12.8452 1.03939 12.9056C0.961035 12.9661 0.895358 13.0415 0.846112 13.1273C0.796866 13.2132 0.765017 13.3079 0.752382 13.4061C0.739746 13.5043 0.746573 13.604 0.772472 13.6996C0.798371 13.7951 0.842835 13.8846 0.903325 13.963C0.963815 14.0413 1.03915 14.107 1.12502 14.1562L11.625 20.1562C11.7384 20.221 11.8667 20.2551 11.9972 20.2551C12.1278 20.2551 12.2561 20.221 12.3694 20.1562L22.8694 14.1562C22.955 14.1074 23.0301 14.0421 23.0904 13.9642C23.1508 13.8863 23.1952 13.7973 23.2211 13.7022C23.247 13.6072 23.254 13.5079 23.2416 13.4102C23.2292 13.3124 23.1976 13.2181 23.1488 13.1325C23.0999 13.0469 23.0346 12.9718 22.9567 12.9115C22.8788 12.8511 22.7898 12.8067 22.6948 12.7808C22.5997 12.7548 22.5004 12.7479 22.4027 12.7603C22.3049 12.7727 22.2106 12.8042 22.125 12.8531V12.8484Z" fill="currentColor"/>
</svg>
