<svg width="81" height="80" viewBox="0 0 81 80" fill="none" xmlns="http://www.w3.org/2000/svg">
<path d="M59.6499 30.8534C59.4319 25.4063 57.0876 20.2616 53.1198 16.5232C49.152 12.7848 43.8769 10.7506 38.4265 10.857C32.976 10.9634 27.7844 13.202 23.9656 17.0925C20.1468 20.9829 18.005 26.2153 17.9999 31.6668V34.3634C14.0651 34.9895 10.5109 37.076 8.04647 40.2067C5.58204 43.3374 4.38853 47.2822 4.70405 51.254C5.01958 55.2258 6.82093 58.9326 9.74875 61.635C12.6766 64.3373 16.5156 65.8365 20.4999 65.8334H58.8332C63.4004 65.8283 67.7846 64.038 71.0498 60.8446C74.315 57.6512 76.2023 53.3078 76.3089 48.7419C76.4155 44.176 74.7329 39.7493 71.6203 36.407C68.5077 33.0647 64.2119 31.0717 59.6499 30.8534ZM48.9332 45.1001C48.7016 45.3327 48.4263 45.5173 48.1231 45.6432C47.8199 45.7692 47.4949 45.834 47.1666 45.834C46.8383 45.834 46.5132 45.7692 46.21 45.6432C45.9069 45.5173 45.6316 45.3327 45.3999 45.1001L42.9999 42.7034V50.0001C42.9999 50.6631 42.7365 51.299 42.2677 51.7679C41.7988 52.2367 41.1629 52.5001 40.4999 52.5001C39.8369 52.5001 39.201 52.2367 38.7321 51.7679C38.2633 51.299 37.9999 50.6631 37.9999 50.0001V42.7034L35.5999 45.1001C35.126 45.5417 34.4992 45.7821 33.8515 45.7707C33.2038 45.7593 32.5859 45.4969 32.1278 45.0388C31.6698 44.5808 31.4074 43.9628 31.396 43.3152C31.3846 42.6675 31.625 42.0407 32.0666 41.5668L38.7332 34.9001C39.2024 34.4327 39.8377 34.1703 40.4999 34.1703C41.1621 34.1703 41.7974 34.4327 42.2666 34.9001L48.9332 41.5668C49.1654 41.7986 49.3497 42.074 49.4754 42.3772C49.6011 42.6803 49.6657 43.0053 49.6657 43.3334C49.6657 43.6616 49.6011 43.9865 49.4754 44.2897C49.3497 44.5928 49.1654 44.8682 48.9332 45.1001Z" fill="#000000"/>
</svg>
