<svg width="24" height="24" viewBox="0 0 24 24" fill="none" xmlns="http://www.w3.org/2000/svg">
<path d="M4.5 5.25V18.75C4.5 18.9489 4.42098 19.1397 4.28033 19.2803C4.13968 19.421 3.94891 19.5 3.75 19.5C3.55109 19.5 3.36032 19.421 3.21967 19.2803C3.07902 19.1397 3 18.9489 3 18.75V5.25C3 5.05109 3.07902 4.86032 3.21967 4.71967C3.36032 4.57902 3.55109 4.5 3.75 4.5C3.94891 4.5 4.13968 4.57902 4.28033 4.71967C4.42098 4.86032 4.5 5.05109 4.5 5.25ZM12.375 10.3594L10.5 10.9688V9C10.5 8.80109 10.421 8.61032 10.2803 8.46967C10.1397 8.32902 9.94891 8.25 9.75 8.25C9.55109 8.25 9.36032 8.32902 9.21967 8.46967C9.07902 8.61032 9 8.80109 9 9V10.9688L7.125 10.3594C6.93578 10.2972 6.72963 10.3128 6.55188 10.4026C6.37413 10.4924 6.23935 10.6492 6.17719 10.8384C6.11503 11.0277 6.13058 11.2338 6.22042 11.4116C6.31026 11.5893 6.46703 11.7241 6.65625 11.7863L8.53125 12.3947L7.37438 13.9884C7.31324 14.0679 7.26864 14.1588 7.24323 14.2557C7.21782 14.3527 7.2121 14.4538 7.22642 14.553C7.24073 14.6522 7.27479 14.7475 7.32658 14.8334C7.37837 14.9192 7.44683 14.9938 7.52793 15.0527C7.60903 15.1116 7.70112 15.1536 7.79875 15.1764C7.89638 15.1991 7.99758 15.202 8.09636 15.1849C8.19514 15.1679 8.28949 15.1312 8.37385 15.077C8.45821 15.0229 8.53086 14.9524 8.5875 14.8697L9.74438 13.2759L10.9012 14.8697C10.9579 14.9524 11.0305 15.0229 11.1149 15.077C11.1993 15.1312 11.2936 15.1679 11.3924 15.1849C11.4912 15.202 11.5924 15.1991 11.69 15.1764C11.7876 15.1536 11.8797 15.1116 11.9608 15.0527C12.0419 14.9938 12.1104 14.9192 12.1622 14.8334C12.214 14.7475 12.248 14.6522 12.2623 14.553C12.2766 14.4538 12.2709 14.3527 12.2455 14.2557C12.2201 14.1588 12.1755 14.0679 12.1144 13.9884L10.9575 12.3947L12.8325 11.7863C13.0134 11.719 13.1613 11.5846 13.2456 11.411C13.33 11.2375 13.3441 11.0381 13.2852 10.8543C13.2263 10.6706 13.0988 10.5166 12.9293 10.4244C12.7598 10.3322 12.5613 10.3089 12.375 10.3594ZM22.3125 10.8412C22.251 10.6538 22.1182 10.498 21.9427 10.4078C21.7672 10.3176 21.5632 10.3002 21.375 10.3594L19.5 10.9688V9C19.5 8.80109 19.421 8.61032 19.2803 8.46967C19.1397 8.32902 18.9489 8.25 18.75 8.25C18.5511 8.25 18.3603 8.32902 18.2197 8.46967C18.079 8.61032 18 8.80109 18 9V10.9688L16.125 10.3603C16.0313 10.3298 15.9325 10.3181 15.8343 10.3258C15.7361 10.3335 15.6404 10.3605 15.5526 10.4052C15.4648 10.4499 15.3866 10.5115 15.3226 10.5864C15.2586 10.6613 15.21 10.748 15.1795 10.8417C15.1491 10.9354 15.1373 11.0342 15.145 11.1324C15.1527 11.2306 15.1797 11.3264 15.2244 11.4142C15.2691 11.502 15.3307 11.5801 15.4056 11.6441C15.4805 11.7081 15.5672 11.7567 15.6609 11.7872L17.5359 12.3956L16.3791 13.9894C16.3179 14.0688 16.2733 14.1597 16.2479 14.2567C16.2225 14.3536 16.2168 14.4547 16.2311 14.5539C16.2454 14.6531 16.2795 14.7485 16.3313 14.8343C16.3831 14.9201 16.4515 14.9947 16.5326 15.0536C16.6137 15.1125 16.7058 15.1546 16.8034 15.1773C16.9011 15.2 17.0023 15.2029 17.101 15.1859C17.1998 15.1688 17.2942 15.1321 17.3785 15.078C17.4629 15.0238 17.5355 14.9533 17.5922 14.8706L18.7491 13.2769L19.9059 14.8706C19.9626 14.9533 20.0352 15.0238 20.1196 15.078C20.2039 15.1321 20.2983 15.1688 20.3971 15.1859C20.4959 15.2029 20.5971 15.2 20.6947 15.1773C20.7923 15.1546 20.8844 15.1125 20.9655 15.0536C21.0466 14.9947 21.1151 14.9201 21.1669 14.8343C21.2186 14.7485 21.2527 14.6531 21.267 14.5539C21.2813 14.4547 21.2756 14.3536 21.2502 14.2567C21.2248 14.1597 21.1802 14.0688 21.1191 13.9894L19.9622 12.3956L21.8372 11.7872C22.0254 11.7245 22.1811 11.5897 22.2702 11.4124C22.3593 11.2351 22.3745 11.0297 22.3125 10.8412Z" fill="currentColor"/>
</svg>
