<svg width="49" height="48" viewBox="0 0 49 48" fill="none" xmlns="http://www.w3.org/2000/svg">
<path fill-rule="evenodd" clip-rule="evenodd" d="M31.0338 28.4401L17.2386 32.1368C17.0588 32.1833 16.89 32.2649 16.7419 32.377C16.5938 32.4891 16.4694 32.6294 16.3759 32.7898C16.2823 32.9502 16.2214 33.1276 16.1968 33.3116C16.1721 33.4957 16.1842 33.6828 16.2322 33.8622C16.2803 34.0416 16.3634 34.2097 16.4768 34.3568C16.5901 34.5039 16.7315 34.627 16.8927 34.7192C17.054 34.8114 17.2319 34.8707 17.4161 34.8937C17.6004 34.9167 17.7874 34.903 17.9664 34.8534L31.7616 31.1568C31.9406 31.1095 32.1084 31.0274 32.2556 30.9151C32.4027 30.8028 32.5263 30.6626 32.6191 30.5025C32.7119 30.3423 32.7723 30.1655 32.7966 29.982C32.8209 29.7985 32.8088 29.612 32.7609 29.4332C32.713 29.2544 32.6303 29.0869 32.5175 28.9401C32.4047 28.7934 32.264 28.6703 32.1036 28.5781C31.9431 28.4858 31.766 28.4261 31.5825 28.4024C31.3989 28.3787 31.2124 28.3915 31.0338 28.4401Z" fill="#141614"/>
<path fill-rule="evenodd" clip-rule="evenodd" d="M20.7246 17.6507C20.7246 17.0937 20.5595 16.5493 20.25 16.0861C19.9406 15.623 19.5008 15.2621 18.9862 15.0489C18.4717 14.8357 17.9054 14.7799 17.3592 14.8886C16.8129 14.9972 16.3111 15.2654 15.9172 15.6592C15.5234 16.053 15.2551 16.5548 15.1464 17.1011C15.0377 17.6473 15.0935 18.2136 15.3066 18.7282C15.5197 19.2428 15.8806 19.6826 16.3437 19.9921C16.8068 20.3016 17.3513 20.4667 17.9083 20.4668C18.6549 20.4658 19.3706 20.1689 19.8986 19.641C20.4265 19.1131 20.7236 18.3973 20.7246 17.6507Z" fill="#141614"/>
<path fill-rule="evenodd" clip-rule="evenodd" d="M33.908 17.6509C33.9078 18.2078 33.7425 18.7522 33.433 19.2152C33.1235 19.6782 32.6836 20.039 32.169 20.252C31.6545 20.465 31.0883 20.5206 30.5421 20.4119C29.9959 20.3032 29.4942 20.0349 29.1004 19.641C28.7067 19.2472 28.4385 18.7454 28.3299 18.1992C28.2213 17.6529 28.2771 17.0868 28.4903 16.5723C28.7034 16.0577 29.0644 15.618 29.5274 15.3086C29.9905 14.9992 30.5349 14.834 31.0919 14.834C31.8386 14.8348 32.5546 15.1318 33.0826 15.6599C33.6106 16.1881 33.9074 16.9041 33.908 17.6509Z" fill="#141614"/>
<path fill-rule="evenodd" clip-rule="evenodd" d="M24.5 1.98587e-05C30.0526 -3.80952e-05 35.4333 1.92517 39.7255 5.44762C44.0177 8.97006 46.9558 13.8718 48.0391 19.3176C49.1224 24.7635 48.2839 30.4164 45.6665 35.3133C43.0491 40.2103 38.8147 44.0481 33.6849 46.173C28.555 48.298 22.8471 48.5784 17.5336 46.9666C12.2202 45.3549 7.62998 41.9506 4.54512 37.3339C1.46026 32.7171 0.0716298 27.1736 0.61583 21.6478C1.16003 16.122 3.60339 10.9558 7.52959 7.02958C9.75571 4.79764 12.401 3.02763 15.3133 1.82126C18.2257 0.614896 21.3477 -0.00404154 24.5 1.98587e-05ZM39.3494 9.15068C35.9139 5.71508 31.3934 3.57699 26.5583 3.10069C21.7231 2.6244 16.8723 3.83938 12.8325 6.53862C8.79274 9.23785 5.81385 13.2543 4.40343 17.9037C2.99301 22.5531 3.23833 27.5476 5.09759 32.0364C6.95686 36.5251 10.315 40.2304 14.5999 42.5207C18.8848 44.8111 23.8312 45.5448 28.5965 44.597C33.3617 43.6491 37.6509 41.0783 40.7331 37.3226C43.8154 33.5669 45.5 28.8586 45.5 24C45.5036 21.2417 44.9621 18.5099 43.9066 15.9615C42.851 13.4132 41.3023 11.0986 39.3494 9.15068Z" fill="#141614"/>
</svg>
