<svg width="24" height="24" viewBox="0 0 24 24" fill="none" xmlns="http://www.w3.org/2000/svg">
<path d="M21.5307 20.4694L16.8366 15.7763C18.1971 14.1429 18.8756 12.0478 18.7308 9.92695C18.586 7.80609 17.6291 5.82269 16.0592 4.38936C14.4893 2.95604 12.4272 2.18313 10.3019 2.23143C8.17669 2.27973 6.15187 3.14552 4.6487 4.64869C3.14553 6.15186 2.27974 8.17667 2.23144 10.3019C2.18314 12.4272 2.95605 14.4892 4.38938 16.0592C5.82271 17.6291 7.8061 18.5859 9.92697 18.7307C12.0478 18.8755 14.1429 18.1971 15.7763 16.8366L20.4694 21.5306C20.5391 21.6003 20.6218 21.6556 20.7129 21.6933C20.8039 21.731 20.9015 21.7504 21 21.7504C21.0986 21.7504 21.1962 21.731 21.2872 21.6933C21.3783 21.6556 21.461 21.6003 21.5307 21.5306C21.6003 21.461 21.6556 21.3782 21.6933 21.2872C21.731 21.1961 21.7505 21.0986 21.7505 21C21.7505 20.9015 21.731 20.8039 21.6933 20.7128C21.6556 20.6218 21.6003 20.5391 21.5307 20.4694ZM3.75003 10.5C3.75003 9.16499 4.14591 7.85995 4.88761 6.74992C5.62931 5.63988 6.68352 4.77472 7.91692 4.26383C9.15032 3.75294 10.5075 3.61926 11.8169 3.87972C13.1263 4.14017 14.329 4.78304 15.273 5.72704C16.217 6.67105 16.8599 7.87378 17.1203 9.18316C17.3808 10.4925 17.2471 11.8497 16.7362 13.0831C16.2253 14.3165 15.3602 15.3707 14.2501 16.1124C13.1401 16.8541 11.8351 17.25 10.5 17.25C8.71043 17.248 6.99469 16.5362 5.72925 15.2708C4.46381 14.0054 3.75202 12.2896 3.75003 10.5Z" fill="currentColor"/>
</svg>
