<svg width="24" height="24" viewBox="0 0 24 24" fill="none" xmlns="http://www.w3.org/2000/svg">
<path d="M20.25 5.24999H16.5V4.49999C16.5 3.90326 16.2629 3.33096 15.841 2.909C15.419 2.48705 14.8467 2.24999 14.25 2.24999H9.75C9.15326 2.24999 8.58097 2.48705 8.15901 2.909C7.73705 3.33096 7.5 3.90326 7.5 4.49999V5.24999H3.75C3.35218 5.24999 2.97064 5.40803 2.68934 5.68933C2.40804 5.97064 2.25 6.35217 2.25 6.74999V18.75C2.25 19.1478 2.40804 19.5293 2.68934 19.8107C2.97064 20.092 3.35218 20.25 3.75 20.25H20.25C20.6478 20.25 21.0294 20.092 21.3107 19.8107C21.592 19.5293 21.75 19.1478 21.75 18.75V6.74999C21.75 6.35217 21.592 5.97064 21.3107 5.68933C21.0294 5.40803 20.6478 5.24999 20.25 5.24999ZM9 4.49999C9 4.30108 9.07902 4.11031 9.21967 3.96966C9.36032 3.82901 9.55109 3.74999 9.75 3.74999H14.25C14.4489 3.74999 14.6397 3.82901 14.7803 3.96966C14.921 4.11031 15 4.30108 15 4.49999V5.24999H9V4.49999ZM20.25 6.74999V13.5H3.75V6.74999H20.25ZM20.25 18.75H3.75V15H20.25V18.75Z" fill="#000000"/>
</svg>
