<svg width="24" height="24" viewBox="0 0 24 24" fill="none" xmlns="http://www.w3.org/2000/svg">
<path d="M19.5 3.75H4.5C4.10218 3.75 3.72064 3.90804 3.43934 4.18934C3.15804 4.47064 3 4.85218 3 5.25V10.7606C3 19.1616 10.1081 21.9487 11.5312 22.4222C11.8352 22.5256 12.1648 22.5256 12.4688 22.4222C13.8938 21.9487 21 19.1616 21 10.7606V5.25C21 4.85218 20.842 4.47064 20.5607 4.18934C20.2794 3.90804 19.8978 3.75 19.5 3.75ZM19.5 10.7616C19.5 18.1134 13.2797 20.5697 12 20.9972C10.7316 20.5744 4.5 18.12 4.5 10.7616V5.25H19.5V10.7616ZM7.71937 13.2806C7.57864 13.1399 7.49958 12.949 7.49958 12.75C7.49958 12.551 7.57864 12.3601 7.71937 12.2194C7.86011 12.0786 8.05098 11.9996 8.25 11.9996C8.44902 11.9996 8.63989 12.0786 8.78063 12.2194L10.5 13.9387L15.2194 9.21937C15.2891 9.14969 15.3718 9.09442 15.4628 9.0567C15.5539 9.01899 15.6515 8.99958 15.75 8.99958C15.8485 8.99958 15.9461 9.01899 16.0372 9.0567C16.1282 9.09442 16.2109 9.14969 16.2806 9.21937C16.3503 9.28906 16.4056 9.37178 16.4433 9.46283C16.481 9.55387 16.5004 9.65145 16.5004 9.75C16.5004 9.84855 16.481 9.94613 16.4433 10.0372C16.4056 10.1282 16.3503 10.2109 16.2806 10.2806L11.0306 15.5306C10.961 15.6004 10.8783 15.6557 10.7872 15.6934C10.6962 15.7312 10.5986 15.7506 10.5 15.7506C10.4014 15.7506 10.3038 15.7312 10.2128 15.6934C10.1217 15.6557 10.039 15.6004 9.96937 15.5306L7.71937 13.2806Z" fill="currentColor"/>
</svg>
