<svg width="24" height="24" viewBox="0 0 24 24" fill="none" xmlns="http://www.w3.org/2000/svg">
<path d="M10.5 20.25C10.5 20.4489 10.421 20.6397 10.2803 20.7803C10.1397 20.921 9.94891 21 9.75 21H4.5C4.10218 21 3.72064 20.842 3.43934 20.5607C3.15804 20.2794 3 19.8978 3 19.5V4.5C3 4.10218 3.15804 3.72064 3.43934 3.43934C3.72064 3.15804 4.10218 3 4.5 3H9.75C9.94891 3 10.1397 3.07902 10.2803 3.21967C10.421 3.36032 10.5 3.55109 10.5 3.75C10.5 3.94891 10.421 4.13968 10.2803 4.28033C10.1397 4.42098 9.94891 4.5 9.75 4.5H4.5V19.5H9.75C9.94891 19.5 10.1397 19.579 10.2803 19.7197C10.421 19.8603 10.5 20.0511 10.5 20.25ZM20.7806 11.4694L17.0306 7.71937C16.8899 7.57864 16.699 7.49958 16.5 7.49958C16.301 7.49958 16.1101 7.57864 15.9694 7.71937C15.8286 7.86011 15.7496 8.05098 15.7496 8.25C15.7496 8.44902 15.8286 8.63989 15.9694 8.78063L18.4397 11.25H9.75C9.55109 11.25 9.36032 11.329 9.21967 11.4697C9.07902 11.6103 9 11.8011 9 12C9 12.1989 9.07902 12.3897 9.21967 12.5303C9.36032 12.671 9.55109 12.75 9.75 12.75H18.4397L15.9694 15.2194C15.8286 15.3601 15.7496 15.551 15.7496 15.75C15.7496 15.949 15.8286 16.1399 15.9694 16.2806C16.1101 16.4214 16.301 16.5004 16.5 16.5004C16.699 16.5004 16.8899 16.4214 17.0306 16.2806L20.7806 12.5306C20.8504 12.461 20.9057 12.3783 20.9434 12.2872C20.9812 12.1962 21.0006 12.0986 21.0006 12C21.0006 11.9014 20.9812 11.8038 20.9434 11.7128C20.9057 11.6217 20.8504 11.539 20.7806 11.4694Z" fill="currentColor"/>
</svg>
