<svg width="24" height="24" viewBox="0 0 24 24" fill="none" xmlns="http://www.w3.org/2000/svg">
<path d="M21 12C21.0002 14.3661 20.0686 16.6372 18.4069 18.3216C16.7451 20.006 14.4869 20.9682 12.1209 21H12C9.70147 21.0057 7.48901 20.1261 5.82187 18.5437C5.75028 18.476 5.69273 18.3949 5.6525 18.3049C5.61227 18.215 5.59016 18.118 5.58741 18.0195C5.58467 17.921 5.60136 17.8229 5.63652 17.7308C5.67168 17.6388 5.72463 17.5546 5.79234 17.483C5.86006 17.4114 5.94121 17.3538 6.03116 17.3136C6.12112 17.2734 6.21812 17.2512 6.31662 17.2485C6.41512 17.2458 6.5132 17.2624 6.60525 17.2976C6.69731 17.3328 6.78153 17.3857 6.85312 17.4534C7.92544 18.4647 9.27195 19.1376 10.7245 19.388C12.177 19.6385 13.6711 19.4554 15.0202 18.8616C16.3692 18.2679 17.5134 17.2898 18.3098 16.0495C19.1062 14.8092 19.5195 13.3618 19.4981 11.888C19.4766 10.4142 19.0214 8.97941 18.1892 7.76284C17.3571 6.54626 16.1849 5.60185 14.8192 5.04759C13.4534 4.49333 11.9546 4.35378 10.51 4.64638C9.06537 4.93899 7.739 5.65077 6.69656 6.69281C6.6889 6.70109 6.68076 6.70892 6.67219 6.71625L4.18031 9H6.75C6.94891 9 7.13968 9.07901 7.28033 9.21967C7.42098 9.36032 7.5 9.55108 7.5 9.75C7.5 9.94891 7.42098 10.1397 7.28033 10.2803C7.13968 10.421 6.94891 10.5 6.75 10.5H2.25C2.05109 10.5 1.86032 10.421 1.71967 10.2803C1.57902 10.1397 1.5 9.94891 1.5 9.75V5.25C1.5 5.05108 1.57902 4.86032 1.71967 4.71967C1.86032 4.57901 2.05109 4.5 2.25 4.5C2.44891 4.5 2.63968 4.57901 2.78033 4.71967C2.92098 4.86032 3 5.05108 3 5.25V8.04375L5.64844 5.625C6.90842 4.36991 8.512 3.51625 10.2567 3.17178C12.0015 2.8273 13.8092 3.00746 15.4516 3.68952C17.0941 4.37157 18.4976 5.52493 19.4851 7.00401C20.4726 8.48309 20.9997 10.2216 21 12Z" fill="#000000"/>
</svg>
