<svg width="24" height="24" viewBox="0 0 24 24" fill="none" xmlns="http://www.w3.org/2000/svg">
<path d="M20.7936 16.4944C20.2733 15.5981 19.4999 13.0622 19.4999 9.74999C19.4999 7.76087 18.7097 5.85321 17.3032 4.44669C15.8967 3.04017 13.989 2.24999 11.9999 2.24999C10.0108 2.24999 8.10311 3.04017 6.69659 4.44669C5.29007 5.85321 4.49989 7.76087 4.49989 9.74999C4.49989 13.0631 3.72551 15.5981 3.2052 16.4944C3.07233 16.7222 3.00189 16.9811 3.00099 17.2448C3.00008 17.5086 3.06874 17.7679 3.20005 17.9967C3.33135 18.2255 3.52065 18.4156 3.74886 18.5478C3.97708 18.6801 4.23613 18.7498 4.49989 18.75H8.32583C8.49886 19.5967 8.95904 20.3577 9.62851 20.9042C10.298 21.4507 11.1357 21.7491 11.9999 21.7491C12.8641 21.7491 13.7018 21.4507 14.3713 20.9042C15.0407 20.3577 15.5009 19.5967 15.674 18.75H19.4999C19.7636 18.7496 20.0225 18.6798 20.2506 18.5475C20.4787 18.4151 20.6678 18.225 20.799 17.9963C20.9302 17.7676 20.9988 17.5083 20.9979 17.2446C20.9969 16.9809 20.9265 16.7222 20.7936 16.4944ZM11.9999 20.25C11.5347 20.2498 11.081 20.1055 10.7013 19.8369C10.3215 19.5683 10.0343 19.1886 9.87926 18.75H14.1205C13.9655 19.1886 13.6783 19.5683 13.2985 19.8369C12.9187 20.1055 12.4651 20.2498 11.9999 20.25Z" fill="currentColor"/>
</svg>
