<svg width="24" height="24" viewBox="0 0 24 24" fill="none" xmlns="http://www.w3.org/2000/svg">
<path d="M19.2806 14.0306L12.5306 20.7806C12.4609 20.8504 12.3782 20.9057 12.2871 20.9434C12.1961 20.9812 12.0985 21.0006 11.9999 21.0006C11.9014 21.0006 11.8038 20.9812 11.7127 20.9434C11.6217 20.9057 11.539 20.8504 11.4693 20.7806L4.7193 14.0306C4.57857 13.8899 4.49951 13.699 4.49951 13.5C4.49951 13.301 4.57857 13.1101 4.7193 12.9694C4.86003 12.8286 5.05091 12.7496 5.24993 12.7496C5.44895 12.7496 5.63982 12.8286 5.78055 12.9694L11.2499 18.4397V3.75C11.2499 3.55109 11.3289 3.36032 11.4696 3.21967C11.6103 3.07902 11.801 3 11.9999 3C12.1988 3 12.3896 3.07902 12.5303 3.21967C12.6709 3.36032 12.7499 3.55109 12.7499 3.75V18.4397L18.2193 12.9694C18.36 12.8286 18.5509 12.7496 18.7499 12.7496C18.949 12.7496 19.1398 12.8286 19.2806 12.9694C19.4213 13.1101 19.5003 13.301 19.5003 13.5C19.5003 13.699 19.4213 13.8899 19.2806 14.0306Z" fill="currentColor"/>
</svg>
