<svg width="24" height="24" viewBox="0 0 24 24" fill="none" xmlns="http://www.w3.org/2000/svg">
<path d="M9.75 5.625C9.75 5.8475 9.68402 6.06501 9.5604 6.25001C9.43679 6.43502 9.26109 6.57921 9.05552 6.66436C8.84995 6.74951 8.62375 6.77179 8.40552 6.72838C8.1873 6.68497 7.98684 6.57783 7.82951 6.42049C7.67217 6.26316 7.56503 6.0627 7.52162 5.84447C7.47821 5.62624 7.50049 5.40004 7.58564 5.19448C7.67078 4.98891 7.81498 4.81321 7.99998 4.68959C8.18499 4.56598 8.4025 4.5 8.625 4.5C8.92337 4.5 9.20952 4.61852 9.4205 4.8295C9.63147 5.04048 9.75 5.32663 9.75 5.625ZM15.375 6.75C15.5975 6.75 15.815 6.68402 16 6.5604C16.185 6.43678 16.3292 6.26108 16.4144 6.05552C16.4995 5.84995 16.5218 5.62375 16.4784 5.40552C16.435 5.18729 16.3278 4.98684 16.1705 4.8295C16.0132 4.67217 15.8127 4.56502 15.5945 4.52161C15.3762 4.4782 15.15 4.50048 14.9445 4.58563C14.7389 4.67078 14.5632 4.81497 14.4396 4.99998C14.316 5.18499 14.25 5.40249 14.25 5.625C14.25 5.92337 14.3685 6.20951 14.5795 6.42049C14.7905 6.63147 15.0766 6.75 15.375 6.75ZM8.625 10.875C8.4025 10.875 8.18499 10.941 7.99998 11.0646C7.81498 11.1882 7.67078 11.3639 7.58564 11.5695C7.50049 11.775 7.47821 12.0012 7.52162 12.2195C7.56503 12.4377 7.67217 12.6382 7.82951 12.7955C7.98684 12.9528 8.1873 13.06 8.40552 13.1034C8.62375 13.1468 8.84995 13.1245 9.05552 13.0394C9.26109 12.9542 9.43679 12.81 9.5604 12.625C9.68402 12.44 9.75 12.2225 9.75 12C9.75 11.7016 9.63147 11.4155 9.4205 11.2045C9.20952 10.9935 8.92337 10.875 8.625 10.875ZM15.375 10.875C15.1525 10.875 14.935 10.941 14.75 11.0646C14.565 11.1882 14.4208 11.3639 14.3356 11.5695C14.2505 11.775 14.2282 12.0012 14.2716 12.2195C14.315 12.4377 14.4222 12.6382 14.5795 12.7955C14.7368 12.9528 14.9373 13.06 15.1555 13.1034C15.3738 13.1468 15.6 13.1245 15.8055 13.0394C16.0111 12.9542 16.1868 12.81 16.3104 12.625C16.434 12.44 16.5 12.2225 16.5 12C16.5 11.7016 16.3815 11.4155 16.1705 11.2045C15.9595 10.9935 15.6734 10.875 15.375 10.875ZM8.625 17.25C8.4025 17.25 8.18499 17.316 7.99998 17.4396C7.81498 17.5632 7.67078 17.7389 7.58564 17.9445C7.50049 18.15 7.47821 18.3762 7.52162 18.5945C7.56503 18.8127 7.67217 19.0132 7.82951 19.1705C7.98684 19.3278 8.1873 19.435 8.40552 19.4784C8.62375 19.5218 8.84995 19.4995 9.05552 19.4144C9.26109 19.3292 9.43679 19.185 9.5604 19C9.68402 18.815 9.75 18.5975 9.75 18.375C9.75 18.0766 9.63147 17.7905 9.4205 17.5795C9.20952 17.3685 8.92337 17.25 8.625 17.25ZM15.375 17.25C15.1525 17.25 14.935 17.316 14.75 17.4396C14.565 17.5632 14.4208 17.7389 14.3356 17.9445C14.2505 18.15 14.2282 18.3762 14.2716 18.5945C14.315 18.8127 14.4222 19.0132 14.5795 19.1705C14.7368 19.3278 14.9373 19.435 15.1555 19.4784C15.3738 19.5218 15.6 19.4995 15.8055 19.4144C16.0111 19.3292 16.1868 19.185 16.3104 19C16.434 18.815 16.5 18.5975 16.5 18.375C16.5 18.0766 16.3815 17.7905 16.1705 17.5795C15.9595 17.3685 15.6734 17.25 15.375 17.25Z" fill="currentColor"/>
</svg>
