<svg width="24" height="24" viewBox="0 0 24 24" fill="none" xmlns="http://www.w3.org/2000/svg">
<path d="M1.12526 10.4067L11.6253 16.4067C11.7386 16.4715 11.8669 16.5055 11.9974 16.5055C12.128 16.5055 12.2563 16.4715 12.3696 16.4067L22.8696 10.4067C22.9846 10.3411 23.0802 10.2463 23.1467 10.1319C23.2132 10.0175 23.2482 9.88746 23.2482 9.75511C23.2482 9.62276 23.2132 9.49277 23.1467 9.37833C23.0802 9.2639 22.9846 9.1691 22.8696 9.10355L12.3696 3.10355C12.2563 3.03876 12.128 3.00468 11.9974 3.00468C11.8669 3.00468 11.7386 3.03876 11.6253 3.10355L1.12526 9.10355C1.01028 9.1691 0.914699 9.2639 0.848211 9.37833C0.781723 9.49277 0.746701 9.62276 0.746701 9.75511C0.746701 9.88746 0.781723 10.0175 0.848211 10.1319C0.914699 10.2463 1.01028 10.3411 1.12526 10.4067ZM12.0003 4.61386L20.9881 9.75042L12.0003 14.887L3.01245 9.75042L12.0003 4.61386ZM23.1509 13.1254C23.2011 13.2111 23.2339 13.3058 23.2472 13.4042C23.2606 13.5026 23.2542 13.6027 23.2286 13.6987C23.203 13.7946 23.1585 13.8845 23.0979 13.9631C23.0372 14.0417 22.9615 14.1075 22.8753 14.1567L12.3753 20.1567C12.2619 20.2215 12.1336 20.2555 12.0031 20.2555C11.8725 20.2555 11.7442 20.2215 11.6309 20.1567L1.12526 14.1567C1.03939 14.1074 0.964059 14.0417 0.903569 13.9634C0.843079 13.885 0.798615 13.7955 0.772716 13.7C0.746817 13.6044 0.73999 13.5047 0.752626 13.4066C0.765261 13.3084 0.797111 13.2136 0.846356 13.1278C0.895602 13.0419 0.961279 12.9666 1.03964 12.9061C1.118 12.8456 1.2075 12.8011 1.30305 12.7752C1.496 12.7229 1.70184 12.7494 1.87526 12.8489L12.0003 18.637L22.1253 12.8489C22.2107 12.7995 22.3051 12.7675 22.4029 12.7547C22.5008 12.7419 22.6002 12.7486 22.6955 12.7743C22.7908 12.8 22.88 12.8442 22.9582 12.9045C23.0363 12.9647 23.1018 13.0398 23.1509 13.1254Z" fill="currentColor"/>
</svg>
