<svg width="44" height="40" viewBox="0 0 44 40" fill="none" xmlns="http://www.w3.org/2000/svg">
<path d="M40.9888 29.5105C41.8056 29.5105 42.5187 29.5105 43.3097 29.5105C43.3097 31.2868 43.3097 33.0372 43.3097 34.7747C43.3097 36.4992 43.3097 38.2236 43.3097 40C39.8996 40 36.5285 40 33.1054 40C33.1054 39.2739 33.1054 38.5608 33.1054 37.7828C33.9353 37.7828 34.7521 37.7828 35.556 37.7828C36.0617 35.6823 35.3745 34.0875 33.4555 33.2447C32.0033 32.6094 30.4863 32.1556 28.9952 31.6239C28.7359 31.5332 28.4636 31.4554 28.2043 31.3517C26.2594 30.5867 25.6889 29.7439 25.6889 27.6434C25.6889 27.41 25.6889 27.1636 25.6889 26.8265C22.59 28.8363 19.3874 29.7309 15.7958 28.2398C15.744 28.551 15.7051 28.8622 15.6273 29.1604C15.2901 30.47 14.4474 31.3387 13.2286 31.8573C11.8801 32.4278 10.5057 32.8946 9.1702 33.4651C7.19936 34.3079 6.56403 35.4749 6.81038 37.7698C8.10698 37.7698 9.40358 37.7698 10.7391 37.7698C10.7391 38.5608 10.7391 39.248 10.7391 39.9741C7.39385 39.9741 4.06159 39.9741 0.69043 39.9741C0.69043 36.5251 0.69043 33.0761 0.69043 29.5753C1.37763 29.5753 2.0778 29.5753 2.84279 29.5753C2.84279 32.2593 2.84279 34.9562 2.84279 37.6791C3.42626 37.6791 3.95787 37.6791 4.39871 37.6791C4.58023 36.6807 4.68396 35.7212 4.94328 34.8006C5.33226 33.3744 6.26581 32.3371 7.61428 31.7406C8.94977 31.1572 10.3242 30.6645 11.6856 30.1588C13.047 29.6531 13.7342 28.7196 13.6305 27.2544C13.6175 27.0081 13.5268 26.6969 13.3582 26.5283C10.9465 24.1166 10.5057 21.1734 11.0762 17.9837C11.4522 15.8703 11.8023 13.7568 12.3469 11.6822C13.5786 6.94966 16.5738 3.88968 21.4231 3.00799C24.7164 2.41156 27.6597 3.40994 29.9936 5.87348C33.0536 9.11498 33.4296 12.8881 32.0163 16.9464C31.8866 17.3095 31.8607 17.5429 32.0941 17.867C32.7294 18.7487 32.8202 19.7341 32.5479 20.7584C32.107 22.4311 31.1735 23.7666 29.6824 24.6482C29.1638 24.9594 28.5544 25.128 27.919 25.4003C27.919 26.282 27.8931 27.2674 27.932 28.2528C27.9579 28.8363 28.4117 29.0956 28.8915 29.2641C30.1362 29.705 31.4069 30.1199 32.6646 30.5478C34.039 31.0145 35.3485 31.5851 36.3988 32.6223C37.3842 33.6077 37.851 34.7877 37.864 36.1491C37.864 36.6677 37.864 37.1864 37.864 37.7309C38.9142 37.7309 39.9126 37.7309 40.9888 37.7309C40.9888 35.0081 40.9888 32.2852 40.9888 29.5105ZM30.5641 12.9399C30.4474 12.175 30.3826 11.397 30.201 10.6579C29.2416 6.92373 25.5851 4.77137 22.3048 5.21221C18.4798 5.73085 15.8088 7.89617 14.6937 11.6433C14.0843 13.7049 13.7472 15.8703 13.3841 17.9967C13.1897 19.0858 13.0081 20.2528 13.1637 21.3289C13.7472 25.3225 17.3906 27.5915 21.2804 26.4894C23.1994 25.9448 24.7553 24.8298 26.1427 23.4424C26.4668 23.1183 26.7521 22.8849 27.3096 23.0145C27.7116 23.1053 28.2561 22.9367 28.6451 22.7163C29.6954 22.1069 30.227 21.0956 30.3826 19.9157C30.4215 19.5785 30.201 19.0988 29.9417 18.8524C29.2027 18.1523 29.1638 18.1652 29.5657 17.2317C30.1362 15.8832 30.5641 14.4699 30.5641 12.9399Z" fill="white"/>
<path d="M41.0407 2.17829C38.3567 2.17829 35.7505 2.17829 33.1055 2.17829C33.1055 1.42626 33.1055 0.726096 33.1055 0C36.4896 0 39.8608 0 43.2578 0C43.2578 3.59158 43.2578 7.18316 43.2578 10.8266C42.5447 10.8266 41.8057 10.8266 41.0277 10.8266C41.0407 7.96112 41.0407 5.12157 41.0407 2.17829Z" fill="white"/>
<path d="M0.703613 0.0126953C4.06181 0.0126953 7.3811 0.0126953 10.7393 0.0126953C10.7393 0.725825 10.7393 1.41302 10.7393 2.16505C8.14609 2.16505 5.53992 2.16505 2.86893 2.16505C2.86893 5.09537 2.86893 7.94789 2.86893 10.8393C2.1169 10.8393 1.42971 10.8393 0.703613 10.8393C0.703613 7.24772 0.703613 3.65614 0.703613 0.0126953Z" fill="white"/>
</svg>
