<svg width="24" height="24" viewBox="0 0 24 24" fill="none" xmlns="http://www.w3.org/2000/svg">
<path d="M21.6488 19.8753C20.2209 17.4069 18.0206 15.6369 15.4528 14.7978C16.723 14.0417 17.7098 12.8895 18.2618 11.5182C18.8137 10.147 18.9003 8.63243 18.5082 7.2072C18.1161 5.78197 17.267 4.52486 16.0912 3.62892C14.9155 2.73298 13.4782 2.24775 12 2.24775C10.5218 2.24775 9.08451 2.73298 7.90878 3.62892C6.73306 4.52486 5.88394 5.78197 5.49183 7.2072C5.09971 8.63243 5.18629 10.147 5.73825 11.5182C6.29021 12.8895 7.27704 14.0417 8.5472 14.7978C5.97938 15.6359 3.77907 17.4059 2.35126 19.8753C2.2989 19.9607 2.26417 20.0557 2.24912 20.1547C2.23407 20.2537 2.239 20.3547 2.26363 20.4518C2.28825 20.5489 2.33207 20.6401 2.3925 20.7199C2.45293 20.7998 2.52874 20.8668 2.61547 20.9168C2.7022 20.9669 2.79808 20.9992 2.89745 21.0116C2.99683 21.024 3.0977 21.0164 3.19409 20.9893C3.29049 20.9621 3.38047 20.9159 3.45872 20.8534C3.53697 20.7909 3.6019 20.7133 3.6497 20.6253C5.41595 17.5728 8.53782 15.7503 12 15.7503C15.4622 15.7503 18.5841 17.5728 20.3503 20.6253C20.3981 20.7133 20.4631 20.7909 20.5413 20.8534C20.6196 20.9159 20.7095 20.9621 20.8059 20.9893C20.9023 21.0164 21.0032 21.024 21.1026 21.0116C21.2019 20.9992 21.2978 20.9669 21.3845 20.9168C21.4713 20.8668 21.5471 20.7998 21.6075 20.7199C21.6679 20.6401 21.7118 20.5489 21.7364 20.4518C21.761 20.3547 21.766 20.2537 21.7509 20.1547C21.7358 20.0557 21.7011 19.9607 21.6488 19.8753ZM6.75001 9.0003C6.75001 7.96195 7.05792 6.94691 7.63479 6.08356C8.21167 5.2202 9.03161 4.54729 9.99092 4.14993C10.9502 3.75257 12.0058 3.6486 13.0242 3.85118C14.0426 4.05375 14.9781 4.55376 15.7123 5.28799C16.4465 6.02221 16.9466 6.95768 17.1491 7.97608C17.3517 8.99448 17.2477 10.0501 16.8504 11.0094C16.453 11.9687 15.7801 12.7886 14.9168 13.3655C14.0534 13.9424 13.0384 14.2503 12 14.2503C10.6081 14.2488 9.27359 13.6952 8.28934 12.711C7.3051 11.7267 6.7515 10.3922 6.75001 9.0003Z" fill="currentColor"/>
</svg>
