<svg width="24" height="24" viewBox="0 0 24 24" fill="none" xmlns="http://www.w3.org/2000/svg">
<path d="M20.25 6.75003H16.9613C16.9978 6.71909 17.0353 6.68909 17.0709 6.65628C17.3557 6.40332 17.5851 6.09433 17.745 5.74864C17.9049 5.40295 17.9917 5.02799 18 4.64721C18.0123 4.23066 17.9394 3.81598 17.7856 3.42864C17.6319 3.0413 17.4006 2.68947 17.106 2.39474C16.8113 2.10002 16.4596 1.86863 16.0723 1.71477C15.685 1.56091 15.2703 1.48784 14.8538 1.50003C14.4728 1.50823 14.0977 1.59498 13.7518 1.75485C13.406 1.91471 13.0968 2.14425 12.8438 2.42909C12.4936 2.83493 12.2089 3.29294 12 3.78659C11.7911 3.29294 11.5064 2.83493 11.1562 2.42909C10.9032 2.14425 10.594 1.91471 10.2482 1.75485C9.90232 1.59498 9.52718 1.50823 9.14625 1.50003C8.72969 1.48784 8.31503 1.56091 7.92774 1.71477C7.54044 1.86863 7.18868 2.10002 6.89405 2.39474C6.59941 2.68947 6.36812 3.0413 6.21438 3.42864C6.06064 3.81598 5.98768 4.23066 6 4.64721C6.00833 5.02799 6.09514 5.40295 6.255 5.74864C6.41486 6.09433 6.64434 6.40332 6.92906 6.65628C6.96469 6.68721 7.00219 6.71721 7.03875 6.75003H3.75C3.35218 6.75003 2.97064 6.90806 2.68934 7.18937C2.40804 7.47067 2.25 7.8522 2.25 8.25003V11.25C2.25 11.6479 2.40804 12.0294 2.68934 12.3107C2.97064 12.592 3.35218 12.75 3.75 12.75V18.75C3.75 19.1479 3.90804 19.5294 4.18934 19.8107C4.47064 20.092 4.85218 20.25 5.25 20.25H18.75C19.1478 20.25 19.5294 20.092 19.8107 19.8107C20.092 19.5294 20.25 19.1479 20.25 18.75V12.75C20.6478 12.75 21.0294 12.592 21.3107 12.3107C21.592 12.0294 21.75 11.6479 21.75 11.25V8.25003C21.75 7.8522 21.592 7.47067 21.3107 7.18937C21.0294 6.90806 20.6478 6.75003 20.25 6.75003ZM13.9688 3.42284C14.0875 3.2917 14.2321 3.18653 14.3934 3.11393C14.5547 3.04133 14.7293 3.00287 14.9062 3.00096H14.9522C15.1595 3.00226 15.3645 3.04493 15.5552 3.12647C15.7458 3.20801 15.9183 3.32678 16.0624 3.47582C16.2066 3.62487 16.3195 3.80118 16.3947 3.99444C16.4698 4.18769 16.5056 4.394 16.5 4.60128C16.4981 4.77818 16.4596 4.95278 16.387 5.11411C16.3144 5.27545 16.2093 5.42003 16.0781 5.53878C15.1884 6.32628 13.7119 6.60378 12.7969 6.70128C12.9094 5.70847 13.2188 4.26565 13.9688 3.42284ZM7.96031 3.45659C8.25088 3.16605 8.64441 3.00197 9.05531 3.00003H9.10125C9.27815 3.00194 9.45275 3.0404 9.61409 3.113C9.77542 3.1856 9.92 3.29077 10.0388 3.4219C10.8253 4.31065 11.1028 5.7844 11.2003 6.69565C10.2891 6.6019 8.81531 6.32065 7.92656 5.53409C7.79543 5.41534 7.69026 5.27076 7.61766 5.10943C7.54506 4.94809 7.5066 4.77349 7.50469 4.59659C7.49887 4.38587 7.53593 4.17617 7.61361 3.98021C7.69128 3.78424 7.80796 3.6061 7.95656 3.45659H7.96031ZM3.75 8.25003H11.25V11.25H3.75V8.25003ZM5.25 12.75H11.25V18.75H5.25V12.75ZM18.75 18.75H12.75V12.75H18.75V18.75ZM20.25 11.25H12.75V8.25003H20.25V11.25Z" fill="currentColor"/>
</svg>
