<svg width="24" height="24" viewBox="0 0 24 24" fill="none" xmlns="http://www.w3.org/2000/svg">
<path d="M6.74998 12C6.75535 13.9673 6.30075 15.9087 5.42248 17.6691C5.38056 17.7603 5.32073 17.8423 5.24655 17.91C5.17237 17.9777 5.08534 18.0298 4.99063 18.0632C4.89592 18.0967 4.79546 18.1107 4.69521 18.1046C4.59496 18.0985 4.49696 18.0723 4.40703 18.0276C4.3171 17.9829 4.23706 17.9205 4.17167 17.8443C4.10628 17.7681 4.05687 17.6795 4.02636 17.5838C3.99586 17.4881 3.98489 17.3872 3.9941 17.2872C4.00331 17.1872 4.03252 17.0901 4.07998 17.0016C4.85436 15.4483 5.25501 13.7356 5.24998 12C5.24822 10.9879 5.47493 9.98848 5.91321 9.07622C6.35149 8.16395 6.99003 7.36237 7.78123 6.73125C7.93651 6.60693 8.13481 6.54938 8.33251 6.57127C8.53022 6.59316 8.71113 6.69269 8.83545 6.84797C8.95977 7.00324 9.01732 7.20155 8.99543 7.39925C8.97354 7.59696 8.87401 7.77787 8.71873 7.90219C8.10321 8.39291 7.60646 9.01631 7.26557 9.72587C6.92467 10.4354 6.74842 11.2128 6.74998 12ZM12 11.25C11.8011 11.25 11.6103 11.329 11.4697 11.4697C11.329 11.6103 11.25 11.8011 11.25 12C11.2498 14.922 10.5079 17.7961 9.09373 20.3531C8.99726 20.5272 8.97388 20.7324 9.02873 20.9237C9.08359 21.115 9.21218 21.2767 9.38623 21.3731C9.56028 21.4696 9.76552 21.493 9.95681 21.4381C10.1481 21.3833 10.3098 21.2547 10.4062 21.0806C11.9433 18.3009 12.7498 15.1764 12.75 12C12.75 11.8011 12.671 11.6103 12.5303 11.4697C12.3897 11.329 12.1989 11.25 12 11.25ZM12 8.25C11.0054 8.25 10.0516 8.64509 9.34833 9.34835C8.64507 10.0516 8.24998 11.0054 8.24998 12C8.24998 12.1989 8.329 12.3897 8.46965 12.5303C8.6103 12.671 8.80107 12.75 8.99998 12.75C9.19889 12.75 9.38966 12.671 9.53031 12.5303C9.67096 12.3897 9.74998 12.1989 9.74998 12C9.74998 11.4033 9.98703 10.831 10.409 10.409C10.8309 9.98705 11.4032 9.75 12 9.75C12.5967 9.75 13.169 9.98705 13.591 10.409C14.0129 10.831 14.25 11.4033 14.25 12C14.2578 14.9821 13.6009 17.9285 12.3272 20.625C12.2851 20.7143 12.2611 20.811 12.2564 20.9097C12.2518 21.0083 12.2666 21.1068 12.3 21.1997C12.3334 21.2926 12.3848 21.378 12.4513 21.451C12.5177 21.524 12.5978 21.5833 12.6872 21.6253C12.7765 21.6674 12.8732 21.6914 12.9718 21.6961C13.0704 21.7007 13.169 21.6859 13.2619 21.6525C13.3548 21.6191 13.4402 21.5677 13.5132 21.5012C13.5862 21.4348 13.6454 21.3546 13.6875 21.2653C15.0547 18.3684 15.7592 15.2033 15.75 12C15.75 11.0054 15.3549 10.0516 14.6516 9.34835C13.9484 8.64509 12.9945 8.25 12 8.25ZM12 2.25C9.41496 2.25273 6.93659 3.28084 5.10871 5.10872C3.28082 6.93661 2.25271 9.41498 2.24998 12C2.25137 12.9366 2.09285 13.8665 1.78123 14.7497C1.71497 14.9373 1.72594 15.1435 1.81174 15.323C1.89754 15.5025 2.05113 15.6406 2.23873 15.7069C2.42633 15.7731 2.63257 15.7622 2.81208 15.6764C2.99158 15.5906 3.12966 15.437 3.19592 15.2494C3.56386 14.2056 3.75123 13.1067 3.74998 12C3.74998 9.81196 4.61918 7.71354 6.16635 6.16637C7.71353 4.61919 9.81194 3.75 12 3.75C14.188 3.75 16.2864 4.61919 17.8336 6.16637C19.3808 7.71354 20.25 9.81196 20.25 12C20.2504 13.7136 20.0843 15.4232 19.754 17.1047C19.7349 17.2013 19.7351 17.3008 19.7544 17.3974C19.7738 17.494 19.8119 17.5858 19.8668 17.6677C19.9216 17.7495 19.9921 17.8197 20.0741 17.8743C20.1561 17.929 20.248 17.9669 20.3447 17.9859C20.3926 17.9952 20.4412 17.9999 20.49 18C20.6635 17.9998 20.8317 17.9394 20.9657 17.8292C21.0997 17.7189 21.1914 17.5656 21.225 17.3953C21.5742 15.6181 21.7501 13.8112 21.75 12C21.747 9.41505 20.7188 6.93683 18.891 5.109C17.0631 3.28116 14.5849 2.25298 12 2.25ZM8.84998 14.2659C8.65547 14.2272 8.45354 14.2672 8.28839 14.377C8.12324 14.4868 8.0083 14.6575 7.96873 14.8519C7.66441 16.3497 7.11955 17.7883 6.35529 19.1119C6.25584 19.2842 6.2289 19.4889 6.28042 19.6811C6.33193 19.8733 6.45767 20.0371 6.62998 20.1366C6.80229 20.236 7.00705 20.263 7.19921 20.2114C7.39138 20.1599 7.55521 20.0342 7.65467 19.8619C8.49925 18.3982 9.10082 16.8072 9.43592 15.1509C9.45563 15.0543 9.4561 14.9548 9.43731 14.8581C9.41852 14.7613 9.38084 14.6692 9.32642 14.587C9.272 14.5048 9.20191 14.4341 9.12016 14.379C9.03841 14.3239 8.9466 14.2855 8.84998 14.2659ZM12 5.25C11.7179 5.25006 11.4361 5.26759 11.1562 5.3025C10.9626 5.33157 10.7879 5.43525 10.6697 5.59137C10.5515 5.74749 10.499 5.94366 10.5235 6.13797C10.5479 6.33227 10.6475 6.50929 10.8007 6.63119C10.954 6.75309 11.1489 6.8102 11.3437 6.79031C12.0826 6.69844 12.8325 6.76454 13.5439 6.98426C14.2553 7.20397 14.9119 7.57227 15.4703 8.06479C16.0287 8.55731 16.4761 9.16282 16.7829 9.84122C17.0897 10.5196 17.2489 11.2554 17.25 12C17.2498 12.9715 17.1897 13.9421 17.07 14.9062C17.0568 15.0043 17.0632 15.104 17.0887 15.1996C17.1143 15.2951 17.1585 15.3847 17.2188 15.4631C17.2791 15.5416 17.3543 15.6073 17.4401 15.6565C17.5259 15.7058 17.6206 15.7375 17.7187 15.75C17.7498 15.7537 17.7811 15.7556 17.8125 15.7556C17.9949 15.7552 18.1709 15.6884 18.3075 15.5676C18.4442 15.4468 18.5322 15.2803 18.555 15.0994C18.6815 14.073 18.7441 13.0398 18.7425 12.0056C18.742 10.2163 18.0319 8.5003 16.7679 7.23386C15.5039 5.96742 13.7893 5.25397 12 5.25ZM17.4309 17.2734C17.3355 17.2488 17.2362 17.2431 17.1386 17.2569C17.041 17.2706 16.9471 17.3035 16.8622 17.3535C16.7773 17.4036 16.7031 17.4699 16.6438 17.5486C16.5846 17.6274 16.5414 17.7171 16.5169 17.8125C16.38 18.3459 16.2215 18.8813 16.0481 19.4062C15.9846 19.5944 15.9983 19.7999 16.0862 19.978C16.1741 20.156 16.3289 20.2919 16.5169 20.3559C16.5938 20.3821 16.6746 20.3954 16.7559 20.3953C16.9131 20.3952 17.0662 20.3457 17.1937 20.2539C17.3212 20.162 17.4167 20.0324 17.4665 19.8834C17.654 19.3284 17.8219 18.7584 17.9681 18.1912C17.9932 18.0958 17.9993 17.9964 17.986 17.8986C17.9726 17.8009 17.9401 17.7067 17.8903 17.6215C17.8404 17.5364 17.7743 17.4618 17.6956 17.4023C17.617 17.3427 17.5273 17.2992 17.4319 17.2744L17.4309 17.2734Z" fill="currentColor"/>
</svg>
