<svg width="21" height="20" viewBox="0 0 21 20" fill="none" xmlns="http://www.w3.org/2000/svg">
<path d="M18.0033 2.17554L11.5 7.02581L12.7026 4.16422L18.0033 2.17554Z" fill="#E2761B"/>
<path d="M2.99096 2.17554L9.44194 7.07176L8.29815 4.16422L2.99096 2.17554ZM15.6642 13.4185L13.9321 16.0832L17.638 17.107L18.7034 13.4775L15.6642 13.4185ZM2.30469 13.4775L3.36351 17.107L7.06939 16.0832L5.33737 13.4185L2.30469 13.4775Z" fill="#E4761B"/>
<path d="M6.8608 8.91586L5.82812 10.4845L9.50786 10.6486L9.37714 6.67778L6.8608 8.91586ZM14.1353 8.91586L11.5863 6.63184L11.5013 10.6486L15.1745 10.4845L14.1353 8.91586ZM7.06995 16.083L9.2791 15L7.37061 13.5036L7.06995 16.083ZM11.717 15L13.9327 16.083L13.6255 13.5036L11.717 15Z" fill="#E4761B"/>
<path d="M13.9331 16.0832L11.7174 15.0002L11.8938 16.4507L11.8742 17.0611L13.9331 16.0832ZM7.07031 16.0832L9.12914 17.0611L9.11606 16.4507L9.27946 15.0002L7.07031 16.0832Z" fill="#D7C1B3"/>
<path d="M9.1615 12.5453L7.31836 12.0006L8.61901 11.4033L9.1615 12.5453ZM11.8347 12.5453L12.3772 11.4033L13.6844 12.0006L11.8347 12.5453Z" fill="#233447"/>
<path d="M7.06992 16.0831L7.38364 13.4184L5.33789 13.4775L7.06992 16.0831ZM13.6189 13.4184L13.9327 16.0831L15.6647 13.4775L13.6189 13.4184ZM15.1745 10.4846L11.5013 10.6487L11.8412 12.5455L12.3836 11.4035L13.6908 12.0007L15.1745 10.4846ZM7.31828 12.0007L8.62547 11.4035L9.16142 12.5455L9.50783 10.6487L5.82809 10.4846L7.31828 12.0007Z" fill="#CD6116"/>
<path d="M5.82812 10.4846L7.37061 13.5037L7.31832 12.0007L5.82812 10.4846ZM13.6909 12.0007L13.6255 13.5037L15.1745 10.4846L13.6909 12.0007ZM9.50786 10.6487L9.16146 12.5455L9.59283 14.7836L9.69087 11.8367L9.50786 10.6487ZM11.5013 10.6487L11.3249 11.8301L11.4033 14.7836L11.8412 12.5455L11.5013 10.6487Z" fill="#E4751F"/>
<path d="M11.8412 12.5455L11.4033 14.7836L11.7171 15.0002L13.6255 13.5037L13.6909 12.0007L11.8412 12.5455ZM7.31836 12.0007L7.37065 13.5037L9.27914 15.0002L9.59287 14.7836L9.1615 12.5455L7.31836 12.0007Z" fill="#F6851B"/>
<path d="M11.8742 17.0612L11.8938 16.4508L11.7304 16.3064H9.26639L9.11606 16.4508L9.12914 17.0612L7.07031 16.0833L7.78927 16.6739L9.24678 17.6913H11.7501L13.2141 16.6739L13.9331 16.0833L11.8742 17.0612Z" fill="#C0AD9E"/>
<path d="M11.7185 15L11.4048 14.7834H9.59431L9.28059 15L9.11719 16.4505L9.26751 16.3061H11.7316L11.895 16.4505L11.7185 15Z" fill="#161616"/>
<path d="M18.2791 7.34085L18.8346 4.66303L18.0046 2.17554L11.717 6.86173L14.1353 8.91604L17.5536 9.92023L18.3118 9.03418L17.985 8.7979L18.5078 8.31878L18.1026 8.00374L18.6255 7.60338L18.2791 7.34085ZM2.16797 4.66303L2.72352 7.34085L2.37058 7.60338L2.89346 8.00374L2.49477 8.31878L3.01764 8.7979L2.69084 9.03418L3.44248 9.92023L6.86078 8.91604L9.27908 6.86173L2.9915 2.17554L2.16797 4.66303Z" fill="#763D16"/>
<path d="M17.5531 9.92032L14.1348 8.91613L15.174 10.4848L13.625 13.5039L15.6642 13.4776H18.7034L17.5531 9.92032ZM6.86024 8.91613L3.44194 9.92032L2.30469 13.4776H5.33737L7.37005 13.5039L5.82756 10.4848L6.86024 8.91613ZM11.5008 10.6488L11.7165 6.86182L12.7099 4.16431H8.29815L9.27854 6.86182L9.5073 10.6488L9.58573 11.8434L9.59227 14.7837H11.4027L11.4158 11.8434L11.5008 10.6488Z" fill="#F6851B"/>
</svg>
