<svg width="24" height="24" viewBox="0 0 24 24" fill="none" xmlns="http://www.w3.org/2000/svg">
<path d="M20.25 6.75H16.9613C16.9978 6.71906 17.0353 6.68906 17.0709 6.65625C17.3557 6.40329 17.5851 6.0943 17.745 5.74861C17.9049 5.40292 17.9917 5.02796 18 4.64718C18.0123 4.23063 17.9394 3.81595 17.7856 3.42861C17.6319 3.04127 17.4006 2.68944 17.106 2.39471C16.8113 2.09999 16.4596 1.8686 16.0723 1.71474C15.685 1.56088 15.2703 1.48781 14.8538 1.5C14.4728 1.5082 14.0977 1.59495 13.7518 1.75482C13.406 1.91468 13.0968 2.14422 12.8438 2.42906C12.4936 2.8349 12.2089 3.29291 12 3.78656C11.7911 3.29291 11.5064 2.8349 11.1562 2.42906C10.9032 2.14422 10.594 1.91468 10.2482 1.75482C9.90232 1.59495 9.52718 1.5082 9.14625 1.5C8.72969 1.48781 8.31503 1.56088 7.92774 1.71474C7.54044 1.8686 7.18868 2.09999 6.89405 2.39471C6.59941 2.68944 6.36812 3.04127 6.21438 3.42861C6.06064 3.81595 5.98768 4.23063 6 4.64718C6.00833 5.02796 6.09514 5.40292 6.255 5.74861C6.41486 6.0943 6.64434 6.40329 6.92906 6.65625C6.96469 6.68718 7.00219 6.71718 7.03875 6.75H3.75C3.35218 6.75 2.97064 6.90803 2.68934 7.18934C2.40804 7.47064 2.25 7.85217 2.25 8.25V11.25C2.25 11.6478 2.40804 12.0294 2.68934 12.3107C2.97064 12.592 3.35218 12.75 3.75 12.75V18.75C3.75 19.1478 3.90804 19.5294 4.18934 19.8107C4.47064 20.092 4.85218 20.25 5.25 20.25H10.875C10.9745 20.25 11.0698 20.2105 11.1402 20.1402C11.2105 20.0698 11.25 19.9745 11.25 19.875V11.25H3.75V8.25H11.25V11.25H12.75V8.25H20.25V11.25H12.75V19.875C12.75 19.9745 12.7895 20.0698 12.8598 20.1402C12.9302 20.2105 13.0255 20.25 13.125 20.25H18.75C19.1478 20.25 19.5294 20.092 19.8107 19.8107C20.092 19.5294 20.25 19.1478 20.25 18.75V12.75C20.6478 12.75 21.0294 12.592 21.3107 12.3107C21.592 12.0294 21.75 11.6478 21.75 11.25V8.25C21.75 7.85217 21.592 7.47064 21.3107 7.18934C21.0294 6.90803 20.6478 6.75 20.25 6.75ZM7.92281 5.53125C7.79168 5.4125 7.68651 5.26791 7.61391 5.10658C7.54131 4.94525 7.50285 4.77065 7.50094 4.59375C7.4962 4.38647 7.53287 4.18033 7.60881 3.9874C7.68476 3.79448 7.79844 3.61865 7.9432 3.47022C8.08796 3.32179 8.26089 3.20375 8.45186 3.12301C8.64282 3.04226 8.84798 3.00044 9.05531 3H9.10125C9.27815 3.0019 9.45275 3.04037 9.61409 3.11297C9.77542 3.18556 9.92 3.29073 10.0388 3.42187C10.8253 4.31062 11.1028 5.78437 11.2003 6.69562C10.2853 6.59906 8.8125 6.32156 7.92281 5.53125ZM16.0791 5.53125C15.1894 6.31875 13.7128 6.59625 12.7978 6.69375C12.9094 5.70843 13.2188 4.26562 13.9688 3.42281C14.0875 3.29167 14.2321 3.1865 14.3934 3.1139C14.5547 3.0413 14.7293 3.00284 14.9062 3.00093H14.9522C15.1595 3.00223 15.3645 3.0449 15.5552 3.12644C15.7458 3.20798 15.9183 3.32675 16.0624 3.47579C16.2066 3.62483 16.3195 3.80115 16.3947 3.99441C16.4698 4.18766 16.5056 4.39397 16.5 4.60125C16.4969 4.77695 16.4578 4.95016 16.3851 5.11013C16.3124 5.2701 16.2076 5.41344 16.0772 5.53125H16.0791Z" fill="currentColor"/>
</svg>
