<svg width="24" height="24" viewBox="0 0 24 24" fill="none" xmlns="http://www.w3.org/2000/svg">
<path d="M3.25875 3.9375C3.17806 4.00744 3.11324 4.09379 3.06862 4.1908C3.024 4.28781 3.0006 4.39322 3 4.5V20.25C3 20.4489 3.07902 20.6397 3.21967 20.7803C3.36032 20.921 3.55109 21 3.75 21C3.94891 21 4.13968 20.921 4.28033 20.7803C4.42098 20.6397 4.5 20.4489 4.5 20.25V16.1034C7.01156 14.1197 9.17531 15.1894 11.6672 16.4231C13.2047 17.1834 14.8603 18.0028 16.6359 18.0028C17.9419 18.0028 19.3116 17.5575 20.7441 16.3153C20.8247 16.2454 20.8896 16.159 20.9342 16.062C20.9788 15.965 21.0022 15.8596 21.0028 15.7528V4.5C21.0025 4.35604 20.9607 4.21522 20.8825 4.09436C20.8043 3.97349 20.693 3.87769 20.5618 3.81838C20.4306 3.75907 20.2852 3.73876 20.1428 3.75988C20.0004 3.78101 19.8671 3.84267 19.7587 3.9375C17.1337 6.20906 14.91 5.10844 12.3328 3.8325C9.66281 2.50875 6.63562 1.01156 3.25875 3.9375ZM19.5 15.3984C16.9884 17.3822 14.8247 16.3116 12.3328 15.0787C9.98906 13.9209 7.38187 12.6291 4.5 14.2912V4.85531C7.01156 2.87156 9.17531 3.94125 11.6672 5.17406C14.0109 6.33187 16.6191 7.62375 19.5 5.96156V15.3984Z" fill="currentColor"/>
</svg>
