<svg width="24" height="24" viewBox="0 0 24 24" fill="none" xmlns="http://www.w3.org/2000/svg">
<path d="M21.9844 10.7231L17.7563 14.4131L19.0229 19.9069C19.0899 20.1941 19.0708 20.4946 18.9679 20.771C18.865 21.0474 18.6829 21.2873 18.4444 21.4608C18.2059 21.6343 17.9216 21.7336 17.627 21.7464C17.3323 21.7591 17.0405 21.6847 16.7879 21.5325L11.9963 18.6262L7.21507 21.5325C6.96248 21.6847 6.67062 21.7591 6.37598 21.7464C6.08134 21.7336 5.797 21.6343 5.5585 21.4608C5.32 21.2873 5.13793 21.0474 5.03505 20.771C4.93217 20.4946 4.91305 20.1941 4.98007 19.9069L6.24476 14.4187L2.01569 10.7231C1.79202 10.5302 1.63027 10.2755 1.55075 9.99106C1.47122 9.70659 1.47746 9.40497 1.56867 9.12403C1.65988 8.84308 1.83201 8.59532 2.06347 8.41182C2.29493 8.22831 2.57542 8.11722 2.86976 8.09249L8.44413 7.60968L10.6201 2.41968C10.7337 2.14735 10.9254 1.91473 11.1709 1.7511C11.4165 1.58748 11.705 1.50018 12.0001 1.50018C12.2952 1.50018 12.5836 1.58748 12.8292 1.7511C13.0748 1.91473 13.2664 2.14735 13.3801 2.41968L15.5626 7.60968L21.1351 8.09249C21.4294 8.11722 21.7099 8.22831 21.9414 8.41182C22.1728 8.59532 22.3449 8.84308 22.4362 9.12403C22.5274 9.40497 22.5336 9.70659 22.4541 9.99106C22.3746 10.2755 22.2128 10.5302 21.9891 10.7231H21.9844Z" fill="currentColor"/>
</svg>
