<svg width="24" height="24" viewBox="0 0 24 24" fill="none" xmlns="http://www.w3.org/2000/svg">
<path d="M22.4249 9.12093C22.3341 8.84097 22.1629 8.59393 21.9327 8.41056C21.7025 8.22719 21.4234 8.11559 21.1303 8.08968L15.5624 7.60968L13.3799 2.41968C13.2663 2.14735 13.0747 1.91473 12.8291 1.7511C12.5835 1.58748 12.295 1.50018 11.9999 1.50018C11.7049 1.50018 11.4164 1.58748 11.1708 1.7511C10.9252 1.91473 10.7336 2.14735 10.6199 2.41968L8.44401 7.60968L2.86964 8.09249C2.57529 8.11722 2.29481 8.22831 2.06335 8.41182C1.83189 8.59532 1.65976 8.84308 1.56855 9.12403C1.47733 9.40497 1.4711 9.70659 1.55063 9.99106C1.63015 10.2755 1.79189 10.5302 2.01557 10.7231L6.24464 14.4187L4.97714 19.9069C4.91011 20.1941 4.92924 20.4946 5.03212 20.771C5.135 21.0474 5.31707 21.2873 5.55557 21.4608C5.79407 21.6343 6.07841 21.7336 6.37305 21.7464C6.66769 21.7591 6.95955 21.6847 7.21214 21.5325L11.9934 18.6262L16.7849 21.5325C17.0375 21.6847 17.3294 21.7591 17.624 21.7464C17.9187 21.7336 18.203 21.6343 18.4415 21.4608C18.68 21.2873 18.8621 21.0474 18.965 20.771C19.0678 20.4946 19.087 20.1941 19.0199 19.9069L17.7534 14.4131L21.9815 10.7231C22.2052 10.5295 22.3666 10.2741 22.4455 9.98907C22.5244 9.70399 22.5172 9.40195 22.4249 9.12093ZM20.9981 9.58968L16.7699 13.2797C16.5642 13.4587 16.4111 13.6904 16.3272 13.9499C16.2433 14.2094 16.2317 14.4869 16.2937 14.7525L17.564 20.25L12.7762 17.3437C12.5426 17.2015 12.2744 17.1262 12.0009 17.1262C11.7274 17.1262 11.4592 17.2015 11.2256 17.3437L6.44432 20.25L7.7062 14.7562C7.76821 14.4906 7.75664 14.2132 7.67273 13.9537C7.58881 13.6941 7.43573 13.4624 7.22995 13.2834L2.99995 9.5953C2.9996 9.5925 2.9996 9.58967 2.99995 9.58686L8.57245 9.10499C8.84451 9.08101 9.10487 8.9832 9.32543 8.82212C9.54599 8.66104 9.71838 8.44279 9.82401 8.19093L11.9999 3.00749L14.1749 8.19093C14.2806 8.44279 14.453 8.66104 14.6735 8.82212C14.8941 8.9832 15.1544 9.08101 15.4265 9.10499L20.9999 9.58686C20.9999 9.58686 20.9999 9.59249 20.9999 9.59343L20.9981 9.58968Z" fill="currentColor"/>
</svg>
