<svg width="16" height="16" viewBox="0 0 16 16" fill="none" xmlns="http://www.w3.org/2000/svg">
<path fill-rule="evenodd" clip-rule="evenodd" d="M1.60156 12.4759V6.7005C1.60156 5.4754 1.88868 4.58569 2.46285 4.03148C3.03702 3.47727 3.90914 3.2002 5.07915 3.2002H7.45308V4.77533H5.56666C4.81915 4.77533 4.28827 4.9736 3.9741 5.3703C3.65994 5.767 3.50288 6.39119 3.50288 7.24292V12.4759H1.60156ZM8.6003 12.4759C7.17029 12.4759 6.45523 11.5133 6.45523 9.58818C6.45523 8.68978 6.63396 7.98386 6.99146 7.47049C7.34897 6.95711 7.88529 6.7005 8.6003 6.7005H12.5002V6.10539C12.5002 5.21866 12.0994 4.77533 11.2978 4.77533H8.78489V3.2002H11.9803C12.7711 3.2002 13.3724 3.45109 13.784 3.9528C14.1957 4.45451 14.4016 5.11364 14.4016 5.93038V10.9007C14.4016 11.9508 13.914 12.4759 12.939 12.4759H8.6003ZM9.33143 10.9007H12.0127C12.3377 10.9007 12.5002 10.7257 12.5002 10.3757V8.2755H9.33143C8.72476 8.2755 8.42142 8.71312 8.42142 9.58818C8.42142 10.4633 8.72476 10.9007 9.33143 10.9007Z" fill="currentColor"/>
</svg>
