<svg width="62" height="62" viewBox="0 0 62 62" fill="none" xmlns="http://www.w3.org/2000/svg">
<path fill-rule="evenodd" clip-rule="evenodd" d="M0.191315 28.2908C0.191267 44.4164 11.5732 58.2998 27.3855 61.4624C29.7798 61.9412 32.2451 61.9412 34.6393 61.462H34.6401C50.452 58.2993 61.8333 44.4159 61.8338 28.2907V17.3021C61.8338 7.84539 54.1672 0.17923 44.7107 0.17923H17.3141C7.85747 0.17923 0.191315 7.84539 0.191315 17.3021V28.2908ZM22.6507 27.5756C22.6507 26.5189 21.7941 25.6623 20.7374 25.6623C19.6807 25.6623 18.8241 26.5189 18.8241 27.5756V37.8492C18.8241 38.9059 19.6807 39.7625 20.7374 39.7625C21.7941 39.7625 22.6507 38.9059 22.6507 37.8492V27.5756ZM31.0118 25.3775C32.0685 25.3775 32.9251 26.2341 32.9251 27.2908V37.8498C32.9251 38.9065 32.0685 39.7631 31.0118 39.7631C29.9552 39.7631 29.0985 38.9065 29.0985 37.8498V27.2908C29.0985 26.2341 29.9552 25.3775 31.0118 25.3775ZM31.0092 15.3887L31.002 15.3887C28.7672 15.3971 26.5784 16.0245 24.6785 17.2013C23.7801 17.7577 23.503 18.937 24.0594 19.8353C24.6158 20.7336 25.7951 21.0108 26.6934 20.4544C27.9912 19.6506 29.4863 19.2217 31.0128 19.2153C35.6284 19.2172 39.3695 22.9596 39.3695 27.5757V37.8494C39.3695 38.9061 40.2261 39.7627 41.2828 39.7627C42.3394 39.7627 43.1961 38.9061 43.1961 37.8494V27.5757C43.1961 20.8451 37.74 15.3887 31.0092 15.3887Z" fill="#202020"/>
</svg>
