<svg width="24" height="24" viewBox="0 0 24 24" fill="none" xmlns="http://www.w3.org/2000/svg">
<path d="M13.1249 16.875C13.1249 17.0975 13.059 17.315 12.9353 17.5C12.8117 17.685 12.636 17.8292 12.4305 17.9144C12.2249 17.9995 11.9987 18.0218 11.7805 17.9784C11.5622 17.935 11.3618 17.8278 11.2044 17.6705C11.0471 17.5132 10.94 17.3127 10.8966 17.0945C10.8532 16.8762 10.8754 16.65 10.9606 16.4445C11.0457 16.2389 11.1899 16.0632 11.3749 15.9396C11.5599 15.816 11.7774 15.75 11.9999 15.75C12.2983 15.75 12.5845 15.8685 12.7954 16.0795C13.0064 16.2905 13.1249 16.5766 13.1249 16.875ZM11.9999 6.75C9.93182 6.75 8.24994 8.26406 8.24994 10.125V10.5C8.24994 10.6989 8.32896 10.8897 8.46961 11.0303C8.61027 11.171 8.80103 11.25 8.99994 11.25C9.19886 11.25 9.38962 11.171 9.53027 11.0303C9.67093 10.8897 9.74994 10.6989 9.74994 10.5V10.125C9.74994 9.09375 10.7596 8.25 11.9999 8.25C13.2403 8.25 14.2499 9.09375 14.2499 10.125C14.2499 11.1562 13.2403 12 11.9999 12C11.801 12 11.6103 12.079 11.4696 12.2197C11.329 12.3603 11.2499 12.5511 11.2499 12.75V13.5C11.2499 13.6989 11.329 13.8897 11.4696 14.0303C11.6103 14.171 11.801 14.25 11.9999 14.25C12.1989 14.25 12.3896 14.171 12.5303 14.0303C12.6709 13.8897 12.7499 13.6989 12.7499 13.5V13.4325C14.4599 13.1184 15.7499 11.7544 15.7499 10.125C15.7499 8.26406 14.0681 6.75 11.9999 6.75ZM21.7499 12C21.7499 13.9284 21.1781 15.8134 20.1068 17.4168C19.0354 19.0202 17.5127 20.2699 15.7311 21.0078C13.9495 21.7458 11.9891 21.9389 10.0978 21.5627C8.2065 21.1865 6.46921 20.2579 5.10565 18.8943C3.74209 17.5307 2.81349 15.7934 2.43729 13.9021C2.06108 12.0108 2.25416 10.0504 2.99212 8.26884C3.73007 6.48726 4.97975 4.96451 6.58313 3.89317C8.18651 2.82183 10.0716 2.25 11.9999 2.25C14.585 2.25273 17.0633 3.28084 18.8912 5.10872C20.7191 6.93661 21.7472 9.41498 21.7499 12ZM20.2499 12C20.2499 10.3683 19.7661 8.77325 18.8596 7.41655C17.953 6.05984 16.6646 5.00242 15.1571 4.37799C13.6496 3.75357 11.9908 3.59019 10.3904 3.90852C8.7901 4.22685 7.3201 5.01259 6.16631 6.16637C5.01253 7.32015 4.22679 8.79016 3.90846 10.3905C3.59014 11.9908 3.75351 13.6496 4.37794 15.1571C5.00236 16.6646 6.05978 17.9531 7.41649 18.8596C8.77319 19.7661 10.3682 20.25 11.9999 20.25C14.1872 20.2475 16.2842 19.3775 17.8308 17.8309C19.3775 16.2843 20.2475 14.1873 20.2499 12Z" fill="currentColor"/>
</svg>
