<svg width="116" height="44" viewBox="0 0 116 44" fill="none" xmlns="http://www.w3.org/2000/svg">
<path d="M44.9575 21.7094C44.5118 21.6296 44.093 21.4885 43.7011 21.2863C43.319 21.0726 42.9739 20.7914 42.666 20.4429C42.358 20.0944 42.108 19.6714 41.9158 19.1739C41.7228 18.6657 41.6031 18.0764 41.5569 17.4059C41.5868 16.7504 41.6673 16.1226 41.7983 15.5227C41.9399 14.9219 42.175 14.3506 42.5037 13.8088C42.843 13.2662 43.3134 12.7552 43.9149 12.2758C44.6405 11.7432 45.3641 11.4408 46.0859 11.3688C46.8184 11.2958 47.5401 11.4111 48.251 11.7147C48.6092 11.8983 48.9072 12.1299 49.145 12.4095C49.3926 12.6775 49.5782 12.9721 49.7019 13.2935C49.8362 13.6139 49.9125 13.9447 49.9307 14.2857C49.9587 14.6152 49.9278 14.9443 49.838 15.2731C49.838 15.2731 49.8146 15.3125 49.7678 15.3915C49.7307 15.4588 49.6617 15.5289 49.5608 15.6017C49.4591 15.6639 49.3169 15.692 49.1345 15.6861C48.9201 15.6829 48.749 15.6225 48.6213 15.5049C48.4935 15.3873 48.3981 15.2723 48.335 15.1599C48.2826 15.0466 48.2564 14.99 48.2564 14.99C48.2632 14.8181 48.2336 14.5958 48.1676 14.3231C48.1113 14.0389 48.0289 13.7622 47.9204 13.4931C47.8361 13.3825 47.7062 13.3025 47.5307 13.2532C47.3658 13.203 47.1718 13.1873 46.9486 13.2063C46.7254 13.2253 46.4895 13.2828 46.2407 13.3789C46.0026 13.474 45.7734 13.6113 45.5531 13.7906C45.2329 14.0533 44.9472 14.3452 44.6962 14.6663C44.4442 14.9767 44.2446 15.3363 44.0973 15.7449C43.9492 16.1428 43.8503 16.6169 43.8007 17.1671C43.7911 17.8102 43.8845 18.3429 44.081 18.7651C44.2775 19.1873 44.5499 19.496 44.8984 19.6912C45.2068 19.7935 45.5072 19.8643 45.7996 19.9037C46.092 19.943 46.3914 19.939 46.6978 19.8916C47.0042 19.8441 47.3172 19.7479 47.6367 19.603C47.8925 19.4635 48.0783 19.3193 48.1941 19.1703C48.309 19.0106 48.3012 18.8561 48.1707 18.7066C47.9589 18.6068 47.6996 18.5165 47.393 18.4355C47.0864 18.3545 46.7652 18.2908 46.4293 18.2444C46.4293 18.2444 46.4014 18.2307 46.3456 18.2033C46.2994 18.1644 46.2422 18.1211 46.174 18.0734C46.1154 18.0141 46.0608 17.9385 46.0101 17.8464C45.9692 17.7429 45.9597 17.6313 45.9817 17.5116C46.0009 17.3601 46.045 17.2493 46.114 17.1792C46.1927 17.0976 46.2688 17.0483 46.3423 17.0314C46.4149 17.0038 46.4512 16.99 46.4512 16.99C46.7683 16.9417 47.0894 16.9411 47.4145 16.9884C47.7397 17.0357 48.0459 17.1114 48.3331 17.2155C48.6309 17.3186 48.8919 17.4303 49.1162 17.5504C49.3636 17.6899 49.5823 17.8694 49.7722 18.0888C49.9718 18.2966 50.1197 18.5249 50.2158 18.7737C50.3118 19.0224 50.3344 19.2881 50.2835 19.5708C50.2326 19.8535 50.086 20.1442 49.8438 20.4432C49.5989 20.7102 49.2927 20.9503 48.9255 21.1635C48.5688 21.3758 48.1709 21.5434 47.7318 21.6664C47.2926 21.7893 46.8325 21.8552 46.3515 21.864C45.8821 21.8824 45.4174 21.8309 44.9575 21.7094ZM54.6332 21.2565C53.92 21.178 53.3338 21.0191 52.8745 20.7797C52.4153 20.5404 52.0525 20.2394 51.7862 19.8767C51.5198 19.5139 51.3261 19.1236 51.2049 18.7057C51.0829 18.2771 51.0038 17.8503 50.9677 17.4252C50.9137 16.9159 50.9616 16.4087 51.1113 15.9035C51.2602 15.3877 51.4986 14.9179 51.8265 14.4939C52.1545 14.07 52.5592 13.7305 53.0407 13.4755C53.5319 13.2089 54.0875 13.0707 54.7075 13.0608C55.3382 13.0501 55.8641 13.1285 56.2851 13.2961C56.7168 13.4628 57.0622 13.685 57.3213 13.9628C57.5795 14.2298 57.7704 14.5241 57.8941 14.8454C58.0168 15.1561 58.0913 15.4656 58.1175 15.7738C58.1715 16.2831 58.077 16.7461 57.8341 17.1628C57.5903 17.5689 57.1718 17.8721 56.5786 18.0724C56.4113 18.1187 56.2063 18.1629 55.9636 18.2049C55.7307 18.2354 55.4814 18.262 55.2157 18.2846C54.95 18.3071 54.6891 18.324 54.4331 18.335C54.1772 18.346 53.9424 18.3553 53.729 18.3627C53.5252 18.3586 53.3591 18.3567 53.2307 18.3569C53.1022 18.3571 53.038 18.3572 53.038 18.3572C53.0871 18.5564 53.1844 18.7569 53.33 18.9586C53.4756 19.1604 53.6823 19.3248 53.95 19.4519C54.2177 19.579 54.554 19.6308 54.9587 19.6071C55.3626 19.5727 55.7178 19.5319 56.0242 19.4844C56.3297 19.4263 56.5825 19.3781 56.7826 19.3397C56.9925 19.2897 57.1497 19.2496 57.2541 19.2193C57.3577 19.1784 57.4095 19.1579 57.4095 19.1579C57.4095 19.1579 57.4414 19.1552 57.5052 19.1498C57.5796 19.1435 57.6704 19.1411 57.7775 19.1427C57.8847 19.1443 57.9942 19.1725 58.1059 19.2272C58.2176 19.282 58.316 19.3699 58.4013 19.4912C58.5087 19.6212 58.5563 19.7403 58.544 19.8484C58.5424 19.9555 58.5182 20.0486 58.4714 20.1275C58.4352 20.2055 58.3924 20.268 58.3428 20.3151C58.2924 20.3515 58.2672 20.3697 58.2672 20.3697C58.2672 20.3697 58.1592 20.4217 57.9432 20.5257C57.7273 20.6297 57.4427 20.7448 57.0894 20.8712C56.7371 21.0082 56.3449 21.1165 55.9127 21.196C55.4912 21.2746 55.0647 21.2948 54.6332 21.2565ZM52.9574 17.0313L55.4896 16.784C55.4896 16.784 55.5157 16.7764 55.568 16.7613C55.6308 16.7452 55.7092 16.7225 55.803 16.6931C55.896 16.6531 55.9823 16.5976 56.0619 16.5266C56.1521 16.4547 56.2193 16.3633 56.2634 16.2526C56.3172 16.1302 56.3365 15.9787 56.3211 15.798C56.2967 15.5111 56.2233 15.2764 56.1007 15.0942C55.9773 14.9013 55.7897 14.7727 55.538 14.7084C55.2961 14.6326 54.9639 14.6287 54.5415 14.6968C54.2563 14.7424 54.0036 14.8549 53.7833 15.0342C53.5737 15.2126 53.3991 15.4254 53.2595 15.6728C53.12 15.9202 53.0234 16.1693 52.9697 16.42C52.9258 16.6593 52.9217 16.863 52.9574 17.0313ZM62.5106 20.4105C62.2768 20.4304 62.0766 20.4046 61.9099 20.3331C61.753 20.2501 61.6266 20.1484 61.5307 20.0281C61.4349 19.9078 61.3616 19.8016 61.311 19.7096C61.271 19.6166 61.251 19.5702 61.251 19.5702C61.1696 19.1167 61.0891 18.6097 61.0093 18.0492C60.9393 17.477 60.8728 16.8832 60.8097 16.2677C60.7458 15.6415 60.6925 15.0144 60.6499 14.3864C60.6178 13.7576 60.5925 13.1442 60.5738 12.5463C60.5542 11.9377 60.5435 11.3713 60.5418 10.8469C60.5418 10.8469 60.5493 10.8088 60.5642 10.7326C60.5791 10.6564 60.6144 10.5677 60.6701 10.4666C60.7354 10.354 60.8345 10.26 60.9672 10.1845C61.0991 10.0983 61.2775 10.0564 61.5025 10.0587C61.7594 10.0583 61.9614 10.1053 62.1086 10.1999C62.2558 10.2944 62.3667 10.4028 62.4413 10.5249C62.5257 10.6355 62.5825 10.7377 62.6119 10.8315C62.6413 10.9254 62.656 10.9723 62.656 10.9723C62.67 11.3886 62.6894 11.8687 62.7142 12.4126C62.739 12.9564 62.7718 13.5317 62.8126 14.1384C62.8535 14.7451 62.901 15.3673 62.9552 16.005C63.0191 16.6312 63.0821 17.2468 63.1442 17.8517C63.2161 18.4451 63.2901 19.0008 63.3662 19.5189C63.3662 19.5189 63.3592 19.5623 63.3452 19.6491C63.3418 19.735 63.3127 19.8339 63.258 19.9456C63.2138 20.0564 63.1316 20.1597 63.0113 20.2556C62.9007 20.3399 62.7338 20.3915 62.5106 20.4105ZM64.2373 14.2743C63.3976 14.3456 62.5996 14.4027 61.8432 14.4456C61.0974 14.4876 60.4264 14.5285 59.8304 14.5685C59.8304 14.5685 59.7768 14.5677 59.6696 14.5661C59.5721 14.553 59.4467 14.5261 59.2934 14.4856C59.1401 14.4451 59 14.3714 58.8732 14.2644C58.757 14.1566 58.6801 14.0079 58.6426 13.8184C58.606 13.6395 58.6155 13.4995 58.6711 13.3984C58.7365 13.2858 58.8147 13.1989 58.9059 13.1376C58.997 13.0763 59.0789 13.0319 59.1515 13.0043C59.2338 12.9652 59.275 12.9457 59.275 12.9457C59.3591 12.9278 59.5123 12.9041 59.7346 12.8745C59.9675 12.844 60.2487 12.8148 60.5782 12.7868C60.9068 12.7481 61.2623 12.7126 61.645 12.68C62.0267 12.6369 62.4089 12.5991 62.7915 12.5666C63.1732 12.5234 63.5341 12.4874 63.8742 12.4585C63.8742 12.4585 63.9119 12.4607 63.9872 12.465C64.0731 12.4684 64.1759 12.481 64.2955 12.503C64.4151 12.5249 64.5365 12.5681 64.6598 12.6326C64.783 12.6971 64.8872 12.7899 64.9725 12.9111C65.0674 13.0208 65.1173 13.1665 65.122 13.348C65.141 13.5712 65.1027 13.7511 65.0073 13.8877C64.9216 14.0127 64.8168 14.1019 64.6928 14.1553C64.5689 14.2086 64.4596 14.2447 64.3648 14.2634C64.2798 14.2707 64.2373 14.2743 64.2373 14.2743ZM74.5563 19.2745C74.3012 19.2962 74.0275 19.2873 73.7351 19.2479C73.4427 19.2085 73.1481 19.1426 72.8512 19.0501C72.5649 18.9566 72.2923 18.8353 72.0334 18.686C71.7745 18.5367 71.5457 18.3635 71.347 18.1663C71.347 18.1663 71.3124 18.1371 71.2432 18.0787C71.1731 18.0098 71.0959 17.92 71.0115 17.8094C70.9378 17.6979 70.8898 17.5735 70.8674 17.4362C70.8548 17.2874 70.9117 17.1381 71.0381 16.9882C71.1433 16.8401 71.2645 16.7548 71.4018 16.7325C71.5488 16.6986 71.6874 16.6921 71.8176 16.7132C71.9479 16.7342 72.0573 16.7624 72.146 16.7977C72.2452 16.8321 72.2949 16.8493 72.2949 16.8493C72.4767 16.973 72.658 17.0914 72.8389 17.2045C73.0189 17.3069 73.2086 17.3979 73.408 17.4773C73.6172 17.5451 73.84 17.5851 74.0766 17.5971C74.3174 17.5338 74.502 17.4378 74.6302 17.3092C74.7575 17.1699 74.8458 17.0125 74.8952 16.8371C74.9551 16.6607 74.9716 16.4773 74.9448 16.2869C74.9276 16.0849 74.8896 15.8901 74.8309 15.7024C74.6841 15.3616 74.4375 15.1043 74.0908 14.9303C73.7442 14.7564 73.348 14.6295 72.9023 14.5496C72.7827 14.5276 72.6705 14.4676 72.5659 14.3694C72.4718 14.2704 72.414 14.1575 72.3926 14.0309C72.3711 13.9042 72.3979 13.7789 72.473 13.6547C72.5587 13.5297 72.7061 13.4369 72.915 13.3763C72.9761 13.339 73.0792 13.2928 73.2244 13.2376C73.3696 13.1824 73.5391 13.0984 73.7329 12.9856C73.9258 12.8622 74.1155 12.7015 74.3021 12.5037C74.4267 12.3325 74.5061 12.1331 74.5403 11.9054C74.5745 11.6777 74.5608 11.454 74.4994 11.2344C74.4379 11.0149 74.3109 10.8437 74.1185 10.7208C73.9625 10.6485 73.7569 10.6231 73.5018 10.6448C73.2565 10.6549 72.9868 10.6939 72.6928 10.7617C72.398 10.8189 72.1044 10.892 71.8122 10.9811C71.8122 10.9811 71.775 10.9842 71.7007 10.9905C71.6253 10.9862 71.5337 10.978 71.4256 10.9657C71.3272 10.942 71.2222 10.9027 71.1105 10.848C70.9988 10.7933 70.9061 10.7101 70.8324 10.5987C70.7462 10.4668 70.7039 10.3473 70.7055 10.2401C70.7071 10.1329 70.7318 10.0452 70.7795 9.9769C70.8272 9.90861 70.8763 9.85627 70.9267 9.81987C70.9763 9.77284 71.001 9.74932 71.001 9.74932C71.348 9.54856 71.6772 9.39212 71.9889 9.28C72.2996 9.15725 72.6099 9.0934 72.92 9.08847C73.1201 9.05005 73.3442 9.04171 73.5923 9.06345C73.8501 9.07366 74.1048 9.11089 74.3565 9.17515C74.6179 9.22787 74.866 9.31383 75.101 9.43303C75.4166 9.62031 75.6832 9.85994 75.9007 10.1519C76.1289 10.443 76.2955 10.766 76.4006 11.1211C76.5048 11.4655 76.5395 11.8104 76.5046 12.156C76.4794 12.49 76.3821 12.7926 76.2124 13.064C76.1559 13.1544 76.079 13.2573 75.9817 13.3726C75.8942 13.4764 75.8014 13.5806 75.7032 13.6853C75.6041 13.7794 75.5192 13.8508 75.4484 13.8997C75.64 14.0118 75.8395 14.1555 76.0471 14.3305C76.2546 14.5056 76.4446 14.7249 76.6168 14.9886C76.7891 15.2523 76.9234 15.5728 77.0197 15.95C77.1268 16.4547 77.1275 16.9043 77.0219 17.2986C76.9162 17.693 76.7365 18.0348 76.4828 18.324C76.2396 18.6123 75.9481 18.8351 75.6082 18.9924C75.2683 19.1498 74.9177 19.2438 74.5563 19.2745ZM83.9259 18.5104C83.669 18.5108 83.4621 18.4695 83.3052 18.3865C83.1474 18.2929 83.0205 18.1859 82.9246 18.0656C82.8394 17.9444 82.7821 17.8368 82.7527 17.743C82.7224 17.6385 82.7073 17.5863 82.7073 17.5863C82.6447 17.2276 82.5811 16.7941 82.5165 16.2858C82.4519 15.7774 82.3885 15.2208 82.3264 14.6159C82.2749 14.01 82.2278 13.3931 82.1852 12.7652C82.1416 12.1266 82.1047 11.5034 82.0745 10.8958C82.0434 10.2776 82.0274 9.71156 82.0266 9.19778C82.0266 9.19778 82.0287 9.16013 82.033 9.08483C82.0364 8.9989 82.0606 8.90585 82.1056 8.80568C82.1604 8.69398 82.2479 8.59019 82.3682 8.49433C82.4983 8.38693 82.6788 8.30736 82.91 8.2556C84.2082 8.03823 85.3246 7.94871 86.2592 7.98705C87.1938 8.02538 87.9375 8.27264 88.4901 8.72882C89.0533 9.1841 89.4404 9.70787 89.6513 10.3001C89.8613 10.8818 89.9008 11.4726 89.7698 12.0725C89.6494 12.6715 89.3584 13.2154 88.8968 13.7042C88.7014 13.9243 88.4457 14.128 88.1298 14.3154C87.8245 14.5019 87.4797 14.665 87.0955 14.8047C86.7104 14.9338 86.3013 15.0328 85.8683 15.1017C85.4352 15.1706 84.9928 15.1922 84.541 15.1663L84.8134 17.6161C84.8134 17.6161 84.8063 17.6595 84.7923 17.7463C84.7889 17.8322 84.7545 17.9315 84.6892 18.0441C84.6344 18.1558 84.5469 18.2596 84.4266 18.3555C84.316 18.4398 84.1491 18.4914 83.9259 18.5104ZM88.2759 17.5466C87.8167 17.3073 87.3535 17.0844 86.8863 16.8779C86.4298 16.6705 85.94 16.4498 85.417 16.2159C84.894 15.982 84.3107 15.7318 83.6671 15.4654C83.6617 15.4016 83.7081 15.3174 83.8062 15.2127C83.915 15.1071 84.0504 14.9993 84.2123 14.8892C84.3742 14.779 84.5371 14.6796 84.7008 14.5907C84.8636 14.4912 85.0012 14.41 85.1136 14.3469C85.226 14.2838 85.2822 14.2523 85.2822 14.2523C85.6022 14.3642 85.8889 14.463 86.1424 14.5485C86.395 14.6234 86.6321 14.7049 86.8537 14.7932C87.0753 14.8814 87.3031 14.9798 87.5371 15.0883C87.7818 15.196 88.05 15.3285 88.3416 15.4857C88.6324 15.6322 88.9689 15.8124 89.351 16.0261C89.351 16.0261 89.3746 16.0509 89.4216 16.1004C89.4677 16.1393 89.521 16.199 89.5813 16.2795C89.6523 16.3591 89.703 16.4512 89.7332 16.5557C89.7742 16.6592 89.7845 16.7815 89.7644 16.9223C89.7549 17.0623 89.6975 17.2064 89.5924 17.3545C89.4969 17.491 89.3762 17.5816 89.2301 17.6261C89.0937 17.6591 88.9502 17.6713 88.7996 17.6627C88.6481 17.6435 88.5232 17.622 88.4248 17.5982C88.3256 17.5638 88.2759 17.5466 88.2759 17.5466ZM84.3703 13.1576C84.9575 13.1398 85.4499 13.0765 85.8475 12.9678C86.2442 12.8484 86.5575 12.6934 86.7875 12.5025C87.0175 12.3117 87.1766 12.1055 87.2648 11.8839C87.3628 11.6508 87.4129 11.4217 87.4152 11.1967C87.3845 10.8353 87.2746 10.5503 87.0856 10.3415C86.9063 10.1213 86.6629 9.96531 86.3553 9.87368C86.0584 9.78116 85.7226 9.73476 85.3479 9.73448C84.9732 9.73421 84.5795 9.76231 84.1668 9.81879C84.1713 10.3751 84.1873 10.9411 84.2148 11.5168C84.252 12.081 84.3038 12.6279 84.3703 13.1576ZM92.5707 17.824C92.3466 17.8323 92.1561 17.795 91.9992 17.712C91.8529 17.628 91.7322 17.5312 91.6373 17.4216C91.552 17.3003 91.4899 17.1986 91.4508 17.1163C91.4214 17.0224 91.4067 16.9755 91.4067 16.9755C91.2941 16.407 91.1944 15.7999 91.1074 15.1543C91.0301 14.4971 90.9626 13.8284 90.9048 13.1482C90.8461 12.4574 90.8038 11.7705 90.7779 11.0876C90.7511 10.394 90.7367 9.72082 90.7347 9.06798C90.7347 9.06798 90.7369 9.03033 90.7412 8.95503C90.7561 8.87882 90.7861 8.79063 90.8311 8.69046C90.8761 8.59029 90.9539 8.49804 91.0645 8.4137C91.1742 8.31874 91.3189 8.25827 91.4987 8.23229C91.6785 8.20631 91.8769 8.21085 92.094 8.24593C92.3217 8.28011 92.5349 8.3958 92.7337 8.59302C93.055 8.97251 93.3518 9.31661 93.6243 9.62531C93.8967 9.93402 94.1466 10.2286 94.3738 10.509C94.6001 10.7788 94.826 11.0433 95.0514 11.3025C95.2875 11.5608 95.5297 11.8292 95.7782 12.1078C96.0311 11.808 96.2724 11.4985 96.5022 11.1792C96.732 10.8599 96.9701 10.5132 97.2167 10.139C97.4623 9.75413 97.7265 9.3356 98.0092 8.88337C98.3017 8.4196 98.6268 7.89954 98.9846 7.32317C98.9846 7.32317 99.0129 7.27795 99.0694 7.1875C99.1366 7.09616 99.2472 7.01182 99.4012 6.9345C99.5543 6.84656 99.7544 6.80814 100.002 6.81925C100.259 6.82946 100.462 6.88715 100.61 6.99232C100.768 7.08596 100.884 7.19384 100.959 7.31596C101.034 7.43809 101.081 7.55184 101.1 7.65722C101.119 7.75197 101.129 7.79934 101.129 7.79934C101.122 8.22809 101.131 8.70908 101.155 9.2423C101.189 9.77462 101.227 10.3388 101.267 10.9349C101.316 11.5195 101.367 12.1147 101.418 12.7205C101.48 13.3254 101.542 13.9197 101.602 14.5033C101.673 15.0861 101.746 15.6365 101.823 16.1546C101.823 16.1546 101.821 16.2029 101.819 16.2994C101.816 16.396 101.788 16.5054 101.734 16.6278C101.68 16.7501 101.588 16.8596 101.457 16.9564C101.326 17.0532 101.143 17.1062 100.909 17.1154C100.674 17.1247 100.479 17.0931 100.323 17.0207C100.166 16.9377 100.045 16.8409 99.9606 16.7303C99.8763 16.6197 99.8146 16.5233 99.7755 16.441C99.7364 16.3586 99.7168 16.3175 99.7168 16.3175C99.6311 15.9394 99.5596 15.5387 99.5022 15.1153C99.444 14.6814 99.3905 14.2416 99.342 13.7962C99.3031 13.3391 99.2701 12.887 99.2428 12.4397C99.2146 11.9818 99.1926 11.534 99.1768 11.0965C98.8773 11.6036 98.5805 12.0785 98.2862 12.521C98.0026 12.9626 97.6839 13.3697 97.3302 13.7423C97.0755 14.0209 96.7755 14.2069 96.4302 14.3005C96.084 14.3835 95.7216 14.3393 95.3431 14.1681C95.1453 13.9815 94.9199 13.7865 94.6672 13.5832C94.425 13.379 94.1637 13.1389 93.8834 12.863C93.6021 12.5765 93.3052 12.2324 92.9928 11.8307C93.0164 12.2355 93.037 12.6031 93.0543 12.9335C93.0823 13.2629 93.1037 13.5769 93.1183 13.8754C93.1436 14.173 93.1747 14.4755 93.2115 14.7828C93.2474 15.0795 93.2856 15.4027 93.326 15.7526C93.3762 16.0909 93.4304 16.477 93.4887 16.911C93.4887 16.911 93.487 16.9539 93.4836 17.0399C93.4802 17.1258 93.4516 17.2299 93.3977 17.3522C93.3439 17.4746 93.2515 17.5841 93.1206 17.6809C92.9993 17.7661 92.8161 17.8138 92.5707 17.824ZM107.229 16.7229C106.559 16.7798 105.938 16.7095 105.364 16.512C104.791 16.3145 104.284 16.015 103.843 15.6136C103.412 15.2006 103.07 14.7051 102.817 14.1271C102.575 13.5375 102.444 12.8796 102.425 12.1532C102.395 11.4278 102.48 10.7194 102.678 10.0282C102.876 9.33692 103.17 8.70706 103.561 8.13861C103.962 7.56926 104.447 7.10518 105.016 6.74638C105.595 6.37605 106.24 6.16063 106.953 6.10012C107.495 6.05406 108.042 6.06645 108.594 6.1373C109.156 6.20725 109.698 6.34854 110.219 6.56117C110.741 6.7738 111.211 7.08174 111.631 7.48499C112.049 7.87761 112.386 8.37356 112.64 8.97285C112.895 9.57213 113.036 10.2934 113.065 11.1367C113.091 11.8196 112.994 12.4434 112.774 13.008C112.554 13.562 112.243 14.0594 111.841 14.5003C111.451 14.9403 110.996 15.3215 110.477 15.6439C109.968 15.9548 109.433 16.2037 108.871 16.3907C108.318 16.5661 107.771 16.6768 107.229 16.7229ZM107.481 14.5819C107.789 14.5557 108.099 14.4918 108.412 14.3903C108.723 14.2782 109.015 14.1249 109.288 13.9305C109.57 13.7245 109.817 13.4841 110.03 13.2091C110.241 12.9235 110.406 12.5991 110.525 12.2357C110.644 11.8723 110.695 11.4718 110.68 11.0342C110.661 10.4364 110.549 9.94269 110.345 9.55326C110.151 9.16293 109.895 8.85818 109.577 8.63902C109.268 8.40833 108.918 8.25609 108.526 8.18232C108.145 8.09702 107.762 8.07063 107.38 8.10314C106.997 8.13566 106.644 8.26202 106.32 8.48223C105.995 8.69182 105.714 8.96732 105.475 9.30875C105.235 9.63956 105.054 10.0243 104.931 10.463C104.806 10.891 104.754 11.3398 104.772 11.8092C104.794 12.439 104.919 12.969 105.148 13.3991C105.388 13.8283 105.704 14.1441 106.096 14.3463C106.498 14.5476 106.96 14.6261 107.481 14.5819Z" fill="#2563EB"/>
<g clip-path="url(#clip0_9618_120675)">
<path d="M64.9793 31.2017C63.6845 34.6324 62.217 38.1033 59.0536 40.2532C56.2253 42.172 52.6912 42.7898 49.3196 42.5236C45.6484 42.2322 42.1397 40.7203 39.1591 38.6207C37.6256 37.5407 36.2089 36.3151 34.8938 34.984C34.2438 34.321 33.6142 33.6328 33.0099 32.9296C32.4057 32.2264 31.7913 31.5131 31.4663 30.6391C31.1921 29.8907 31.2276 29.0167 31.6846 28.3486C32.167 27.6404 33.0455 27.4193 33.8681 27.4746C35.7265 27.6002 37.5342 28.8308 38.8392 30.0815C41.3679 32.4976 43.1502 36.5964 41.4187 39.9417C39.6871 43.2871 35.4879 44.2666 31.9335 43.9451C28.379 43.6236 24.4641 42.2724 21.123 40.6701C14.7809 37.6311 9.23093 32.9698 5.316 27.1581C4.82854 26.4399 4.37662 25.7015 3.95009 24.948C3.45755 24.0841 5.58004 24.3101 5.9304 24.9028C9.0329 30.177 13.3236 34.6676 18.5587 37.9175C21.1433 39.5198 23.9259 40.8258 26.8354 41.7249C29.9734 42.6994 33.5634 43.5031 36.6354 41.9057C38.0166 41.1874 39.1641 40.0171 39.6516 38.5303C40.1391 37.0435 39.9817 35.2954 39.4028 33.7835C38.8239 32.2716 37.8541 30.9857 36.6456 29.966C36.1277 29.529 35.5539 29.1322 34.9395 28.8358C34.6551 28.7002 34.3962 28.5646 34.0966 28.7153C33.7411 28.8911 33.5533 29.2829 33.4669 29.6496C33.1166 31.1665 34.6856 32.5629 35.6097 33.5826C36.7218 34.8082 37.915 35.9635 39.1997 37.0133C41.5557 38.9371 44.318 40.5345 47.3444 41.1372C50.5179 41.7701 53.9657 41.298 56.7483 39.6404C60.0793 37.6613 61.5823 34.0949 62.8974 30.6592C63.1716 29.9459 65.223 30.5437 64.9742 31.2117H64.9793V31.2017Z" fill="#2563EB"/>
<path d="M10.9781 27.8209L5.98162 24.2094L3.57478 22.4714C2.90452 21.9892 2.19364 21.3061 1.36089 21.1353L2.4983 21.0198C2.00069 21.7632 2.14286 22.8029 2.19872 23.6418C2.26473 24.5911 2.37136 25.5405 2.47291 26.4898C2.67602 28.3936 2.92991 30.4028 2.58462 32.3065C2.4526 33.0248 0.46721 32.4974 0.507832 31.754C0.624619 29.6644 0.477365 27.6401 0.253945 25.5656C0.147313 24.5459 0.0356045 23.5263 0.00513744 22.4965C-0.0202513 21.6577 0.0254507 20.9042 0.502757 20.1859C0.705866 19.8846 1.36597 20.0152 1.64017 20.0704C2.67095 20.2814 3.524 20.844 4.36183 21.4517C5.28598 22.1198 6.21012 22.7879 7.13935 23.4559L12.6893 27.4693C13.0701 27.7456 12.8772 28.1223 12.4862 28.2178C11.9632 28.3433 11.3894 28.1173 10.973 27.8159L10.9781 27.8209Z" fill="#2563EB"/>
</g>
<defs>
<clipPath id="clip0_9618_120675">
<rect width="65" height="24" fill="white" transform="matrix(-1 0 0 1 65 20.0001)"/>
</clipPath>
</defs>
</svg>
