<svg width="24" height="24" viewBox="0 0 24 24" fill="none" xmlns="http://www.w3.org/2000/svg">
<path d="M16.4999 15.0002C15.9995 15 15.5043 15.1002 15.0434 15.2949C14.5825 15.4896 14.1654 15.7748 13.8167 16.1336L9.49486 13.3558C9.83482 12.484 9.83482 11.5163 9.49486 10.6445L13.8167 7.86673C14.4659 8.53172 15.3389 8.93197 16.2664 8.98988C17.1939 9.0478 18.1099 8.75925 18.8367 8.18018C19.5636 7.60111 20.0495 6.77278 20.2004 5.85578C20.3512 4.93878 20.1562 3.99844 19.6531 3.21708C19.15 2.43571 18.3747 1.86899 17.4775 1.62678C16.5803 1.38457 15.6251 1.48413 14.7971 1.90616C13.9691 2.32819 13.3274 3.04262 12.9962 3.91094C12.6651 4.77926 12.6682 5.73961 13.0049 6.60579L8.68298 9.38361C8.16255 8.8493 7.4946 8.48234 6.76452 8.32962C6.03444 8.1769 5.27541 8.24536 4.58445 8.52626C3.89348 8.80716 3.30198 9.28773 2.88556 9.90654C2.46913 10.5254 2.2467 11.2543 2.2467 12.0002C2.2467 12.746 2.46913 13.475 2.88556 14.0938C3.30198 14.7126 3.89348 15.1932 4.58445 15.4741C5.27541 15.755 6.03444 15.8234 6.76452 15.6707C7.4946 15.518 8.16255 15.151 8.68298 14.6167L13.0049 17.3945C12.7153 18.1413 12.6725 18.9611 12.8826 19.734C13.0927 20.5068 13.5448 21.1921 14.1725 21.6895C14.8003 22.1868 15.5708 22.4701 16.3712 22.4979C17.1716 22.5257 17.9599 22.2965 18.6207 21.8438C19.2814 21.3912 19.7798 20.7388 20.043 19.9824C20.3062 19.226 20.3203 18.4052 20.0832 17.6401C19.8461 16.8751 19.3704 16.2061 18.7255 15.7311C18.0807 15.256 17.3008 14.9999 16.4999 15.0002ZM16.4999 3.00017C16.9449 3.00017 17.3799 3.13213 17.7499 3.37936C18.1199 3.6266 18.4083 3.978 18.5786 4.38913C18.7489 4.80026 18.7934 5.25266 18.7066 5.68912C18.6198 6.12558 18.4055 6.52649 18.0909 6.84116C17.7762 7.15583 17.3753 7.37012 16.9388 7.45694C16.5024 7.54375 16.05 7.49919 15.6388 7.3289C15.2277 7.1586 14.8763 6.87021 14.6291 6.5002C14.3818 6.13019 14.2499 5.69518 14.2499 5.25017C14.2499 4.65343 14.4869 4.08114 14.9089 3.65918C15.3308 3.23722 15.9031 3.00017 16.4999 3.00017ZM5.99986 14.2502C5.55485 14.2502 5.11984 14.1182 4.74983 13.871C4.37982 13.6237 4.09143 13.2723 3.92113 12.8612C3.75083 12.4501 3.70628 11.9977 3.79309 11.5612C3.87991 11.1248 4.0942 10.7238 4.40887 10.4092C4.72354 10.0945 5.12445 9.88022 5.56091 9.7934C5.99736 9.70658 6.44976 9.75114 6.8609 9.92144C7.27203 10.0917 7.62343 10.3801 7.87067 10.7501C8.1179 11.1201 8.24986 11.5552 8.24986 12.0002C8.24986 12.5969 8.01281 13.1692 7.59085 13.5912C7.16889 14.0131 6.5966 14.2502 5.99986 14.2502ZM16.4999 21.0002C16.0549 21.0002 15.6198 20.8682 15.2498 20.621C14.8798 20.3737 14.5914 20.0223 14.4211 19.6112C14.2508 19.2001 14.2063 18.7477 14.2931 18.3112C14.3799 17.8748 14.5942 17.4738 14.9089 17.1592C15.2235 16.8445 15.6244 16.6302 16.0609 16.5434C16.4974 16.4566 16.9498 16.5011 17.3609 16.6714C17.772 16.8417 18.1234 17.1301 18.3707 17.5001C18.6179 17.8701 18.7499 18.3052 18.7499 18.7502C18.7499 19.3469 18.5128 19.9192 18.0909 20.3412C17.6689 20.7631 17.0966 21.0002 16.4999 21.0002Z" fill="currentColor"/>
</svg>
