<svg width="24" height="24" viewBox="0 0 24 24" fill="none" xmlns="http://www.w3.org/2000/svg">
<path d="M10.9922 14.805C11.9974 14.1358 12.7606 13.1609 13.1688 12.0244C13.5771 10.888 13.6088 9.65029 13.2592 8.49442C12.9096 7.33855 12.1974 6.32586 11.2278 5.6061C10.2581 4.88634 9.08262 4.49773 7.87505 4.49773C6.66747 4.49773 5.49196 4.88634 4.52233 5.6061C3.55271 6.32586 2.84045 7.33855 2.49088 8.49442C2.14132 9.65029 2.17301 10.888 2.58126 12.0244C2.98952 13.1609 3.75267 14.1358 4.75786 14.805C2.93957 15.4752 1.38671 16.7153 0.330984 18.3403C0.275499 18.4228 0.236959 18.5155 0.217604 18.613C0.198249 18.7104 0.198466 18.8108 0.218241 18.9082C0.238017 19.0056 0.276957 19.0981 0.332798 19.1804C0.388639 19.2626 0.460266 19.3329 0.543518 19.3872C0.626769 19.4415 0.719983 19.4787 0.817742 19.4967C0.9155 19.5146 1.01585 19.513 1.11297 19.4918C1.21008 19.4706 1.30202 19.4304 1.38344 19.3734C1.46486 19.3163 1.53413 19.2437 1.58723 19.1597C2.26822 18.1123 3.20007 17.2516 4.29814 16.6558C5.39622 16.06 6.62574 15.7479 7.87505 15.7479C9.12436 15.7479 10.3539 16.06 11.452 16.6558C12.55 17.2516 13.4819 18.1123 14.1629 19.1597C14.2729 19.3232 14.4428 19.4368 14.6359 19.476C14.829 19.5152 15.0298 19.4769 15.1949 19.3692C15.3599 19.2616 15.476 19.0933 15.5179 18.9007C15.5599 18.7082 15.5244 18.5069 15.4191 18.3403C14.3634 16.7153 12.8105 15.4752 10.9922 14.805ZM3.75005 10.125C3.75005 9.30916 3.99197 8.51163 4.44523 7.83328C4.8985 7.15493 5.54273 6.62622 6.29648 6.31401C7.05022 6.00179 7.87962 5.92011 8.67979 6.07927C9.47997 6.23843 10.215 6.6313 10.7919 7.20819C11.3688 7.78508 11.7616 8.52009 11.9208 9.32026C12.0799 10.1204 11.9983 10.9498 11.686 11.7036C11.3738 12.4573 10.8451 13.1016 10.1668 13.5548C9.48842 14.0081 8.69089 14.25 7.87505 14.25C6.78141 14.2488 5.73292 13.8138 4.9596 13.0405C4.18628 12.2671 3.75129 11.2186 3.75005 10.125ZM23.4507 19.3781C23.2841 19.4868 23.0812 19.5248 22.8865 19.4838C22.6919 19.4429 22.5215 19.3263 22.4129 19.1597C21.7327 18.1117 20.801 17.2506 19.7027 16.655C18.6044 16.0595 17.3744 15.7483 16.125 15.75C15.9261 15.75 15.7354 15.671 15.5947 15.5303C15.4541 15.3897 15.375 15.1989 15.375 15C15.375 14.8011 15.4541 14.6103 15.5947 14.4697C15.7354 14.329 15.9261 14.25 16.125 14.25C16.7325 14.2494 17.3324 14.1147 17.8817 13.8554C18.4311 13.5962 18.9164 13.2187 19.303 12.7502C19.6896 12.2816 19.9679 11.7334 20.1181 11.1448C20.2683 10.5562 20.2866 9.94166 20.1718 9.34515C20.0569 8.74863 19.8117 8.18484 19.4537 7.69407C19.0958 7.20329 18.6338 6.79764 18.1008 6.5061C17.5679 6.21456 16.9771 6.04433 16.3708 6.00757C15.7644 5.97081 15.1574 6.06843 14.5932 6.29345C14.5012 6.33322 14.4021 6.35414 14.3019 6.35499C14.2017 6.35584 14.1023 6.33659 14.0096 6.29838C13.917 6.26017 13.8329 6.20377 13.7624 6.13252C13.6919 6.06128 13.6364 5.97662 13.5992 5.88356C13.562 5.7905 13.5438 5.69092 13.5457 5.59071C13.5476 5.4905 13.5696 5.39169 13.6103 5.30012C13.6511 5.20855 13.7098 5.12607 13.7829 5.05756C13.8561 4.98906 13.9422 4.93591 14.0363 4.90126C15.3277 4.38624 16.764 4.36771 18.0682 4.84923C19.3725 5.33076 20.4522 6.27822 21.099 7.50884C21.7459 8.73946 21.9141 10.166 21.5713 11.5134C21.2284 12.8607 20.3987 14.0333 19.2422 14.805C21.0605 15.4752 22.6134 16.7153 23.6691 18.3403C23.7777 18.5069 23.8158 18.7098 23.7748 18.9045C23.7338 19.0991 23.6172 19.2695 23.4507 19.3781Z" fill="currentColor"/>
</svg>
