<svg width="40" height="40" viewBox="0 0 40 40" fill="none" xmlns="http://www.w3.org/2000/svg">
  <path fill-rule="evenodd" clip-rule="evenodd"
        d="M2.89648 18.4946C2.89646 27.4533 9.21978 35.1663 18.0044 36.9233C19.3345 37.1893 20.7041 37.1893 22.0343 36.923H22.0347C30.8191 35.166 37.142 27.453 37.1423 18.4945V12.3898C37.1423 7.13605 32.8831 2.87708 27.6295 2.87708H12.4092C7.15546 2.87708 2.89648 7.13605 2.89648 12.3898V18.4946ZM15.3745 18.0974C15.3745 17.5103 14.8986 17.0344 14.3116 17.0344C13.7245 17.0344 13.2487 17.5103 13.2487 18.0974V23.8049C13.2487 24.392 13.7245 24.8679 14.3116 24.8679C14.8986 24.8679 15.3745 24.392 15.3745 23.8049V18.0974ZM20.0196 16.8761C20.6066 16.8761 21.0825 17.352 21.0825 17.9391V23.8052C21.0825 24.3923 20.6066 24.8682 20.0196 24.8682C19.4325 24.8682 18.9566 24.3923 18.9566 23.8052V17.9391C18.9566 17.352 19.4325 16.8761 20.0196 16.8761ZM20.0196 11.3273L20.0156 11.3273C18.7741 11.332 17.558 11.6805 16.5025 12.3343C16.0035 12.6434 15.8495 13.2985 16.1586 13.7976C16.4677 14.2967 17.1229 14.4507 17.6219 14.1416C18.3429 13.695 19.1735 13.4567 20.0216 13.4532C22.5859 13.4542 24.6642 15.5333 24.6642 18.0979V23.8055C24.6642 24.3925 25.1401 24.8684 25.7271 24.8684C26.3142 24.8684 26.7901 24.3925 26.7901 23.8055V18.0979C26.7901 14.3586 23.7589 11.3273 20.0196 11.3273Z"
        fill="currentColor"/>
</svg>
