<svg width="24" height="24" viewBox="0 0 24 24" fill="none" xmlns="http://www.w3.org/2000/svg">
<path d="M21 10.8328V19.5C21 19.8978 20.842 20.2793 20.5607 20.5607C20.2794 20.842 19.8978 21 19.5 21H4.5C4.10218 21 3.72064 20.842 3.43934 20.5607C3.15804 20.2793 3 19.8978 3 19.5V10.8328C2.99997 10.6252 3.04303 10.4199 3.12646 10.2298C3.20989 10.0397 3.33187 9.86895 3.48469 9.72843L10.9847 2.65218L10.995 2.64187C11.2711 2.39074 11.631 2.25159 12.0042 2.25159C12.3775 2.25159 12.7373 2.39074 13.0134 2.64187C13.0166 2.64554 13.0201 2.64898 13.0238 2.65218L20.5238 9.72843C20.675 9.86969 20.7954 10.0407 20.8774 10.2308C20.9594 10.4209 21.0011 10.6258 21 10.8328Z" fill="currentColor"/>
</svg>
