<svg width="24" height="24" viewBox="0 0 24 24" fill="none" xmlns="http://www.w3.org/2000/svg">
<path d="M3.75 8.25001H6.84375C7.00898 8.89532 7.38428 9.46729 7.91048 9.87574C8.43669 10.2842 9.08387 10.5059 9.75 10.5059C10.4161 10.5059 11.0633 10.2842 11.5895 9.87574C12.1157 9.46729 12.491 8.89532 12.6562 8.25001H20.25C20.4489 8.25001 20.6397 8.17099 20.7803 8.03034C20.921 7.88969 21 7.69892 21 7.50001C21 7.3011 20.921 7.11033 20.7803 6.96968C20.6397 6.82903 20.4489 6.75001 20.25 6.75001H12.6562C12.491 6.1047 12.1157 5.53273 11.5895 5.12428C11.0633 4.71583 10.4161 4.49413 9.75 4.49413C9.08387 4.49413 8.43669 4.71583 7.91048 5.12428C7.38428 5.53273 7.00898 6.1047 6.84375 6.75001H3.75C3.55109 6.75001 3.36032 6.82903 3.21967 6.96968C3.07902 7.11033 3 7.3011 3 7.50001C3 7.69892 3.07902 7.88969 3.21967 8.03034C3.36032 8.17099 3.55109 8.25001 3.75 8.25001ZM9.75 6.00001C10.0467 6.00001 10.3367 6.08798 10.5834 6.2528C10.83 6.41763 11.0223 6.65189 11.1358 6.92598C11.2494 7.20007 11.2791 7.50167 11.2212 7.79264C11.1633 8.08361 11.0204 8.35089 10.8107 8.56067C10.6009 8.77045 10.3336 8.91331 10.0426 8.97119C9.75166 9.02906 9.45006 8.99936 9.17597 8.88583C8.90189 8.7723 8.66762 8.58004 8.5028 8.33336C8.33797 8.08669 8.25 7.79668 8.25 7.50001C8.25 7.10218 8.40804 6.72065 8.68934 6.43935C8.97064 6.15804 9.35218 6.00001 9.75 6.00001ZM20.25 15.75H18.6562C18.491 15.1047 18.1157 14.5327 17.5895 14.1243C17.0633 13.7158 16.4161 13.4941 15.75 13.4941C15.0839 13.4941 14.4367 13.7158 13.9105 14.1243C13.3843 14.5327 13.009 15.1047 12.8438 15.75H3.75C3.55109 15.75 3.36032 15.829 3.21967 15.9697C3.07902 16.1103 3 16.3011 3 16.5C3 16.6989 3.07902 16.8897 3.21967 17.0303C3.36032 17.171 3.55109 17.25 3.75 17.25H12.8438C13.009 17.8953 13.3843 18.4673 13.9105 18.8757C14.4367 19.2842 15.0839 19.5059 15.75 19.5059C16.4161 19.5059 17.0633 19.2842 17.5895 18.8757C18.1157 18.4673 18.491 17.8953 18.6562 17.25H20.25C20.4489 17.25 20.6397 17.171 20.7803 17.0303C20.921 16.8897 21 16.6989 21 16.5C21 16.3011 20.921 16.1103 20.7803 15.9697C20.6397 15.829 20.4489 15.75 20.25 15.75ZM15.75 18C15.4533 18 15.1633 17.912 14.9166 17.7472C14.67 17.5824 14.4777 17.3481 14.3642 17.074C14.2506 16.7999 14.2209 16.4983 14.2788 16.2074C14.3367 15.9164 14.4796 15.6491 14.6893 15.4393C14.8991 15.2296 15.1664 15.0867 15.4574 15.0288C15.7483 14.971 16.0499 15.0007 16.324 15.1142C16.5981 15.2277 16.8324 15.42 16.9972 15.6667C17.162 15.9133 17.25 16.2033 17.25 16.5C17.25 16.8978 17.092 17.2794 16.8107 17.5607C16.5294 17.842 16.1478 18 15.75 18Z" fill="currentColor"/>
</svg>
