<svg width="24" height="24" viewBox="0 0 24 24" fill="none" xmlns="http://www.w3.org/2000/svg">
<path d="M21.1744 9.63937C20.8209 9.27 20.4553 8.88938 20.3175 8.55469C20.19 8.24813 20.1825 7.74 20.175 7.24781C20.1609 6.33281 20.1459 5.29594 19.425 4.575C18.7041 3.85406 17.6672 3.83906 16.7522 3.825C16.26 3.8175 15.7519 3.81 15.4453 3.6825C15.1116 3.54469 14.73 3.17906 14.3606 2.82562C13.7137 2.20406 12.9788 1.5 12 1.5C11.0212 1.5 10.2872 2.20406 9.63937 2.82562C9.27 3.17906 8.88938 3.54469 8.55469 3.6825C8.25 3.81 7.74 3.8175 7.24781 3.825C6.33281 3.83906 5.29594 3.85406 4.575 4.575C3.85406 5.29594 3.84375 6.33281 3.825 7.24781C3.8175 7.74 3.81 8.24813 3.6825 8.55469C3.54469 8.88844 3.17906 9.27 2.82562 9.63937C2.20406 10.2863 1.5 11.0212 1.5 12C1.5 12.9788 2.20406 13.7128 2.82562 14.3606C3.17906 14.73 3.54469 15.1106 3.6825 15.4453C3.81 15.7519 3.8175 16.26 3.825 16.7522C3.83906 17.6672 3.85406 18.7041 4.575 19.425C5.29594 20.1459 6.33281 20.1609 7.24781 20.175C7.74 20.1825 8.24813 20.19 8.55469 20.3175C8.88844 20.4553 9.27 20.8209 9.63937 21.1744C10.2863 21.7959 11.0212 22.5 12 22.5C12.9788 22.5 13.7128 21.7959 14.3606 21.1744C14.73 20.8209 15.1106 20.4553 15.4453 20.3175C15.7519 20.19 16.26 20.1825 16.7522 20.175C17.6672 20.1609 18.7041 20.1459 19.425 19.425C20.1459 18.7041 20.1609 17.6672 20.175 16.7522C20.1825 16.26 20.19 15.7519 20.3175 15.4453C20.4553 15.1116 20.8209 14.73 21.1744 14.3606C21.7959 13.7137 22.5 12.9788 22.5 12C22.5 11.0212 21.7959 10.2872 21.1744 9.63937ZM12 18C11.7775 18 11.56 17.934 11.375 17.8104C11.19 17.6868 11.0458 17.5111 10.9606 17.3055C10.8755 17.1 10.8532 16.8738 10.8966 16.6555C10.94 16.4373 11.0472 16.2368 11.2045 16.0795C11.3618 15.9222 11.5623 15.815 11.7805 15.7716C11.9988 15.7282 12.225 15.7505 12.4305 15.8356C12.6361 15.9208 12.8118 16.065 12.9354 16.25C13.059 16.435 13.125 16.6525 13.125 16.875C13.125 17.1734 13.0065 17.4595 12.7955 17.6705C12.5845 17.8815 12.2984 18 12 18ZM12.75 13.4325V13.5C12.75 13.6989 12.671 13.8897 12.5303 14.0303C12.3897 14.171 12.1989 14.25 12 14.25C11.8011 14.25 11.6103 14.171 11.4697 14.0303C11.329 13.8897 11.25 13.6989 11.25 13.5V12.75C11.25 12.5511 11.329 12.3603 11.4697 12.2197C11.6103 12.079 11.8011 12 12 12C13.2403 12 14.25 11.1562 14.25 10.125C14.25 9.09375 13.2403 8.25 12 8.25C10.7597 8.25 9.75 9.09375 9.75 10.125V10.5C9.75 10.6989 9.67098 10.8897 9.53033 11.0303C9.38968 11.171 9.19891 11.25 9 11.25C8.80109 11.25 8.61032 11.171 8.46967 11.0303C8.32902 10.8897 8.25 10.6989 8.25 10.5V10.125C8.25 8.26406 9.93188 6.75 12 6.75C14.0681 6.75 15.75 8.26406 15.75 10.125C15.75 11.7544 14.46 13.1184 12.75 13.4325Z" fill="currentColor"/>
</svg>
