<svg width="24" height="24" viewBox="0 0 24 24" fill="none" xmlns="http://www.w3.org/2000/svg">
<path d="M20.25 3.75H6.42468C6.16577 3.75075 5.91143 3.81816 5.68614 3.94574C5.46085 4.07333 5.27222 4.25679 5.13843 4.47844L0.856863 11.6137C0.786781 11.7304 0.749756 11.8639 0.749756 12C0.749756 12.1361 0.786781 12.2696 0.856863 12.3862L5.13843 19.5216C5.27222 19.7432 5.46085 19.9267 5.68614 20.0543C5.91143 20.1818 6.16577 20.2493 6.42468 20.25H20.25C20.6478 20.25 21.0293 20.092 21.3106 19.8107C21.592 19.5294 21.75 19.1478 21.75 18.75V5.25C21.75 4.85218 21.592 4.47064 21.3106 4.18934C21.0293 3.90804 20.6478 3.75 20.25 3.75ZM20.25 18.75H6.42468L2.37468 12L6.42468 5.25H20.25V18.75ZM9.96936 13.7194L11.6897 12L9.96936 10.2806C9.82863 10.1399 9.74957 9.94902 9.74957 9.75C9.74957 9.55098 9.82863 9.36011 9.96936 9.21937C10.1101 9.07864 10.301 8.99958 10.5 8.99958C10.699 8.99958 10.8899 9.07864 11.0306 9.21937L12.75 10.9397L14.4694 9.21937C14.539 9.14969 14.6218 9.09442 14.7128 9.0567C14.8039 9.01899 14.9014 8.99958 15 8.99958C15.0985 8.99958 15.1961 9.01899 15.2872 9.0567C15.3782 9.09442 15.4609 9.14969 15.5306 9.21937C15.6003 9.28906 15.6556 9.37178 15.6933 9.46283C15.731 9.55387 15.7504 9.65145 15.7504 9.75C15.7504 9.84855 15.731 9.94613 15.6933 10.0372C15.6556 10.1282 15.6003 10.2109 15.5306 10.2806L13.8103 12L15.5306 13.7194C15.6003 13.7891 15.6556 13.8718 15.6933 13.9628C15.731 14.0539 15.7504 14.1515 15.7504 14.25C15.7504 14.3485 15.731 14.4461 15.6933 14.5372C15.6556 14.6282 15.6003 14.7109 15.5306 14.7806C15.4609 14.8503 15.3782 14.9056 15.2872 14.9433C15.1961 14.981 15.0985 15.0004 15 15.0004C14.9014 15.0004 14.8039 14.981 14.7128 14.9433C14.6218 14.9056 14.539 14.8503 14.4694 14.7806L12.75 13.0603L11.0306 14.7806C10.9609 14.8503 10.8782 14.9056 10.7872 14.9433C10.6961 14.981 10.5985 15.0004 10.5 15.0004C10.4014 15.0004 10.3039 14.981 10.2128 14.9433C10.1218 14.9056 10.039 14.8503 9.96936 14.7806C9.89968 14.7109 9.84441 14.6282 9.80669 14.5372C9.76898 14.4461 9.74957 14.3485 9.74957 14.25C9.74957 14.1515 9.76898 14.0539 9.80669 13.9628C9.84441 13.8718 9.89968 13.7891 9.96936 13.7194Z" fill="currentColor"/>
</svg>
