<svg width="24" height="24" viewBox="0 0 24 24" fill="none" xmlns="http://www.w3.org/2000/svg">
<path d="M12.75 7.5V11.5753L16.1363 13.6069C16.3068 13.7093 16.4297 13.8753 16.4779 14.0684C16.5261 14.2614 16.4956 14.4657 16.3931 14.6362C16.2907 14.8068 16.1247 14.9297 15.9316 14.9779C15.7386 15.0261 15.5343 14.9956 15.3638 14.8931L11.6138 12.6431C11.5028 12.5764 11.4109 12.4822 11.3472 12.3695C11.2834 12.2568 11.25 12.1295 11.25 12V7.5C11.25 7.30109 11.329 7.11032 11.4697 6.96967C11.6103 6.82902 11.8011 6.75 12 6.75C12.1989 6.75 12.3897 6.82902 12.5303 6.96967C12.671 7.11032 12.75 7.30109 12.75 7.5ZM12 3C10.8169 2.99705 9.64491 3.22878 8.55193 3.68177C7.45895 4.13477 6.46667 4.80003 5.6325 5.63906C4.95094 6.32906 4.34531 6.99281 3.75 7.6875V6C3.75 5.80109 3.67098 5.61032 3.53033 5.46967C3.38968 5.32902 3.19891 5.25 3 5.25C2.80109 5.25 2.61032 5.32902 2.46967 5.46967C2.32902 5.61032 2.25 5.80109 2.25 6V9.75C2.25 9.94891 2.32902 10.1397 2.46967 10.2803C2.61032 10.421 2.80109 10.5 3 10.5H6.75C6.94891 10.5 7.13968 10.421 7.28033 10.2803C7.42098 10.1397 7.5 9.94891 7.5 9.75C7.5 9.55109 7.42098 9.36032 7.28033 9.21967C7.13968 9.07902 6.94891 9 6.75 9H4.59375C5.26406 8.21062 5.93156 7.46719 6.69281 6.69656C7.73518 5.6542 9.0616 4.94213 10.5063 4.64932C11.9511 4.35651 13.4501 4.49594 14.816 5.0502C16.182 5.60446 17.3543 6.54896 18.1866 7.76569C19.0188 8.98242 19.474 10.4174 19.4953 11.8914C19.5166 13.3654 19.1031 14.8129 18.3064 16.0532C17.5098 17.2935 16.3652 18.2715 15.0159 18.8651C13.6665 19.4586 12.1722 19.6413 10.7196 19.3904C9.26698 19.1395 7.92052 18.4661 6.84844 17.4544C6.77679 17.3867 6.6925 17.3337 6.60039 17.2986C6.50828 17.2634 6.41015 17.2468 6.3116 17.2496C6.21305 17.2524 6.11602 17.2745 6.02604 17.3148C5.93606 17.3551 5.8549 17.4127 5.78719 17.4844C5.71947 17.556 5.66654 17.6403 5.6314 17.7324C5.59626 17.8245 5.57961 17.9227 5.5824 18.0212C5.58518 18.1198 5.60735 18.2168 5.64764 18.3068C5.68792 18.3967 5.74554 18.4779 5.81719 18.5456C6.88542 19.5537 8.18414 20.285 9.6 20.6757C11.0159 21.0664 12.5058 21.1047 13.9399 20.7872C15.3739 20.4696 16.7085 19.8059 17.827 18.854C18.9456 17.9021 19.8142 16.6909 20.357 15.3261C20.8998 13.9613 21.1003 12.4844 20.9411 11.0242C20.7818 9.56411 20.2677 8.16514 19.4434 6.94943C18.6192 5.73373 17.5099 4.73822 16.2125 4.04979C14.915 3.36137 13.4688 3.00095 12 3Z" fill="currentColor"/>
</svg>
