<svg width="24" height="24" viewBox="0 0 24 24" fill="none" xmlns="http://www.w3.org/2000/svg">
<path d="M20.0835 15.1999L21.2856 15.9212C21.5224 16.0633 21.5991 16.3704 21.4571 16.6072C21.4148 16.6776 21.356 16.7365 21.2856 16.7787L12.5146 22.0412C12.198 22.2313 11.8023 22.2313 11.4857 22.0412L2.71475 16.7787C2.47796 16.6366 2.40118 16.3295 2.54325 16.0927C2.58548 16.0223 2.64437 15.9634 2.71475 15.9212L3.91684 15.1999L12.0002 20.0499L20.0835 15.1999ZM20.0835 10.4999L21.2856 11.2212C21.5224 11.3633 21.5991 11.6704 21.4571 11.9072C21.4148 11.9776 21.356 12.0365 21.2856 12.0787L12.0002 17.6499L2.71475 12.0787C2.47796 11.9366 2.40118 11.6295 2.54325 11.3927C2.58548 11.3223 2.64437 11.2634 2.71475 11.2212L3.91684 10.4999L12.0002 15.3499L20.0835 10.4999ZM12.5146 1.30864L21.2856 6.5712C21.5224 6.71327 21.5991 7.0204 21.4571 7.25719C21.4148 7.32757 21.356 7.38647 21.2856 7.42869L12.0002 12.9999L2.71475 7.42869C2.47796 7.28662 2.40118 6.97949 2.54325 6.7427C2.58548 6.67232 2.64437 6.61343 2.71475 6.5712L11.4857 1.30864C11.8023 1.11864 12.198 1.11864 12.5146 1.30864ZM12.0002 3.33233L5.88747 6.99995L12.0002 10.6676L18.1129 6.99995L12.0002 3.33233Z" fill="#141614"/>
</svg>
