<svg width="24" height="24" viewBox="0 0 24 24" fill="none" xmlns="http://www.w3.org/2000/svg">
<path d="M10.5 11.25C10.5 11.5467 10.412 11.8367 10.2472 12.0834C10.0824 12.33 9.84811 12.5223 9.57403 12.6358C9.29994 12.7494 8.99834 12.7791 8.70736 12.7212C8.41639 12.6633 8.14912 12.5204 7.93934 12.3107C7.72956 12.1009 7.5867 11.8336 7.52882 11.5426C7.47094 11.2517 7.50065 10.9501 7.61418 10.676C7.72771 10.4019 7.91997 10.1676 8.16665 10.0028C8.41332 9.83797 8.70333 9.75 9 9.75C9.39782 9.75 9.77936 9.90804 10.0607 10.1893C10.342 10.4706 10.5 10.8522 10.5 11.25ZM21.75 5.25V18.75C21.75 19.1478 21.592 19.5294 21.3107 19.8107C21.0294 20.092 20.6478 20.25 20.25 20.25H3.75C3.35218 20.25 2.97064 20.092 2.68934 19.8107C2.40804 19.5294 2.25 19.1478 2.25 18.75V5.25C2.25 4.85218 2.40804 4.47064 2.68934 4.18934C2.97064 3.90804 3.35218 3.75 3.75 3.75H20.25C20.6478 3.75 21.0294 3.90804 21.3107 4.18934C21.592 4.47064 21.75 4.85218 21.75 5.25ZM12.7266 15.5625C12.4839 14.6563 11.9084 13.875 11.115 13.3744C11.5363 12.9555 11.8238 12.421 11.941 11.8386C12.0582 11.2562 11.9999 10.652 11.7733 10.1028C11.5468 9.55361 11.1623 9.08402 10.6686 8.75358C10.1748 8.42315 9.5941 8.24675 9 8.24675C8.4059 8.24675 7.82517 8.42315 7.33143 8.75358C6.8377 9.08402 6.45319 9.55361 6.22666 10.1028C6.00012 10.652 5.94175 11.2562 6.05896 11.8386C6.17616 12.421 6.46366 12.9555 6.885 13.3744C6.09211 13.8755 5.51681 14.6566 5.27344 15.5625C5.22371 15.7552 5.25257 15.9598 5.35366 16.1312C5.45475 16.3026 5.6198 16.4268 5.8125 16.4766C6.0052 16.5263 6.20975 16.4974 6.38118 16.3963C6.55259 16.2952 6.67683 16.1302 6.72656 15.9375C6.97406 14.9766 7.95094 14.25 9 14.25C10.0491 14.25 11.0269 14.9747 11.2734 15.9375C11.3232 16.1302 11.4474 16.2952 11.6188 16.3963C11.7902 16.4974 11.9948 16.5263 12.1875 16.4766C12.3802 16.4268 12.5452 16.3026 12.6463 16.1312C12.7474 15.9598 12.7763 15.7552 12.7266 15.5625ZM18.75 13.5C18.75 13.3011 18.671 13.1103 18.5303 12.9697C18.3897 12.829 18.1989 12.75 18 12.75H14.25C14.0511 12.75 13.8603 12.829 13.7197 12.9697C13.579 13.1103 13.5 13.3011 13.5 13.5C13.5 13.6989 13.579 13.8897 13.7197 14.0303C13.8603 14.171 14.0511 14.25 14.25 14.25H18C18.1989 14.25 18.3897 14.171 18.5303 14.0303C18.671 13.8897 18.75 13.6989 18.75 13.5ZM18.75 10.5C18.75 10.3011 18.671 10.1103 18.5303 9.96967C18.3897 9.82902 18.1989 9.75 18 9.75H14.25C14.0511 9.75 13.8603 9.82902 13.7197 9.96967C13.579 10.1103 13.5 10.3011 13.5 10.5C13.5 10.6989 13.579 10.8897 13.7197 11.0303C13.8603 11.171 14.0511 11.25 14.25 11.25H18C18.1989 11.25 18.3897 11.171 18.5303 11.0303C18.671 10.8897 18.75 10.6989 18.75 10.5Z" fill="currentColor"/>
</svg>
