<svg width="24" height="24" viewBox="0 0 24 24" fill="none" xmlns="http://www.w3.org/2000/svg">
<path d="M19.5 7.5H16.5V5.25C16.5 4.05653 16.0259 2.91193 15.182 2.06802C14.3381 1.22411 13.1935 0.75 12 0.75C10.8065 0.75 9.66193 1.22411 8.81802 2.06802C7.97411 2.91193 7.5 4.05653 7.5 5.25V7.5H4.5C4.10218 7.5 3.72064 7.65804 3.43934 7.93934C3.15804 8.22064 3 8.60218 3 9V19.5C3 19.8978 3.15804 20.2794 3.43934 20.5607C3.72064 20.842 4.10218 21 4.5 21H19.5C19.8978 21 20.2794 20.842 20.5607 20.5607C20.842 20.2794 21 19.8978 21 19.5V9C21 8.60218 20.842 8.22064 20.5607 7.93934C20.2794 7.65804 19.8978 7.5 19.5 7.5ZM12 15.375C11.7775 15.375 11.56 15.309 11.375 15.1854C11.19 15.0618 11.0458 14.8861 10.9606 14.6805C10.8755 14.475 10.8532 14.2488 10.8966 14.0305C10.94 13.8123 11.0472 13.6118 11.2045 13.4545C11.3618 13.2972 11.5623 13.19 11.7805 13.1466C11.9988 13.1032 12.225 13.1255 12.4305 13.2106C12.6361 13.2958 12.8118 13.44 12.9354 13.625C13.059 13.81 13.125 14.0275 13.125 14.25C13.125 14.5484 13.0065 14.8345 12.7955 15.0455C12.5845 15.2565 12.2984 15.375 12 15.375ZM15 7.5H9V5.25C9 4.45435 9.31607 3.69129 9.87868 3.12868C10.4413 2.56607 11.2044 2.25 12 2.25C12.7956 2.25 13.5587 2.56607 14.1213 3.12868C14.6839 3.69129 15 4.45435 15 5.25V7.5Z" fill="currentColor"/>
</svg>
