<svg width="24" height="24" viewBox="0 0 24 24" fill="none" xmlns="http://www.w3.org/2000/svg">
<path d="M18.8222 5.05219C17.0069 3.25461 14.5547 2.24738 12 2.25H11.8997C9.33125 2.27643 6.87699 3.31531 5.07015 5.14093C3.26331 6.96656 2.24986 9.43143 2.25 12C2.25 16.0312 4.74187 19.4119 8.7525 20.8284C9.20485 20.9879 9.68885 21.0366 10.1639 20.9704C10.639 20.9043 11.0912 20.7251 11.4828 20.4481C11.8743 20.1711 12.1937 19.8042 12.4142 19.3782C12.6347 18.9523 12.7499 18.4796 12.75 18C12.75 17.6022 12.908 17.2206 13.1893 16.9393C13.4706 16.658 13.8522 16.5 14.25 16.5H18.5822C19.2627 16.5033 19.9239 16.2737 20.4559 15.8495C20.988 15.4252 21.3589 14.8317 21.5072 14.1675C21.6748 13.4294 21.7563 12.6744 21.75 11.9175C21.7404 10.6364 21.4767 9.36988 20.9742 8.1914C20.4716 7.01293 19.7401 5.94591 18.8222 5.05219ZM20.0409 13.8375C19.9664 14.1684 19.7813 14.4639 19.516 14.6753C19.2508 14.8867 18.9214 15.0012 18.5822 15H14.25C13.4543 15 12.6913 15.3161 12.1287 15.8787C11.5661 16.4413 11.25 17.2044 11.25 18C11.2497 18.2396 11.1919 18.4756 11.0816 18.6883C10.9713 18.901 10.8117 19.0842 10.6161 19.2225C10.4205 19.3609 10.1946 19.4503 9.95726 19.4834C9.71997 19.5165 9.4782 19.4923 9.25219 19.4128C5.85844 18.2156 3.75 15.375 3.75 12C3.74988 9.82667 4.60736 7.74107 6.13613 6.19633C7.6649 4.65158 9.74147 3.77247 11.9147 3.75H11.9991C14.1724 3.75844 16.2553 4.62073 17.7986 6.15091C19.3419 7.68108 20.222 9.75654 20.2491 11.9297C20.2546 12.5714 20.1861 13.2116 20.0447 13.8375H20.0409ZM13.125 7.125C13.125 7.3475 13.059 7.56501 12.9354 7.75002C12.8118 7.93502 12.6361 8.07922 12.4305 8.16436C12.225 8.24951 11.9988 8.27179 11.7805 8.22838C11.5623 8.18498 11.3618 8.07783 11.2045 7.9205C11.0472 7.76316 10.94 7.56271 10.8966 7.34448C10.8532 7.12625 10.8755 6.90005 10.9606 6.69448C11.0458 6.48891 11.19 6.31321 11.375 6.1896C11.56 6.06598 11.7775 6 12 6C12.2984 6 12.5845 6.11853 12.7955 6.3295C13.0065 6.54048 13.125 6.82663 13.125 7.125ZM9 9.375C9 9.5975 8.93402 9.81501 8.8104 10C8.68679 10.185 8.51109 10.3292 8.30552 10.4144C8.09995 10.4995 7.87375 10.5218 7.65552 10.4784C7.43729 10.435 7.23684 10.3278 7.0795 10.1705C6.92217 10.0132 6.81502 9.81271 6.77162 9.59448C6.72821 9.37625 6.75049 9.15005 6.83564 8.94448C6.92078 8.73891 7.06498 8.56321 7.24998 8.4396C7.43499 8.31598 7.6525 8.25 7.875 8.25C8.17337 8.25 8.45952 8.36853 8.67049 8.5795C8.88147 8.79048 9 9.07663 9 9.375ZM9 14.625C9 14.8475 8.93402 15.065 8.8104 15.25C8.68679 15.435 8.51109 15.5792 8.30552 15.6644C8.09995 15.7495 7.87375 15.7718 7.65552 15.7284C7.43729 15.685 7.23684 15.5778 7.0795 15.4205C6.92217 15.2632 6.81502 15.0627 6.77162 14.8445C6.72821 14.6262 6.75049 14.4 6.83564 14.1945C6.92078 13.9889 7.06498 13.8132 7.24998 13.6896C7.43499 13.566 7.6525 13.5 7.875 13.5C8.17337 13.5 8.45952 13.6185 8.67049 13.8295C8.88147 14.0405 9 14.3266 9 14.625ZM17.25 9.375C17.25 9.5975 17.184 9.81501 17.0604 10C16.9368 10.185 16.7611 10.3292 16.5555 10.4144C16.3499 10.4995 16.1238 10.5218 15.9055 10.4784C15.6873 10.435 15.4868 10.3278 15.3295 10.1705C15.1722 10.0132 15.065 9.81271 15.0216 9.59448C14.9782 9.37625 15.0005 9.15005 15.0856 8.94448C15.1708 8.73891 15.315 8.56321 15.5 8.4396C15.685 8.31598 15.9025 8.25 16.125 8.25C16.4234 8.25 16.7095 8.36853 16.9205 8.5795C17.1315 8.79048 17.25 9.07663 17.25 9.375Z" fill="currentColor"/>
</svg>
