<svg width="24" height="24" viewBox="0 0 24 24" fill="none" xmlns="http://www.w3.org/2000/svg">
<path d="M19.5 4.5H4.5C3.90326 4.5 3.33097 4.73705 2.90901 5.15901C2.48705 5.58097 2.25 6.15326 2.25 6.75V17.25C2.25 17.8467 2.48705 18.419 2.90901 18.841C3.33097 19.2629 3.90326 19.5 4.5 19.5H19.5C20.0967 19.5 20.669 19.2629 21.091 18.841C21.5129 18.419 21.75 17.8467 21.75 17.25V6.75C21.75 6.15326 21.5129 5.58097 21.091 5.15901C20.669 4.73705 20.0967 4.5 19.5 4.5ZM14.205 11.7009C14.0999 12.2076 13.8235 12.6625 13.4222 12.9891C13.0209 13.3157 12.5193 13.4941 12.0019 13.4941C11.4845 13.4941 10.9829 13.3157 10.5816 12.9891C10.1803 12.6625 9.90381 12.2076 9.79875 11.7009C9.72968 11.3615 9.54526 11.0564 9.27679 10.8375C9.00831 10.6186 8.67235 10.4993 8.32594 10.5H3.75V9H20.25V10.5H15.6741C15.3283 10.5002 14.9932 10.6198 14.7255 10.8387C14.4578 11.0575 14.2739 11.3621 14.205 11.7009ZM4.5 6H19.5C19.6989 6 19.8897 6.07902 20.0303 6.21967C20.171 6.36032 20.25 6.55109 20.25 6.75V7.5H3.75V6.75C3.75 6.55109 3.82902 6.36032 3.96967 6.21967C4.11032 6.07902 4.30109 6 4.5 6Z" fill="currentColor"/>
</svg>
