<svg width="24" height="24" viewBox="0 0 24 24" fill="none" xmlns="http://www.w3.org/2000/svg">
<path d="M13.625 12.125C13.625 12.3475 13.559 12.565 13.4354 12.75C13.3118 12.935 13.1361 13.0792 12.9305 13.1644C12.725 13.2495 12.4988 13.2718 12.2805 13.2284C12.0623 13.185 11.8618 13.0778 11.7045 12.9205C11.5472 12.7632 11.44 12.5627 11.3966 12.3445C11.3532 12.1262 11.3755 11.9 11.4606 11.6945C11.5458 11.4889 11.69 11.3132 11.875 11.1896C12.06 11.066 12.2775 11 12.5 11C12.7984 11 13.0845 11.1185 13.2955 11.3295C13.5065 11.5405 13.625 11.8266 13.625 12.125ZM18.875 11C18.6525 11 18.435 11.066 18.25 11.1896C18.065 11.3132 17.9208 11.4889 17.8356 11.6945C17.7505 11.9 17.7282 12.1262 17.7716 12.3445C17.815 12.5627 17.9222 12.7632 18.0795 12.9205C18.2368 13.0778 18.4373 13.185 18.6555 13.2284C18.8738 13.2718 19.1 13.2495 19.3055 13.1644C19.5111 13.0792 19.6868 12.935 19.8104 12.75C19.934 12.565 20 12.3475 20 12.125C20 11.8266 19.8815 11.5405 19.6705 11.3295C19.4595 11.1185 19.1734 11 18.875 11ZM6.125 11C5.9025 11 5.68499 11.066 5.49998 11.1896C5.31498 11.3132 5.17078 11.4889 5.08564 11.6945C5.00049 11.9 4.97821 12.1262 5.02162 12.3445C5.06503 12.5627 5.17217 12.7632 5.32951 12.9205C5.48684 13.0778 5.6873 13.185 5.90552 13.2284C6.12375 13.2718 6.34995 13.2495 6.55552 13.1644C6.76109 13.0792 6.93679 12.935 7.0604 12.75C7.18402 12.565 7.25 12.3475 7.25 12.125C7.25 11.8266 7.13147 11.5405 6.9205 11.3295C6.70952 11.1185 6.42337 11 6.125 11Z" fill="currentColor"/>
</svg>
