<svg width="24" height="24" viewBox="0 0 24 24" fill="none" xmlns="http://www.w3.org/2000/svg">
<path d="M21 4.5V7.125C21 7.32391 20.921 7.51468 20.7803 7.65533C20.6397 7.79598 20.4489 7.875 20.25 7.875C20.0511 7.875 19.8603 7.79598 19.7197 7.65533C19.579 7.51468 19.5 7.32391 19.5 7.125V4.5H16.875C16.6761 4.5 16.4853 4.42098 16.3447 4.28033C16.204 4.13968 16.125 3.94891 16.125 3.75C16.125 3.55109 16.204 3.36032 16.3447 3.21967C16.4853 3.07902 16.6761 3 16.875 3H19.5C19.8978 3 20.2794 3.15804 20.5607 3.43934C20.842 3.72064 21 4.10218 21 4.5ZM20.25 16.125C20.0511 16.125 19.8603 16.204 19.7197 16.3447C19.579 16.4853 19.5 16.6761 19.5 16.875V19.5H16.875C16.6761 19.5 16.4853 19.579 16.3447 19.7197C16.204 19.8603 16.125 20.0511 16.125 20.25C16.125 20.4489 16.204 20.6397 16.3447 20.7803C16.4853 20.921 16.6761 21 16.875 21H19.5C19.8978 21 20.2794 20.842 20.5607 20.5607C20.842 20.2794 21 19.8978 21 19.5V16.875C21 16.6761 20.921 16.4853 20.7803 16.3447C20.6397 16.204 20.4489 16.125 20.25 16.125ZM7.125 19.5H4.5V16.875C4.5 16.6761 4.42098 16.4853 4.28033 16.3447C4.13968 16.204 3.94891 16.125 3.75 16.125C3.55109 16.125 3.36032 16.204 3.21967 16.3447C3.07902 16.4853 3 16.6761 3 16.875V19.5C3 19.8978 3.15804 20.2794 3.43934 20.5607C3.72064 20.842 4.10218 21 4.5 21H7.125C7.32391 21 7.51468 20.921 7.65533 20.7803C7.79598 20.6397 7.875 20.4489 7.875 20.25C7.875 20.0511 7.79598 19.8603 7.65533 19.7197C7.51468 19.579 7.32391 19.5 7.125 19.5ZM3.75 7.875C3.94891 7.875 4.13968 7.79598 4.28033 7.65533C4.42098 7.51468 4.5 7.32391 4.5 7.125V4.5H7.125C7.32391 4.5 7.51468 4.42098 7.65533 4.28033C7.79598 4.13968 7.875 3.94891 7.875 3.75C7.875 3.55109 7.79598 3.36032 7.65533 3.21967C7.51468 3.07902 7.32391 3 7.125 3H4.5C4.10218 3 3.72064 3.15804 3.43934 3.43934C3.15804 3.72064 3 4.10218 3 4.5V7.125C3 7.32391 3.07902 7.51468 3.21967 7.65533C3.36032 7.79598 3.55109 7.875 3.75 7.875ZM16.5 16.5C16.3835 16.5003 16.2685 16.4734 16.1642 16.4214C16.0599 16.3695 15.9691 16.294 15.8991 16.2009C15.445 15.5955 14.8561 15.1041 14.1792 14.7656C13.5023 14.4271 12.7559 14.2509 11.9991 14.2509C11.2422 14.2509 10.4958 14.4271 9.8189 14.7656C9.14198 15.1041 8.55315 15.5955 8.09906 16.2009C7.97947 16.3601 7.80156 16.4652 7.60447 16.4931C7.40738 16.5211 7.20725 16.4696 7.04813 16.35C6.889 16.2304 6.78389 16.0525 6.75594 15.8554C6.72798 15.6583 6.77947 15.4582 6.89906 15.2991C7.56374 14.4091 8.44961 13.7084 9.46875 13.2666C8.91029 12.7567 8.51903 12.0899 8.34631 11.3537C8.17359 10.6175 8.22749 9.84624 8.50093 9.14121C8.77436 8.43617 9.25456 7.83028 9.87851 7.40304C10.5025 6.9758 11.241 6.74718 11.9972 6.74718C12.7534 6.74718 13.4919 6.9758 14.1159 7.40304C14.7398 7.83028 15.22 8.43617 15.4934 9.14121C15.7669 9.84624 15.8208 10.6175 15.6481 11.3537C15.4753 12.0899 15.0841 12.7567 14.5256 13.2666C15.5454 13.7081 16.432 14.4088 17.0972 15.2991C17.1809 15.4103 17.232 15.5426 17.2447 15.6812C17.2575 15.8199 17.2314 15.9593 17.1694 16.0839C17.1075 16.2086 17.012 16.3135 16.8938 16.387C16.7756 16.4605 16.6392 16.4996 16.5 16.5ZM12 12.75C12.445 12.75 12.88 12.618 13.25 12.3708C13.62 12.1236 13.9084 11.7722 14.0787 11.361C14.249 10.9499 14.2936 10.4975 14.2068 10.061C14.12 9.62459 13.9057 9.22368 13.591 8.90901C13.2763 8.59434 12.8754 8.38005 12.439 8.29323C12.0025 8.20642 11.5501 8.25097 11.139 8.42127C10.7278 8.59157 10.3764 8.87996 10.1292 9.24997C9.88196 9.61998 9.75 10.055 9.75 10.5C9.75 11.0967 9.98705 11.669 10.409 12.091C10.831 12.5129 11.4033 12.75 12 12.75Z" fill="currentColor"/>
</svg>
