<svg width="24" height="24" viewBox="0 0 24 24" fill="none" xmlns="http://www.w3.org/2000/svg">
<path d="M23.2499 12C23.25 13.0384 22.9422 14.0535 22.3653 14.9169C21.7884 15.7804 20.9684 16.4533 20.0091 16.8507C19.0497 17.2481 17.9941 17.3521 16.9756 17.1495C15.9572 16.9469 15.0217 16.4468 14.2874 15.7125L14.2565 15.6797L8.63619 9.33281C8.11001 8.81278 7.44176 8.45999 6.71554 8.31887C5.98933 8.17774 5.23759 8.25457 4.55493 8.53968C3.87228 8.8248 3.28921 9.30547 2.8791 9.9212C2.46899 10.5369 2.25017 11.2602 2.25017 12C2.25017 12.7398 2.46899 13.4631 2.8791 14.0788C3.28921 14.6945 3.87228 15.1752 4.55493 15.4603C5.23759 15.7454 5.98933 15.8223 6.71554 15.6811C7.44176 15.54 8.11001 15.1872 8.63619 14.6672L9.43494 13.7653C9.50026 13.6914 9.57948 13.6312 9.66809 13.5879C9.7567 13.5447 9.85296 13.5193 9.95137 13.5132C10.0498 13.5072 10.1484 13.5206 10.2417 13.5526C10.3349 13.5847 10.4209 13.6348 10.4948 13.7002C10.5687 13.7655 10.6289 13.8447 10.6722 13.9333C10.7154 14.0219 10.7408 14.1182 10.7469 14.2166C10.7529 14.315 10.7395 14.4136 10.7075 14.5069C10.6754 14.6001 10.6253 14.6861 10.5599 14.76L9.74526 15.6797L9.71432 15.7125C8.98007 16.4467 8.04461 16.9466 7.02622 17.1492C6.00784 17.3517 4.95227 17.2477 3.99299 16.8503C3.0337 16.4529 2.2138 15.78 1.63694 14.9167C1.06009 14.0533 0.752197 13.0383 0.752197 12C0.752197 10.9617 1.06009 9.94666 1.63694 9.08331C2.2138 8.21997 3.0337 7.54706 3.99299 7.14968C4.95227 6.75231 6.00784 6.64831 7.02622 6.85084C8.04461 7.05337 8.98007 7.55333 9.71432 8.2875L9.74526 8.32031L15.3656 14.6672C15.8918 15.1872 16.56 15.54 17.2862 15.6811C18.0124 15.8223 18.7642 15.7454 19.4468 15.4603C20.1295 15.1752 20.7125 14.6945 21.1227 14.0788C21.5328 13.4631 21.7516 12.7398 21.7516 12C21.7516 11.2602 21.5328 10.5369 21.1227 9.9212C20.7125 9.30547 20.1295 8.8248 19.4468 8.53968C18.7642 8.25457 18.0124 8.17774 17.2862 8.31887C16.56 8.45999 15.8918 8.81278 15.3656 9.33281L14.5668 10.2347C14.4349 10.3839 14.2492 10.4745 14.0504 10.4868C13.8516 10.499 13.6562 10.4317 13.507 10.2998C13.3578 10.1679 13.2671 9.98218 13.2549 9.78342C13.2427 9.58466 13.3099 9.38918 13.4418 9.24L14.2565 8.32031L14.2874 8.2875C15.0217 7.5532 15.9572 7.05312 16.9756 6.85052C17.9941 6.64792 19.0497 6.75188 20.0091 7.14927C20.9684 7.54667 21.7884 8.21963 22.3653 9.08306C22.9422 9.94649 23.25 10.9616 23.2499 12Z" fill="currentColor"/>
</svg>
