<svg width="24" height="24" viewBox="0 0 24 24" fill="none" xmlns="http://www.w3.org/2000/svg">
<path d="M21 4.5V14.25C21 14.6478 20.842 15.0294 20.5607 15.3107C20.2794 15.592 19.8978 15.75 19.5 15.75H9.31031L10.2806 16.7194C10.3503 16.7891 10.4056 16.8718 10.4433 16.9628C10.481 17.0539 10.5004 17.1515 10.5004 17.25C10.5004 17.3485 10.481 17.4461 10.4433 17.5372C10.4056 17.6282 10.3503 17.7109 10.2806 17.7806C10.2109 17.8503 10.1282 17.9056 10.0372 17.9433C9.94613 17.981 9.84855 18.0004 9.75 18.0004C9.65145 18.0004 9.55387 17.981 9.46283 17.9433C9.37178 17.9056 9.28906 17.8503 9.21937 17.7806L6.96937 15.5306C6.89964 15.461 6.84432 15.3783 6.80658 15.2872C6.76884 15.1962 6.74941 15.0986 6.74941 15C6.74941 14.9014 6.76884 14.8038 6.80658 14.7128C6.84432 14.6217 6.89964 14.539 6.96937 14.4694L9.21937 12.2194C9.36011 12.0786 9.55098 11.9996 9.75 11.9996C9.94902 11.9996 10.1399 12.0786 10.2806 12.2194C10.4214 12.3601 10.5004 12.551 10.5004 12.75C10.5004 12.949 10.4214 13.1399 10.2806 13.2806L9.31031 14.25H19.5V4.5H9V5.25C9 5.44891 8.92098 5.63968 8.78033 5.78033C8.63968 5.92098 8.44891 6 8.25 6C8.05109 6 7.86032 5.92098 7.71967 5.78033C7.57902 5.63968 7.5 5.44891 7.5 5.25V4.5C7.5 4.10218 7.65804 3.72064 7.93934 3.43934C8.22064 3.15804 8.60218 3 9 3H19.5C19.8978 3 20.2794 3.15804 20.5607 3.43934C20.842 3.72064 21 4.10218 21 4.5ZM15.75 18C15.5511 18 15.3603 18.079 15.2197 18.2197C15.079 18.3603 15 18.5511 15 18.75V19.5H4.5V9.75H14.6897L13.7194 10.7194C13.5786 10.8601 13.4996 11.051 13.4996 11.25C13.4996 11.449 13.5786 11.6399 13.7194 11.7806C13.8601 11.9214 14.051 12.0004 14.25 12.0004C14.449 12.0004 14.6399 11.9214 14.7806 11.7806L17.0306 9.53063C17.1004 9.46097 17.1557 9.37825 17.1934 9.28721C17.2312 9.19616 17.2506 9.09856 17.2506 9C17.2506 8.90144 17.2312 8.80384 17.1934 8.71279C17.1557 8.62175 17.1004 8.53903 17.0306 8.46937L14.7806 6.21937C14.6399 6.07864 14.449 5.99958 14.25 5.99958C14.051 5.99958 13.8601 6.07864 13.7194 6.21937C13.5786 6.36011 13.4996 6.55098 13.4996 6.75C13.4996 6.94902 13.5786 7.13989 13.7194 7.28063L14.6897 8.25H4.5C4.10218 8.25 3.72064 8.40804 3.43934 8.68934C3.15804 8.97064 3 9.35218 3 9.75V19.5C3 19.8978 3.15804 20.2794 3.43934 20.5607C3.72064 20.842 4.10218 21 4.5 21H15C15.3978 21 15.7794 20.842 16.0607 20.5607C16.342 20.2794 16.5 19.8978 16.5 19.5V18.75C16.5 18.5511 16.421 18.3603 16.2803 18.2197C16.1397 18.079 15.9489 18 15.75 18Z" fill="currentColor"/>
</svg>
