<svg width="24" height="24" viewBox="0 0 24 24" fill="none" xmlns="http://www.w3.org/2000/svg">
<path d="M22.5001 12C22.5007 12.2547 22.4354 12.5051 22.3105 12.7271C22.1857 12.949 22.0055 13.1349 21.7876 13.2666L8.28006 21.5297C8.05233 21.6691 7.7915 21.7453 7.52451 21.7502C7.25752 21.7552 6.99405 21.6887 6.76131 21.5578C6.53079 21.4289 6.33876 21.241 6.20496 21.0133C6.07117 20.7855 6.00045 20.5263 6.00006 20.2622V3.73782C6.00045 3.47371 6.07117 3.21448 6.20496 2.98676C6.33876 2.75905 6.53079 2.57109 6.76131 2.4422C6.99405 2.31127 7.25752 2.24486 7.52451 2.2498C7.7915 2.25474 8.05233 2.33087 8.28006 2.47032L21.7876 10.7334C22.0055 10.8651 22.1857 11.051 22.3105 11.2729C22.4354 11.4949 22.5007 11.7454 22.5001 12Z" fill="black"/>
</svg>
