<svg width="24" height="24" viewBox="0 0 24 24" fill="none" xmlns="http://www.w3.org/2000/svg">
<path d="M22.2806 9.97031L14.7806 2.47031C14.6757 2.36536 14.5421 2.29385 14.3967 2.26484C14.2512 2.23582 14.1004 2.25059 13.9633 2.30729C13.8262 2.36399 13.709 2.46006 13.6265 2.58337C13.5441 2.70667 13.5 2.85166 13.4999 3V6.78281C11.0681 6.99094 8.38213 8.18156 6.17244 10.0556C3.51182 12.3131 1.85526 15.2222 1.50744 18.2466C1.48026 18.4817 1.52794 18.7194 1.64368 18.9259C1.75943 19.1323 1.93735 19.297 2.15212 19.3965C2.36689 19.496 2.60757 19.5252 2.83991 19.48C3.07225 19.4348 3.28441 19.3175 3.44619 19.1447C4.47744 18.0469 8.14682 14.5753 13.4999 14.2697V18C13.5 18.1483 13.5441 18.2933 13.6265 18.4166C13.709 18.5399 13.8262 18.636 13.9633 18.6927C14.1004 18.7494 14.2512 18.7642 14.3967 18.7352C14.5421 18.7061 14.6757 18.6346 14.7806 18.5297L22.2806 11.0297C22.4208 10.8891 22.4996 10.6986 22.4996 10.5C22.4996 10.3014 22.4208 10.1109 22.2806 9.97031ZM14.9999 16.1897V13.5C14.9999 13.3011 14.9209 13.1103 14.7803 12.9697C14.6396 12.829 14.4489 12.75 14.2499 12.75C11.6174 12.75 9.05338 13.4372 6.629 14.7937C5.39427 15.4877 4.24383 16.322 3.20057 17.28C3.74432 15.045 5.11494 12.9197 7.14276 11.1994C9.31963 9.35344 11.9765 8.25 14.2499 8.25C14.4489 8.25 14.6396 8.17098 14.7803 8.03033C14.9209 7.88968 14.9999 7.69891 14.9999 7.5V4.81125L20.6896 10.5L14.9999 16.1897Z" fill="currentColor"/>
</svg>
