<svg width="24" height="24" viewBox="0 0 24 24" fill="none" xmlns="http://www.w3.org/2000/svg">
<path d="M21.7499 19.5C21.7499 19.6989 21.6709 19.8897 21.5303 20.0303C21.3896 20.171 21.1989 20.25 20.9999 20.25H2.99994C2.80103 20.25 2.61026 20.171 2.46961 20.0303C2.32896 19.8897 2.24994 19.6989 2.24994 19.5C2.24994 19.3011 2.32896 19.1103 2.46961 18.9697C2.61026 18.829 2.80103 18.75 2.99994 18.75H3.74994V12.75C3.74994 12.5511 3.82896 12.3603 3.96961 12.2197C4.11026 12.079 4.30103 12 4.49994 12H6.74994C6.94885 12 7.13962 12.079 7.28027 12.2197C7.42092 12.3603 7.49994 12.5511 7.49994 12.75V18.75H8.99994V8.25C8.99994 8.05109 9.07896 7.86032 9.21961 7.71967C9.36026 7.57902 9.55103 7.5 9.74994 7.5H12.7499C12.9489 7.5 13.1396 7.57902 13.2803 7.71967C13.4209 7.86032 13.4999 8.05109 13.4999 8.25V18.75H14.9999V3.75C14.9999 3.55109 15.079 3.36032 15.2196 3.21967C15.3603 3.07902 15.551 3 15.7499 3H19.4999C19.6989 3 19.8896 3.07902 20.0303 3.21967C20.1709 3.36032 20.2499 3.55109 20.2499 3.75V18.75H20.9999C21.1989 18.75 21.3896 18.829 21.5303 18.9697C21.6709 19.1103 21.7499 19.3011 21.7499 19.5Z" fill="currentColor"/>
</svg>
