<svg viewBox="0 0 20 20" fill="none" xmlns="http://www.w3.org/2000/svg">
<path d="M16.875 3.75H3.12502C2.7935 3.75 2.47556 3.8817 2.24114 4.11612C2.00672 4.35054 1.87502 4.66848 1.87502 5V17.5C1.87358 17.7384 1.94101 17.9721 2.06921 18.173C2.19741 18.374 2.38092 18.5336 2.59768 18.6328C2.76286 18.7097 2.94281 18.7497 3.12502 18.75C3.41846 18.7493 3.70217 18.6447 3.9258 18.4547L3.93284 18.4492L6.4844 16.25H16.875C17.2065 16.25 17.5245 16.1183 17.7589 15.8839C17.9933 15.6495 18.125 15.3315 18.125 15V5C18.125 4.66848 17.9933 4.35054 17.7589 4.11612C17.5245 3.8817 17.2065 3.75 16.875 3.75ZM16.875 15H6.25002C6.09995 15.0001 5.95492 15.0542 5.84143 15.1523L3.12502 17.5V5H16.875V15Z" fill="#000000"/>
</svg>
