<svg width="24" height="24" viewBox="0 0 24 24" fill="none" xmlns="http://www.w3.org/2000/svg">
<path d="M21.0001 18.75H20.2501V3.75C20.2501 3.55109 20.171 3.36032 20.0304 3.21967C19.8897 3.07902 19.699 3 19.5001 3H14.2501C14.0511 3 13.8604 3.07902 13.7197 3.21967C13.5791 3.36032 13.5001 3.55109 13.5001 3.75V7.5H9.00006C8.80115 7.5 8.61038 7.57902 8.46973 7.71967C8.32908 7.86032 8.25006 8.05109 8.25006 8.25V12H4.50006C4.30115 12 4.11038 12.079 3.96973 12.2197C3.82908 12.3603 3.75006 12.5511 3.75006 12.75V18.75H3.00006C2.80115 18.75 2.61038 18.829 2.46973 18.9697C2.32908 19.1103 2.25006 19.3011 2.25006 19.5C2.25006 19.6989 2.32908 19.8897 2.46973 20.0303C2.61038 20.171 2.80115 20.25 3.00006 20.25H21.0001C21.199 20.25 21.3897 20.171 21.5304 20.0303C21.671 19.8897 21.7501 19.6989 21.7501 19.5C21.7501 19.3011 21.671 19.1103 21.5304 18.9697C21.3897 18.829 21.199 18.75 21.0001 18.75ZM15.0001 4.5H18.7501V18.75H15.0001V4.5ZM9.75006 9H13.5001V18.75H9.75006V9ZM5.25006 13.5H8.25006V18.75H5.25006V13.5Z" fill="currentColor"/>
</svg>
