<svg width="16" height="16" viewBox="0 0 16 16" fill="none" xmlns="http://www.w3.org/2000/svg">
<path d="M8.80859 15.4287C8.6871 15.7709 8.36309 15.9996 8 16C7.6369 15.9996 7.31287 15.7709 7.19141 15.4287H8.80859ZM9.42871 14.5713C9.42849 14.729 9.3003 14.8572 9.14258 14.8574H6.85742C6.6997 14.8572 6.57151 14.729 6.57129 14.5713V13.7148H9.42871V14.5713ZM3.17773 12.0146C3.32191 11.8699 3.53211 11.8126 3.72949 11.8652C3.92699 11.918 4.08198 12.073 4.13477 12.2705C4.18736 12.4679 4.13005 12.6781 3.98535 12.8223L2.97559 13.833C2.74952 14.0489 2.39302 14.0489 2.16699 13.833C2.05984 13.7259 2.00003 13.5802 2 13.4287C2 13.2772 2.05989 13.1315 2.16699 13.0244L3.17773 12.0146ZM12.2705 11.8652C12.4679 11.8127 12.6781 11.8699 12.8223 12.0146L13.833 13.0244C13.9401 13.1316 14 13.2772 14 13.4287C13.9999 13.5802 13.9401 13.7259 13.833 13.833C13.607 14.0489 13.2505 14.0488 13.0244 13.833L12.0146 12.8223C11.8699 12.6781 11.8127 12.4679 11.8652 12.2705C11.918 12.073 12.073 11.918 12.2705 11.8652ZM7.99512 4.28516C8.14249 4.2852 8.29012 4.29384 8.43652 4.31055C10.0315 4.5021 11.3113 5.69091 11.6367 7.24023L11.6885 7.55469C11.829 8.70791 11.42 9.86034 10.584 10.667C10.0305 11.2035 9.71646 11.9411 9.71387 12.7119V13.1426H6.28613V12.7139C6.27685 11.9282 5.95128 11.1792 5.38379 10.6357C4.3166 9.5764 3.99362 7.97763 4.56543 6.58691C5.1373 5.19633 6.49152 4.28747 7.99512 4.28516ZM2 7.42871C2.31559 7.42871 2.57129 7.68441 2.57129 8C2.57124 8.31555 2.31556 8.57129 2 8.57129H0.571289C0.255921 8.5709 0.000364123 8.31538 0 8C0.000312451 7.68458 0.255889 7.4291 0.571289 7.42871H2ZM15.4287 7.42871C15.7442 7.42878 16 7.68445 16 8C15.9999 8.31551 15.7442 8.57122 15.4287 8.57129H14C13.6845 8.57127 13.4288 8.31554 13.4287 8C13.4287 7.68442 13.6844 7.42873 14 7.42871H15.4287ZM2.57129 2C2.72276 2 2.86847 2.05989 2.97559 2.16699L3.98535 3.17773C4.09243 3.28478 4.15319 3.42966 4.15332 3.58105C4.15332 3.73262 4.09254 3.8782 3.98535 3.98535C3.75923 4.2013 3.40385 4.20131 3.17773 3.98535L2.16699 2.97559C2.0599 2.86844 2 2.72278 2 2.57129C2.00004 2.41978 2.05984 2.27408 2.16699 2.16699C2.27411 2.05984 2.41981 2.00004 2.57129 2ZM13.0244 2.16699C13.1687 2.0228 13.3791 1.96681 13.5762 2.01953C13.7734 2.07238 13.9276 2.22664 13.9805 2.42383C14.0332 2.62087 13.9772 2.83132 13.833 2.97559L12.8223 3.98535C12.5962 4.20129 12.2408 4.2013 12.0146 3.98535C11.9075 3.8782 11.8467 3.73262 11.8467 3.58105C11.8468 3.42965 11.9076 3.28479 12.0146 3.17773L13.0244 2.16699ZM8 0C8.31554 0 8.57121 0.255764 8.57129 0.571289V2C8.57129 2.31559 8.31559 2.57129 8 2.57129C7.68442 2.57127 7.42871 2.31558 7.42871 2V0.571289C7.42879 0.255772 7.68447 1.41712e-05 8 0Z" fill="#141614"/>
</svg>
