<svg width="25" height="24" viewBox="0 0 25 24" fill="none" xmlns="http://www.w3.org/2000/svg">
<rect x="0.5" width="24" height="24" rx="12" fill="#5865F2"/>
<path d="M18.0447 6.99473C17.0249 6.53432 15.9313 6.1951 14.7879 6.00081C14.7671 5.99707 14.7463 6.00644 14.7356 6.02518C14.5949 6.27132 14.4392 6.59242 14.3301 6.8448C13.1003 6.66364 11.8768 6.66364 10.6722 6.8448C10.5631 6.5868 10.4017 6.27132 10.2604 6.02518C10.2497 6.00706 10.2289 5.99769 10.208 6.00081C9.06528 6.19448 7.97171 6.5337 6.95129 6.99473C6.94246 6.99848 6.93489 7.00473 6.92985 7.01285C4.85559 10.0621 4.28737 13.0363 4.56612 15.9737C4.56738 15.9881 4.57558 16.0019 4.58693 16.0106C5.95547 16.9995 7.28113 17.5999 8.58219 17.9978C8.603 18.0041 8.62507 17.9966 8.63832 17.9797C8.94608 17.5661 9.22042 17.1301 9.45566 16.6715C9.46953 16.6447 9.45629 16.6128 9.42791 16.6022C8.99275 16.4398 8.5784 16.2417 8.17983 16.0168C8.14829 15.9987 8.14577 15.9544 8.17478 15.9331C8.25866 15.8713 8.34254 15.8069 8.42263 15.742C8.43714 15.7301 8.45732 15.7276 8.47435 15.7351C11.0929 16.9114 13.9277 16.9114 16.5153 15.7351C16.5323 15.727 16.5525 15.7295 16.5677 15.7413C16.6478 15.8063 16.7316 15.8713 16.8161 15.9331C16.8451 15.9544 16.8433 15.9987 16.8117 16.0168C16.4131 16.2461 15.9988 16.4398 15.563 16.6016C15.5346 16.6122 15.522 16.6447 15.5359 16.6715C15.7762 17.1295 16.0505 17.5655 16.3526 17.9791C16.3652 17.9966 16.3879 18.0041 16.4087 17.9978C17.7161 17.5999 19.0418 16.9995 20.4103 16.0106C20.4223 16.0019 20.4298 15.9887 20.4311 15.9744C20.7647 12.5784 19.8723 9.62853 18.0655 7.01348C18.0611 7.00473 18.0535 6.99848 18.0447 6.99473ZM9.84667 14.1852C9.05834 14.1852 8.40876 13.473 8.40876 12.5984C8.40876 11.7238 9.04573 11.0116 9.84667 11.0116C10.6539 11.0116 11.2972 11.7301 11.2846 12.5984C11.2846 13.473 10.6476 14.1852 9.84667 14.1852ZM15.1632 14.1852C14.3748 14.1852 13.7253 13.473 13.7253 12.5984C13.7253 11.7238 14.3622 11.0116 15.1632 11.0116C15.9704 11.0116 16.6137 11.7301 16.6011 12.5984C16.6011 13.473 15.9704 14.1852 15.1632 14.1852Z" fill="white"/>
</svg>
