<svg width="24" height="24" viewBox="0 0 24 24" fill="none" xmlns="http://www.w3.org/2000/svg">
<path d="M20.5153 9.72849L13.0153 2.65224C13.0116 2.64904 13.0082 2.6456 13.005 2.64193C12.7289 2.3908 12.369 2.25165 11.9958 2.25165C11.6225 2.25165 11.2627 2.3908 10.9866 2.64193L10.9763 2.65224L3.48469 9.72849C3.33187 9.86901 3.20989 10.0397 3.12646 10.2298C3.04303 10.4199 2.99997 10.6253 3 10.8329V19.5001C3 19.8979 3.15804 20.2794 3.43934 20.5607C3.72064 20.842 4.10218 21.0001 4.5 21.0001H19.5C19.8978 21.0001 20.2794 20.842 20.5607 20.5607C20.842 20.2794 21 19.8979 21 19.5001V10.8329C21 10.6253 20.957 10.4199 20.8735 10.2298C20.7901 10.0397 20.6681 9.86901 20.5153 9.72849ZM19.5 19.5001H4.5V10.8329L4.51031 10.8235L12 3.75005L19.4906 10.8216L19.5009 10.831L19.5 19.5001Z" fill="currentColor"/>
</svg>
