<svg width="24" height="24" viewBox="0 0 24 24" fill="none" xmlns="http://www.w3.org/2000/svg">
<path d="M20.0307 15.5306C19.961 15.6004 19.8783 15.6557 19.7873 15.6934C19.6962 15.7312 19.5986 15.7506 19.5001 15.7506C19.4015 15.7506 19.3039 15.7312 19.2128 15.6934C19.1218 15.6557 19.0391 15.6004 18.9694 15.5306L12.0001 8.56031L5.03068 15.5306C4.88995 15.6714 4.69907 15.7504 4.50005 15.7504C4.30103 15.7504 4.11016 15.6714 3.96943 15.5306C3.8287 15.3899 3.74963 15.199 3.74963 15C3.74963 14.801 3.8287 14.6101 3.96943 14.4694L11.4694 6.96937C11.5391 6.89964 11.6218 6.84432 11.7128 6.80658C11.8039 6.76884 11.9015 6.74941 12.0001 6.74941C12.0986 6.74941 12.1962 6.76884 12.2873 6.80658C12.3783 6.84432 12.461 6.89964 12.5307 6.96937L20.0307 14.4694C20.1004 14.539 20.1557 14.6217 20.1935 14.7128C20.2312 14.8038 20.2506 14.9014 20.2506 15C20.2506 15.0986 20.2312 15.1962 20.1935 15.2872C20.1557 15.3783 20.1004 15.461 20.0307 15.5306Z" fill="currentColor"/>
</svg>
