<svg width="24" height="24" viewBox="0 0 24 24" fill="none" xmlns="http://www.w3.org/2000/svg">
<path d="M20.7806 16.2806L19.0603 18L20.7806 19.7194C20.8503 19.7891 20.9056 19.8718 20.9433 19.9628C20.981 20.0539 21.0004 20.1515 21.0004 20.25C21.0004 20.3486 20.981 20.4461 20.9433 20.5372C20.9056 20.6282 20.8503 20.7109 20.7806 20.7806C20.7109 20.8503 20.6282 20.9056 20.5372 20.9433C20.4461 20.981 20.3486 21.0004 20.25 21.0004C20.1515 21.0004 20.0539 20.981 19.9628 20.9433C19.8718 20.9056 19.7891 20.8503 19.7194 20.7806L18 19.0603L16.2806 20.7806C16.1399 20.9214 15.949 21.0004 15.75 21.0004C15.551 21.0004 15.3601 20.9214 15.2194 20.7806C15.0786 20.6399 14.9996 20.449 14.9996 20.25C14.9996 20.051 15.0786 19.8601 15.2194 19.7194L16.9397 18L15.2194 16.2806C15.0786 16.1399 14.9996 15.949 14.9996 15.75C14.9996 15.551 15.0786 15.3601 15.2194 15.2194C15.3601 15.0786 15.551 14.9996 15.75 14.9996C15.949 14.9996 16.1399 15.0786 16.2806 15.2194L18 16.9397L19.7194 15.2194C19.8601 15.0786 20.051 14.9996 20.25 14.9996C20.449 14.9996 20.6399 15.0786 20.7806 15.2194C20.9214 15.3601 21.0004 15.551 21.0004 15.75C21.0004 15.949 20.9214 16.1399 20.7806 16.2806ZM21.75 12C21.75 12.1989 21.671 12.3897 21.5303 12.5303C21.3897 12.671 21.1989 12.75 21 12.75H9.02344C9.30469 17.7872 12.3356 20.3063 12.4706 20.4159C12.5915 20.5133 12.6792 20.6458 12.7216 20.7951C12.764 20.9444 12.759 21.1032 12.7074 21.2495C12.6558 21.3959 12.56 21.5226 12.4333 21.6123C12.3066 21.7019 12.1552 21.75 12 21.75C10.0716 21.75 8.18657 21.1782 6.58319 20.1068C4.97982 19.0355 3.73013 17.5127 2.99218 15.7312C2.25422 13.9496 2.06114 11.9892 2.43735 10.0979C2.81355 8.20656 3.74215 6.46928 5.10571 5.10571C6.46928 3.74215 8.20656 2.81355 10.0979 2.43735C11.9892 2.06114 13.9496 2.25422 15.7312 2.99218C17.5127 3.73013 19.0355 4.97982 20.1068 6.58319C21.1782 8.18657 21.75 10.0716 21.75 12ZM13.9134 3.975C14.9944 5.40657 16.3125 7.82719 16.4803 11.25H20.2153C20.0558 9.5313 19.3623 7.90563 18.2321 6.60096C17.102 5.29629 15.5918 4.37805 13.9134 3.975ZM12 4.03125C11.1056 4.96125 9.23813 7.35188 9.02157 11.25H14.9784C14.7619 7.35 12.8953 4.95938 12 4.03125ZM3.78469 11.25H7.51969C7.6875 7.82719 9.00563 5.40657 10.0866 3.975C8.40818 4.37805 6.89803 5.29629 5.76788 6.60096C4.63773 7.90563 3.94425 9.5313 3.78469 11.25ZM7.51969 12.75H3.78469C3.94425 14.4687 4.63773 16.0944 5.76788 17.3991C6.89803 18.7037 8.40818 19.622 10.0866 20.025C9.00563 18.5934 7.6875 16.1728 7.51969 12.75Z" fill="#000000"/>
</svg>
