<svg width="24" height="24" viewBox="0 0 24 24" fill="none" xmlns="http://www.w3.org/2000/svg">
<path d="M5.05499 3.24563C4.98913 3.17138 4.90918 3.11095 4.81979 3.06783C4.7304 3.02471 4.63334 2.99976 4.53423 2.99443C4.43513 2.9891 4.33595 3.00349 4.24245 3.03677C4.14895 3.07005 4.06298 3.12156 3.98953 3.18831C3.91608 3.25506 3.85661 3.33572 3.81457 3.42562C3.77252 3.51552 3.74874 3.61288 3.7446 3.71204C3.74045 3.8112 3.75603 3.9102 3.79043 4.00329C3.82483 4.09639 3.87737 4.18173 3.94499 4.25438L5.74874 6.23906C2.34374 8.32875 0.879366 11.55 0.814679 11.6963C0.772035 11.7922 0.75 11.896 0.75 12.0009C0.75 12.1059 0.772035 12.2097 0.814679 12.3056C0.847491 12.3797 1.64155 14.1403 3.40687 15.9056C5.75905 18.2569 8.72999 19.5 12 19.5C13.6806 19.5096 15.3442 19.1636 16.8816 18.4847L18.9441 20.7544C19.0099 20.8286 19.0899 20.8891 19.1793 20.9322C19.2686 20.9753 19.3657 21.0002 19.4648 21.0056C19.5639 21.0109 19.6631 20.9965 19.7566 20.9632C19.8501 20.93 19.9361 20.8784 20.0095 20.8117C20.083 20.7449 20.1424 20.6643 20.1845 20.5744C20.2265 20.4845 20.2503 20.3871 20.2544 20.288C20.2586 20.1888 20.243 20.0898 20.2086 19.9967C20.1742 19.9036 20.1217 19.8183 20.0541 19.7456L5.05499 3.24563ZM9.49218 10.3556L13.3987 14.6541C12.8105 14.9636 12.136 15.0689 11.4814 14.9535C10.8268 14.8382 10.229 14.5087 9.78189 14.0168C9.33481 13.5248 9.06377 12.8984 9.01134 12.2357C8.9589 11.573 9.12803 10.9117 9.49218 10.3556ZM12 18C9.11437 18 6.59343 16.9509 4.50655 14.8828C3.64997 14.0315 2.92145 13.0605 2.34374 12C2.78343 11.1759 4.18687 8.86969 6.7828 7.37063L8.4703 9.22219C7.81699 10.0589 7.48052 11.0997 7.52036 12.1605C7.56021 13.2213 7.97379 14.2339 8.68802 15.0192C9.40225 15.8046 10.3711 16.3122 11.4234 16.4522C12.4757 16.5923 13.5436 16.3559 14.4384 15.7847L15.8194 17.3034C14.6006 17.771 13.3053 18.0072 12 18ZM12.5625 9.05344C12.3671 9.01614 12.1944 8.90274 12.0826 8.73818C11.9708 8.57361 11.9289 8.37137 11.9662 8.17594C12.0035 7.98051 12.1169 7.8079 12.2815 7.69608C12.4461 7.58426 12.6483 7.54239 12.8437 7.57969C13.7996 7.765 14.67 8.25436 15.325 8.97477C15.98 9.69518 16.3846 10.608 16.4784 11.5772C16.4969 11.7752 16.436 11.9725 16.3091 12.1257C16.1822 12.2788 15.9996 12.3752 15.8016 12.3938C15.7781 12.3951 15.7547 12.3951 15.7312 12.3938C15.5438 12.3946 15.3628 12.3251 15.224 12.1992C15.0852 12.0732 14.9986 11.8998 14.9812 11.7131C14.9181 11.0685 14.6486 10.4615 14.2128 9.98226C13.7771 9.50307 13.1982 9.17731 12.5625 9.05344ZM23.1825 12.3056C23.1431 12.3938 22.1934 14.4966 20.055 16.4119C19.9819 16.4794 19.8961 16.5317 19.8027 16.5658C19.7092 16.5998 19.6099 16.6149 19.5105 16.6102C19.4111 16.6055 19.3136 16.5811 19.2238 16.5384C19.1339 16.4956 19.0535 16.4354 18.9871 16.3613C18.9208 16.2872 18.8698 16.2006 18.8373 16.1066C18.8047 16.0125 18.7912 15.913 18.7975 15.8137C18.8037 15.7144 18.8297 15.6173 18.8739 15.5282C18.918 15.439 18.9795 15.3595 19.0547 15.2944C20.1038 14.3518 20.9851 13.2378 21.6609 12C21.0819 10.9385 20.3518 9.96683 19.4934 9.11531C17.4066 7.04906 14.8856 6 12 6C11.392 5.99926 10.7849 6.04849 10.185 6.14719C10.0874 6.16444 9.98741 6.16219 9.89073 6.14058C9.79404 6.11896 9.70259 6.07839 9.62167 6.02123C9.54074 5.96407 9.47195 5.89144 9.41925 5.80754C9.36656 5.72363 9.33101 5.63012 9.31466 5.5324C9.29832 5.43469 9.30149 5.3347 9.32401 5.23821C9.34652 5.14173 9.38793 5.05066 9.44584 4.97027C9.50375 4.88988 9.57702 4.82176 9.6614 4.76985C9.74579 4.71794 9.83963 4.68326 9.93749 4.66781C10.6192 4.55525 11.309 4.49912 12 4.5C15.27 4.5 18.2409 5.74313 20.5931 8.09531C22.3584 9.86063 23.1525 11.6222 23.1853 11.6963C23.2279 11.7922 23.25 11.896 23.25 12.0009C23.25 12.1059 23.2279 12.2097 23.1853 12.3056H23.1825Z" fill="#202020"/>
</svg>
