<svg width="24" height="24" viewBox="0 0 24 24" fill="none" xmlns="http://www.w3.org/2000/svg">
<path d="M21.8944 13.3341C21.7982 13.2377 21.6775 13.1693 21.5454 13.1362C21.4133 13.1032 21.2746 13.1068 21.1444 13.1466C19.7143 13.5789 18.1937 13.6151 16.7446 13.2514C15.2956 12.8877 13.9723 12.1377 12.9159 11.0813C11.8595 10.0249 11.1095 8.70163 10.7458 7.25256C10.3821 5.80349 10.4183 4.2829 10.8506 2.85281C10.8908 2.7225 10.8946 2.58372 10.8618 2.45139C10.8289 2.31906 10.7606 2.19818 10.6642 2.10177C10.5678 2.00536 10.4469 1.93705 10.3146 1.9042C10.1822 1.87134 10.0435 1.87519 9.91314 1.91531C7.93598 2.52098 6.20021 3.73481 4.95283 5.38406C3.86197 6.83237 3.19657 8.55616 3.03139 10.3618C2.86621 12.1674 3.2078 13.9833 4.01778 15.6055C4.82775 17.2277 6.07403 18.5919 7.61658 19.5448C9.15913 20.4978 10.9369 21.0017 12.75 21C14.8653 21.0065 16.9244 20.3188 18.6113 19.0425C20.2605 17.7951 21.4744 16.0594 22.08 14.0822C22.1197 13.9524 22.1234 13.8142 22.0907 13.6825C22.058 13.5507 21.9901 13.4303 21.8944 13.3341ZM17.7094 17.8444C16.1208 19.0409 14.1535 19.6233 12.1697 19.4844C10.1858 19.3454 8.31884 18.4946 6.91252 17.0884C5.50621 15.6822 4.65519 13.8153 4.51612 11.8314C4.37704 9.84756 4.95928 7.88021 6.15564 6.29156C6.93508 5.26224 7.94277 4.42786 9.09939 3.85406C9.0335 4.31646 9.0003 4.78293 9.00002 5.25C9.00275 7.83502 10.0309 10.3134 11.8587 12.1413C13.6866 13.9692 16.165 14.9973 18.75 15C19.218 14.9999 19.6854 14.9666 20.1488 14.9006C19.5744 16.0574 18.7394 17.0651 17.7094 17.8444Z" fill="currentColor"/>
</svg>
