<svg width="24" height="24" viewBox="0 0 24 24" fill="none" xmlns="http://www.w3.org/2000/svg">
<path d="M12.8944 17.4713C13.035 17.6119 13.1139 17.8026 13.1139 18.0014C13.1139 18.2002 13.035 18.3909 12.8944 18.5316L11.9625 19.4691C10.9771 20.4539 9.64069 21.007 8.24744 21.0065C6.85419 21.0061 5.51818 20.4522 4.53332 19.4667C3.54845 18.4812 2.99541 17.1449 2.99585 15.7516C2.99629 14.3584 3.55018 13.0224 4.53566 12.0375L6.79691 9.77626C7.74349 8.82892 9.01632 8.27914 10.3549 8.2394C11.6935 8.19967 12.9967 8.67299 13.9979 9.56251C14.0717 9.62801 14.132 9.70741 14.1751 9.79619C14.2183 9.88497 14.2436 9.98139 14.2495 10.0799C14.2554 10.1785 14.2419 10.2772 14.2096 10.3705C14.1774 10.4638 14.1271 10.5499 14.0616 10.6238C13.9961 10.6976 13.9167 10.7579 13.8279 10.8011C13.7391 10.8442 13.6427 10.8695 13.5442 10.8754C13.4456 10.8813 13.3469 10.8678 13.2536 10.8356C13.1603 10.8033 13.0742 10.753 13.0004 10.6875C12.2853 10.0525 11.3548 9.71473 10.3989 9.74313C9.44309 9.77153 8.53421 10.164 7.85816 10.8403L5.59691 13.0988C4.89351 13.8022 4.49834 14.7562 4.49834 15.7509C4.49834 16.7457 4.89351 17.6997 5.59691 18.4031C6.30032 19.1065 7.25434 19.5017 8.2491 19.5017C9.24386 19.5017 10.1979 19.1065 10.9013 18.4031L11.8332 17.4713C11.9028 17.4015 11.9855 17.3462 12.0766 17.3085C12.1676 17.2707 12.2652 17.2513 12.3638 17.2513C12.4623 17.2513 12.5599 17.2707 12.651 17.3085C12.742 17.3462 12.8248 17.4015 12.8944 17.4713ZM19.4644 4.53376C18.4788 3.55034 17.1433 2.99805 15.751 2.99805C14.3586 2.99805 13.0232 3.55034 12.0375 4.53376L11.1057 5.46657C10.9651 5.6073 10.8861 5.79813 10.8862 5.99706C10.8863 6.196 10.9654 6.38675 11.1061 6.52736C11.2469 6.66796 11.4377 6.7469 11.6366 6.74682C11.8356 6.74673 12.0263 6.66762 12.1669 6.52689L13.0988 5.59501C13.8022 4.89161 14.7562 4.49644 15.751 4.49644C16.7457 4.49644 17.6998 4.89161 18.4032 5.59501C19.1066 6.29842 19.5017 7.25244 19.5017 8.2472C19.5017 9.24196 19.1066 10.196 18.4032 10.8994L16.1419 13.1625C15.4655 13.8384 14.5564 14.2304 13.6006 14.2583C12.6448 14.2862 11.7144 13.9478 10.9997 13.3125C10.9259 13.247 10.8398 13.1967 10.7465 13.1645C10.6532 13.1322 10.5544 13.1187 10.4559 13.1246C10.2569 13.1365 10.0708 13.2271 9.93848 13.3763C9.87298 13.4501 9.82267 13.5362 9.79043 13.6295C9.75819 13.7228 9.74464 13.8215 9.75056 13.9201C9.76251 14.1191 9.85304 14.3052 10.0022 14.4375C11.0031 15.3273 12.3062 15.8009 13.6448 15.7615C14.9834 15.7222 16.2563 15.1727 17.2032 14.2256L19.4644 11.9644C20.4484 10.9787 21.0011 9.6428 21.0011 8.25001C21.0011 6.85722 20.4484 5.52134 19.4644 4.53564V4.53376Z" fill="currentColor"/>
</svg>
